<svg width="80" height="308" viewBox="0 0 80 308" fill="none" xmlns="http://www.w3.org/2000/svg">
<mask id="mask0" mask-type="alpha" maskUnits="userSpaceOnUse" x="-200" y="0" width="280" height="308">
<path fill-rule="evenodd" clip-rule="evenodd" d="M79.9988 158.35C79.7997 197.762 55.6345 231.045 25.6549 257.285C-7.1518 285.999 -46.1486 315.017 -89.2482 306.485C-133.188 297.788 -159.445 256.594 -178.62 216.85C-197.584 177.54 -208.323 133.965 -191.982 93.5379C-174.159 49.4423 -139.1 8.74499 -91.3856 1.02842C-45.8343 -6.33835 -7.04785 27.2356 26.6605 58.178C56.1621 85.2588 80.1989 118.717 79.9988 158.35Z" fill="#FB8172"/>
</mask>
<g mask="url(#mask0)">
<path fill-rule="evenodd" clip-rule="evenodd" d="M79.9988 158.35C79.7997 197.762 55.6345 231.045 25.6549 257.285C-7.1518 285.999 -46.1486 315.017 -89.2482 306.485C-133.188 297.788 -159.445 256.594 -178.62 216.85C-197.584 177.54 -208.323 133.965 -191.982 93.5379C-174.159 49.4423 -139.1 8.74499 -91.3856 1.02842C-45.8343 -6.33835 -7.04785 27.2356 26.6605 58.178C56.1621 85.2588 80.1989 118.717 79.9988 158.35Z" fill="#FB8172"/>
<g clip-path="url(#clip0)">
<path d="M99.9705 129.985C99.4765 128.49 98.6907 127.107 97.6587 125.917C96.6267 124.727 95.3689 123.754 93.9582 123.053C93.4303 122.789 92.8326 122.697 92.2498 122.792C91.667 122.886 91.1288 123.162 90.7117 123.58L86.0733 128.218C85.6292 128.661 85.3462 129.24 85.2695 129.863C85.1929 130.486 85.327 131.116 85.6504 131.654L86.5093 133.086L85.0785 134.516C84.5506 133.99 83.8354 133.694 83.0897 133.694C82.3441 133.694 81.6288 133.99 81.101 134.516L79.7752 135.842L78.4493 134.516C77.3936 133.463 75.9632 132.871 74.4719 132.871C72.9805 132.871 71.5501 133.463 70.4944 134.516L66.5169 138.494C65.4636 139.55 64.872 140.98 64.872 142.471C64.872 143.963 65.4636 145.393 66.5169 146.449L67.8427 147.775L66.5169 149.1C65.9902 149.628 65.6945 150.344 65.6945 151.089C65.6945 151.835 65.9902 152.55 66.5169 153.078L65.0458 154.549L63.6142 153.69C63.0766 153.367 62.4461 153.233 61.8234 153.309C61.2007 153.386 60.6216 153.669 60.1784 154.113L55.5401 158.751C55.1222 159.169 54.8464 159.707 54.7518 160.29C54.6572 160.872 54.7487 161.47 55.0132 161.998C55.7138 163.409 56.6872 164.667 57.8771 165.699C59.0671 166.731 60.4499 167.516 61.9455 168.01L63.3363 168.474L76.4298 182.877L77.8172 181.615L64.5589 167.031C64.4509 166.912 64.3141 166.823 64.1617 166.773L62.5384 166.231C61.2767 165.815 60.1102 165.152 59.1063 164.281C58.1025 163.411 57.2813 162.35 56.6903 161.16C56.6021 160.984 56.5716 160.784 56.6031 160.59C56.6347 160.396 56.7266 160.216 56.8659 160.077L61.5043 155.439C61.652 155.291 61.845 155.197 62.0526 155.171C62.2602 155.145 62.4703 155.19 62.6495 155.298L63.7108 155.935C63.6109 156.113 63.572 156.319 63.5999 156.521C63.6277 156.723 63.7209 156.911 63.8653 157.055L66.5169 159.707C66.604 159.794 66.7073 159.863 66.821 159.91C66.9348 159.957 67.0567 159.982 67.1798 159.982C67.3029 159.982 67.4248 159.957 67.5386 159.91C67.6523 159.863 67.7557 159.794 67.8427 159.707L68.2488 159.301L68.5737 159.951C68.6384 160.081 68.6721 160.224 68.6721 160.37C68.6721 160.515 68.6384 160.659 68.5737 160.789L67.6671 162.602C67.5757 162.785 67.5465 162.993 67.5841 163.194C67.6216 163.395 67.7238 163.578 67.875 163.715L82.4591 176.974L83.7203 175.586L69.6618 162.806L70.2507 161.628C70.445 161.237 70.5461 160.806 70.5461 160.37C70.5461 159.934 70.445 159.503 70.2507 159.112L69.6463 157.903L70.4944 157.055C71.0222 157.582 71.7375 157.878 72.4831 157.878C73.2288 157.878 73.944 157.582 74.4719 157.055L79.7752 162.359C80.4784 163.062 81.4322 163.457 82.4268 163.457C83.4214 163.457 84.3752 163.062 85.0785 162.359C85.7817 161.655 86.1768 160.702 86.1768 159.707C86.1768 158.712 85.7817 157.759 85.0785 157.055L84.9226 156.899C84.6336 156.611 84.4618 156.225 84.4403 155.817C84.4187 155.409 84.5489 155.007 84.8058 154.689C85.0627 154.372 85.4282 154.16 85.8317 154.096C86.2352 154.031 86.6483 154.118 86.9914 154.34L94.3905 159.128C95.2298 159.671 96.2405 159.885 97.2277 159.727C98.215 159.569 99.109 159.052 99.7375 158.274C100.366 157.497 100.685 156.514 100.632 155.516C100.579 154.518 100.159 153.574 99.4519 152.867L89.0559 142.471C89.5826 141.943 89.8784 141.228 89.8784 140.483C89.8784 139.737 89.5826 139.022 89.0559 138.494L89.8637 137.686L91.0724 138.29C91.4632 138.485 91.8938 138.586 92.3302 138.586C92.7666 138.586 93.1971 138.485 93.588 138.29L94.7659 137.702L107.546 151.76L108.934 150.499L95.6755 135.915C95.538 135.764 95.3549 135.661 95.154 135.624C94.9531 135.586 94.7454 135.615 94.5626 135.707L92.7494 136.613C92.6191 136.678 92.4756 136.712 92.3302 136.712C92.1847 136.712 92.0412 136.678 91.9109 136.613L91.2612 136.289L91.7076 135.842C91.7946 135.755 91.8637 135.652 91.9108 135.538C91.9579 135.424 91.9822 135.302 91.9822 135.179C91.9822 135.056 91.9579 134.934 91.9108 134.821C91.8637 134.707 91.7946 134.603 91.7076 134.516L89.0559 131.865C88.9048 131.714 88.7065 131.619 88.494 131.596C88.2815 131.573 88.0676 131.623 87.8876 131.738L87.2582 130.689C87.1504 130.51 87.1057 130.3 87.1312 130.092C87.1568 129.885 87.2511 129.692 87.3991 129.544L92.0375 124.906C92.1765 124.766 92.3559 124.674 92.5502 124.643C92.7445 124.611 92.9437 124.642 93.1197 124.73C94.3098 125.321 95.3709 126.142 96.2415 127.146C97.1121 128.15 97.775 129.316 98.1917 130.578L98.7329 132.201C98.7836 132.354 98.8727 132.491 98.9916 132.599L113.576 145.857L114.837 144.47L100.434 131.376L99.9705 129.985ZM67.8427 145.123C67.1405 144.419 66.7461 143.466 66.7461 142.471C66.7461 141.477 67.1405 140.523 67.8427 139.82L71.8202 135.842C72.524 135.14 73.4776 134.746 74.4719 134.746C75.4661 134.746 76.4197 135.14 77.1235 135.842L78.4493 137.168L69.1686 146.449L67.8427 145.123ZM67.1798 157.718L65.854 156.392L67.8427 154.404L69.1686 155.73L67.1798 157.718ZM98.126 154.193C98.5055 154.573 98.7311 155.079 98.7594 155.615C98.7877 156.151 98.6167 156.678 98.2793 157.096C97.9419 157.513 97.462 157.791 96.9321 157.875C96.4021 157.96 95.8596 157.845 95.409 157.554L88.0099 152.766C87.2781 152.293 86.3969 152.107 85.536 152.244C84.6752 152.382 83.8957 152.833 83.3477 153.511C82.7997 154.189 82.5219 155.045 82.5679 155.916C82.6139 156.786 82.9803 157.609 83.5967 158.225L83.7526 158.381C84.1043 158.733 84.3018 159.21 84.3018 159.707C84.3018 160.204 84.1043 160.681 83.7526 161.033C83.401 161.385 82.9241 161.582 82.4268 161.582C81.9295 161.582 81.4526 161.384 81.101 161.033L75.7977 155.73L87.7301 143.797L98.126 154.193ZM87.7301 139.82C87.9057 139.996 88.0042 140.234 88.0042 140.483C88.0042 140.731 87.9057 140.97 87.7301 141.145L73.146 155.73C72.9701 155.905 72.7317 156.004 72.4831 156.004C72.2346 156.004 71.9962 155.905 71.8202 155.73L67.8427 151.752C67.6672 151.576 67.5686 151.338 67.5686 151.089C67.5686 150.841 67.6672 150.602 67.8427 150.426L82.4268 135.842C82.6028 135.667 82.8412 135.568 83.0897 135.568C83.3383 135.568 83.5767 135.667 83.7526 135.842L87.7301 139.82ZM86.4043 135.842L88.393 133.853L89.7188 135.179L87.7301 137.168L86.4043 135.842Z" fill="white"/>
<path d="M71.8201 162.359L73.1459 161.033L75.7975 163.685L74.4717 165.01L71.8201 162.359Z" fill="white"/>
<path d="M75.7976 166.336L77.1234 165.01L78.4493 166.336L77.1234 167.662L75.7976 166.336Z" fill="white"/>
<path d="M74.4717 161.033L75.7975 159.707L81.1008 165.01L79.775 166.336L74.4717 161.033Z" fill="white"/>
<path d="M77.1233 155.73L78.4491 154.404L81.1008 157.056L79.7749 158.381L77.1233 155.73Z" fill="white"/>
</g>
<g clip-path="url(#clip1)">
<path d="M49.6396 203.824L48.3471 202.677L49.7648 197.387C49.8506 197.066 49.8056 196.725 49.6399 196.438C49.4741 196.151 49.2011 195.941 48.8809 195.856L44.0512 194.562C43.8591 194.51 43.6574 194.505 43.4631 194.548C43.2687 194.59 43.0873 194.678 42.9339 194.805L42.9333 194.804L35.1282 201.229L-5.30232 190.396C-7.54379 189.798 -9.9309 190.114 -11.9399 191.274C-13.949 192.434 -15.4159 194.343 -16.0188 196.583L-20.8717 214.694L-18.4569 215.341L-13.604 197.23C-13.1733 195.63 -12.1255 194.266 -10.6905 193.438C-9.25549 192.609 -7.55042 192.384 -5.94936 192.811L33.8951 203.487L33.248 205.902L-6.59641 195.226C-7.55704 194.969 -8.58009 195.105 -9.44111 195.602C-10.3021 196.099 -10.9308 196.917 -11.1892 197.877L-15.7185 214.781L-13.3037 215.428L-8.77439 198.524C-8.68825 198.204 -8.47869 197.931 -8.19169 197.766C-7.90468 197.6 -7.56367 197.555 -7.24346 197.64L32.601 208.317L24.5129 238.502L22.0981 237.855L23.0686 234.233C23.3889 234.318 23.7301 234.273 24.0172 234.108C24.3043 233.942 24.5138 233.669 24.5996 233.349L25.5701 229.726C25.6559 229.406 25.611 229.065 25.4453 228.778C25.2795 228.491 25.0065 228.281 24.6863 228.196L25.6568 224.573C25.9771 224.659 26.3183 224.614 26.6054 224.448C26.8925 224.283 27.102 224.01 27.1878 223.689L28.1583 220.067C28.2441 219.747 28.1992 219.406 28.0335 219.119C27.8677 218.832 27.5947 218.622 27.2745 218.536L12.7856 214.654C12.4653 214.568 12.1242 214.613 11.837 214.779C11.5499 214.945 11.3404 215.218 11.2546 215.538L10.2841 219.16C10.1983 219.48 10.2432 219.822 10.4089 220.109C10.5747 220.396 10.8477 220.605 11.1679 220.691L10.1974 224.313C9.87715 224.227 9.53596 224.272 9.24885 224.438C8.96175 224.604 8.75225 224.877 8.66645 225.197L8.34292 226.405L22.8318 230.287L22.5083 231.494L11.6416 228.583L10.9946 230.997L20.6538 233.586L19.6833 237.208L8.81659 234.296L8.16955 236.711L23.8658 240.917L23.5423 242.124L23.5451 242.125C23.5017 242.283 23.49 242.449 23.5109 242.611C23.5318 242.774 23.5847 242.931 23.6666 243.074C23.7485 243.216 23.8579 243.341 23.9882 243.44C24.1186 243.54 24.2675 243.613 24.4262 243.655L28.0484 244.626L22.225 266.359L24.6398 267.006L30.6831 244.452L38.6755 237.873C38.8766 237.707 39.021 237.483 39.0885 237.231L42.4473 224.696L44.1397 224.349C45.2784 224.12 46.3302 223.577 47.1758 222.781C48.0213 221.984 48.6269 220.967 48.9237 219.844L51.5299 210.117C51.8344 208.996 51.8186 207.813 51.4845 206.7C51.1504 205.588 50.5113 204.591 49.6396 203.824ZM13.3459 217.392L25.42 220.628L25.0965 221.835L13.0224 218.6L13.3459 217.392ZM13.5828 221.338L23.242 223.926L22.2714 227.549L12.6122 224.96L13.5828 221.338ZM47.0264 197.947L36.9972 235.377L34.5824 234.73L44.6116 197.3L47.0264 197.947ZM36.5297 203.314L41.5108 199.213L31.9477 234.903L26.9667 239.003L36.5297 203.314ZM33.3493 236.987L35.2113 237.486L29.2815 242.368L27.4195 241.869L33.3493 236.987ZM46.5089 219.197C46.3308 219.871 45.9674 220.481 45.4601 220.959C44.9527 221.437 44.3216 221.763 43.6383 221.9L43.1707 221.996L47.6237 205.377L47.9808 205.694C48.5038 206.155 48.8873 206.752 49.0878 207.42C49.2883 208.087 49.2978 208.798 49.1151 209.47L46.5089 219.197Z" fill="white"/>
<path d="M21.6881 244.215L-1.25269 238.068L-1.89973 240.483L21.041 246.63C21.361 246.716 21.6338 246.926 21.7995 247.213C21.9652 247.5 22.0103 247.841 21.9249 248.161L17.3956 265.065L19.8104 265.712L24.3397 248.808C24.5959 247.848 24.4606 246.825 23.9635 245.964C23.4664 245.103 22.6481 244.474 21.6881 244.215Z" fill="white"/>
<path d="M5.45457 217.866L6.42514 214.244C6.51095 213.924 6.46602 213.582 6.30027 213.295C6.1345 213.008 5.86148 212.799 5.54126 212.713L-8.94762 208.831C-9.26785 208.745 -9.60904 208.79 -9.89614 208.955C-10.1832 209.121 -10.3927 209.394 -10.4786 209.714L-11.4491 213.337C-11.5349 213.657 -11.49 213.998 -11.3242 214.285C-11.1585 214.572 -10.8855 214.782 -10.5652 214.868L-10.8888 216.075L-8.47395 216.722L-8.15043 215.515L1.50883 218.103L0.538258 221.725L-3.08396 220.755L-3.73101 223.169L3.51343 225.11L3.83695 223.903C3.92276 223.583 3.87783 223.242 3.71208 222.955C3.54631 222.667 3.27329 222.458 2.95307 222.372L3.92364 218.75C4.24387 218.836 4.58506 218.791 4.87216 218.625C5.15927 218.459 5.36877 218.186 5.45457 217.866ZM-8.38726 211.569L3.68681 214.804L3.36328 216.012L-8.71079 212.776L-8.38726 211.569Z" fill="white"/>
<path d="M5.43139 237.271L6.40196 233.649C6.72218 233.735 7.06337 233.69 7.35048 233.524C7.63758 233.358 7.84708 233.085 7.93289 232.765L8.90346 229.143C8.98926 228.823 8.94434 228.481 8.77858 228.194C8.61282 227.907 8.3398 227.698 8.01958 227.612L-5.46961 223.997C-5.12977 223.503 -4.91358 222.934 -4.8392 222.339C-4.76483 221.743 -4.83445 221.139 -5.04222 220.576C-5.24999 220.013 -5.58982 219.508 -6.03317 219.104C-6.47652 218.7 -7.01043 218.408 -7.59003 218.253L-12.834 216.848C-13.6265 216.633 -14.4538 216.578 -15.2679 216.685C-16.082 216.792 -16.8667 217.06 -17.5767 217.472L-22.1267 220.099C-22.7676 220.47 -23.5042 220.642 -24.243 220.594L-27.8207 220.363L-27.9815 222.858L-24.404 223.088C-23.1725 223.169 -21.9448 222.882 -20.8766 222.264L-16.3268 219.637C-15.9008 219.39 -15.4299 219.229 -14.9414 219.165C-14.4529 219.101 -13.9566 219.134 -13.481 219.263L-8.23708 220.668C-7.91686 220.754 -7.64383 220.963 -7.47807 221.25C-7.31231 221.537 -7.26739 221.878 -7.3532 222.199C-7.439 222.519 -7.6485 222.792 -7.9356 222.958C-8.22271 223.123 -8.5639 223.168 -8.88413 223.083L-12.5063 222.112C-12.8266 222.026 -13.1678 222.071 -13.4549 222.237C-13.742 222.403 -13.9515 222.676 -14.0373 222.996C-14.2816 223.912 -14.7488 224.753 -15.3971 225.444C-16.0455 226.136 -16.8549 226.656 -17.7532 226.959L-18.4702 227.202L-17.6692 229.57L-16.9521 229.327C-16.059 229.025 -15.2243 228.572 -14.4841 227.987C-14.3734 228.06 -14.2518 228.115 -14.124 228.149L-15.0945 231.771C-15.1803 232.091 -15.1354 232.433 -14.9697 232.72C-14.8039 233.007 -14.5309 233.216 -14.2107 233.302L-5.7588 235.567C-5.84494 235.887 -6.0545 236.16 -6.34151 236.325C-6.62851 236.491 -6.96952 236.536 -7.28973 236.451L-22.986 232.245C-23.1495 232.201 -23.3203 232.191 -23.4878 232.215L-31.5642 233.379L-31.2076 235.853L-23.3853 234.726L-7.93678 238.866C-6.97615 239.122 -5.9531 238.986 -5.09209 238.489C-4.23107 237.992 -3.60239 237.174 -3.34399 236.214L3.90046 238.155C4.22068 238.241 4.56187 238.196 4.84898 238.03C5.13608 237.864 5.34558 237.591 5.43139 237.271ZM-9.53117 225.497L6.16512 229.703L5.8416 230.911L-12.2695 226.058L-11.946 224.85L-9.53117 225.497ZM-12.3562 231.211L-11.7092 228.796L3.98714 233.002L3.3401 235.417L-12.3562 231.211Z" fill="white"/>
</g>
<path d="M53.7502 79.25H18.7829C18.891 77.1 19.28 74.9734 19.94 72.9244L17.5604 72.1581C16.8205 74.4547 16.39 76.8397 16.28 79.25H7.62749C8.05861 75.83 9.29307 72.5606 11.2299 69.7091C13.1668 66.8577 15.7511 64.5051 18.7715 62.8439L17.5616 60.6561C14.1499 62.5329 11.2385 65.2012 9.07208 68.4368C6.90563 71.6723 5.54739 75.3806 5.1115 79.25H-12.4998C-12.8313 79.25 -13.1492 79.3817 -13.3836 79.6161C-13.6181 79.8505 -13.7498 80.1685 -13.7498 80.5V85.5C-13.7489 86.9796 -13.3728 88.4348 -12.6567 89.7296C-11.9405 91.0244 -10.9078 92.1164 -9.65489 92.9035C-11.2664 93.7522 -12.6159 95.0245 -13.5577 96.5834C-14.4996 98.1423 -14.9982 99.9286 -14.9998 101.75V103H-17.4998V105.5H45.0002V103H42.5002V101.75C42.4986 99.928 41.9997 98.1411 41.0573 96.5819C40.1148 95.0226 38.7646 93.7503 37.1522 92.9019C38 92.3705 38.7502 91.6975 39.3701 90.9122C39.3728 90.9107 39.3757 90.9094 39.3784 90.9078C39.3786 90.9078 39.3788 90.9077 39.379 90.9077C39.3792 90.9076 39.3793 90.9075 39.3795 90.9073C39.3796 90.9072 39.3797 90.907 39.3798 90.9068C39.3799 90.9066 39.3799 90.9064 39.3799 90.9062H39.3815C40.1449 90.4631 40.8062 89.8639 41.322 89.1477C41.8379 88.4315 42.1968 87.6144 42.3752 86.75H53.7502C54.7448 86.75 55.6986 86.3549 56.4019 85.6516C57.1052 84.9484 57.5002 83.9945 57.5002 83C57.5002 82.0054 57.1052 81.0516 56.4019 80.3483C55.6986 79.6451 54.7448 79.25 53.7502 79.25ZM-12.4998 101.75C-12.4975 99.7615 -11.7066 97.8552 -10.3006 96.4491C-8.89455 95.0431 -6.98819 94.2522 -4.99976 94.25C-4.66823 94.25 -4.35029 94.3817 -4.11587 94.6161C-3.88145 94.8505 -3.74976 95.1684 -3.74976 95.5C-3.74976 95.8315 -3.88145 96.1494 -4.11587 96.3839C-4.35029 96.6183 -4.66823 96.75 -4.99976 96.75C-6.32538 96.7515 -7.59627 97.2787 -8.53363 98.2161C-9.47099 99.1535 -9.99825 100.424 -9.99976 101.75V103H-12.4998V101.75ZM28.9653 94.25C28.765 94.8155 28.7034 95.4209 28.7856 96.0152C28.8679 96.6096 29.0916 97.1755 29.438 97.6654C29.7843 98.1553 30.2432 98.5549 30.7761 98.8307C31.309 99.1064 31.9003 99.2502 32.5002 99.25C33.1631 99.2507 33.7985 99.5144 34.2672 99.983C34.7359 100.452 34.9995 101.087 35.0002 101.75V103H28.7502V99.25C28.7503 99.0858 28.718 98.9232 28.6552 98.7716C28.5924 98.6199 28.5003 98.4821 28.3842 98.366C28.2681 98.2499 28.1303 98.1578 27.9786 98.095C27.827 98.0322 27.6644 97.9999 27.5002 98H26.2487C26.2502 97.9765 26.2502 97.9531 26.2502 97.9296V94.25H28.9653ZM3.75024 97.9296V95.7047C4.31743 96.1141 4.93931 96.5156 5.62993 96.9203C5.87172 97.0613 6.05919 97.2794 6.16229 97.5396C6.26539 97.7998 6.27816 98.0871 6.19856 98.3555C6.11896 98.6238 5.95159 98.8577 5.72326 99.0196C5.49494 99.1815 5.21888 99.2621 4.93931 99.2484C4.62281 99.2223 4.32701 99.0806 4.1083 98.8503C3.88958 98.6201 3.76324 98.3174 3.75337 98C3.75077 97.9766 3.74972 97.9531 3.75024 97.9296ZM4.82212 101.745C4.88306 101.748 4.94399 101.75 5.00337 101.75C5.96734 101.753 6.89468 101.381 7.58931 100.712C7.66118 100.644 7.72993 100.573 7.79399 100.5H10.9581C11.3092 100.893 11.7395 101.208 12.2206 101.423C12.7018 101.639 13.2231 101.75 13.7502 101.75C14.2774 101.75 14.7987 101.639 15.2799 101.423C15.761 101.208 16.1913 100.893 16.5424 100.5H19.7065C19.7706 100.573 19.8393 100.644 19.9112 100.712C20.6058 101.381 21.5331 101.753 22.4971 101.75C22.5565 101.75 22.6174 101.748 22.6784 101.745C23.1731 101.723 23.6583 101.601 24.1049 101.387C24.5516 101.173 24.9507 100.871 25.2784 100.5H26.2502V103H1.25024V100.5H2.22212C2.54984 100.871 2.9489 101.173 3.39557 101.387C3.84224 101.601 4.32738 101.723 4.82212 101.745ZM13.7502 99.25C13.4191 99.2496 13.1016 99.118 12.8673 98.884C12.633 98.65 12.501 98.3326 12.5002 98.0015V98C12.5096 97.5515 13.0534 96.1562 13.7502 94.6234C14.4471 96.1578 14.9924 97.5546 15.0002 98C14.9998 98.3314 14.868 98.649 14.6336 98.8834C14.3993 99.1177 14.0816 99.2495 13.7502 99.25ZM23.7502 97.9296C23.7508 97.9531 23.7497 97.9766 23.7471 98C23.7372 98.3174 23.6109 98.6201 23.3922 98.8503C23.1735 99.0806 22.8777 99.2223 22.5612 99.2484C22.2816 99.2621 22.0055 99.1815 21.7772 99.0196C21.5488 98.8577 21.3815 98.6238 21.3019 98.3555C21.2223 98.0871 21.235 97.7998 21.3382 97.5396C21.4413 97.2793 21.6287 97.0613 21.8706 96.9203C22.5612 96.5156 23.1831 96.1141 23.7502 95.7047V97.9296ZM20.6065 94.7624C20.0424 95.0942 19.5745 95.5672 19.2489 96.135C18.9234 96.7027 18.7515 97.3455 18.7502 98H17.5002C17.5002 97.1797 16.9424 95.6719 16.3237 94.25H21.4424C21.1784 94.4203 20.8997 94.5911 20.6065 94.7624ZM10.0002 98H8.75024C8.74895 97.3455 8.57707 96.7027 8.25155 96.135C7.92603 95.5672 7.45813 95.0942 6.89399 94.7624C6.60024 94.5906 6.3216 94.4198 6.05806 94.25H11.1768C10.5581 95.6719 10.0002 97.1797 10.0002 98ZM1.25181 98H0.000244141C-0.163921 97.9999 -0.326485 98.0322 -0.478161 98.095C-0.629839 98.1578 -0.767654 98.2499 -0.883738 98.366C-0.999819 98.4821 -1.09189 98.6199 -1.1547 98.7716C-1.2175 98.9232 -1.2498 99.0858 -1.24976 99.25V103H-7.49976V101.75C-7.499 101.087 -7.23536 100.452 -6.76669 99.983C-6.29801 99.5144 -5.66256 99.2507 -4.99976 99.25C-4.39977 99.2502 -3.8085 99.1064 -3.27562 98.8306C-2.74275 98.5549 -2.28385 98.1553 -1.93748 97.6654C-1.59112 97.1755 -1.36741 96.6096 -1.28515 96.0152C-1.2029 95.4209 -1.2645 94.8155 -1.46478 94.25H1.25024V97.9296C1.25024 97.9531 1.25024 97.9765 1.25181 98ZM40.0002 101.75V103H37.5002V101.75C37.4987 100.424 36.9715 99.1535 36.0341 98.2161C35.0968 97.2787 33.8259 96.7515 32.5002 96.75C32.1687 96.75 31.8508 96.6183 31.6164 96.3839C31.3819 96.1494 31.2502 95.8315 31.2502 95.5C31.2502 95.1684 31.3819 94.8505 31.6164 94.6161C31.8508 94.3817 32.1687 94.25 32.5002 94.25C34.4887 94.2522 36.395 95.0431 37.8011 96.4491C39.2071 97.8552 39.998 99.7615 40.0002 101.75ZM15.1518 91.75C15.0377 91.5218 14.9393 91.3297 14.8627 91.1797C14.7578 90.975 14.5984 90.8033 14.4021 90.6833C14.2058 90.5634 13.9803 90.5 13.7502 90.5C13.5202 90.5 13.2947 90.5634 13.0984 90.6833C12.9021 90.8033 12.7427 90.975 12.6377 91.1797C12.5612 91.3297 12.4627 91.5219 12.3502 91.75H-4.99976C-6.65678 91.7481 -8.2454 91.089 -9.41709 89.9173C-10.5888 88.7456 -11.2479 87.157 -11.2498 85.5V81.75H33.7502V90.5C33.7497 90.6934 33.7944 90.8843 33.8806 91.0574C33.9669 91.2305 34.0924 91.3811 34.2471 91.4971C33.6798 91.6641 33.0916 91.7493 32.5002 91.75H15.1518ZM53.7502 84.25H41.2502C41.0861 84.2499 40.9235 84.2822 40.7718 84.345C40.6202 84.4078 40.4823 84.4999 40.3663 84.616C40.2502 84.7321 40.1581 84.8699 40.0953 85.0216C40.0325 85.1732 40.0002 85.3358 40.0002 85.5C39.9989 86.4941 39.6034 87.4472 38.9004 88.1502C38.1975 88.8531 37.2444 89.2487 36.2502 89.25V81.75H53.7502C54.0818 81.75 54.3997 81.8817 54.6341 82.1161C54.8685 82.3505 55.0002 82.6685 55.0002 83C55.0002 83.3315 54.8685 83.6494 54.6341 83.8839C54.3997 84.1183 54.0818 84.25 53.7502 84.25Z" fill="white"/>
<path d="M19.2517 70.25C19.4466 70.3962 19.68 70.4822 19.9232 70.4975C20.1664 70.5128 20.4087 70.4566 20.6204 70.3359L29.0079 65.5422L38.5954 66.7406C38.8697 66.7745 39.1474 66.7167 39.3854 66.5763C39.6234 66.4358 39.8082 66.2205 39.911 65.964L44.911 53.464C45.0226 53.1839 45.0294 52.8728 44.9301 52.5881C44.8308 52.3033 44.632 52.064 44.3704 51.914L43.1173 51.1968C43.3225 51.0227 43.507 50.8256 43.6673 50.6093L44.6985 49.2343C44.9769 48.863 45.1831 48.4427 45.3063 47.9953V47.9944L48.7615 46.2667C49.5111 45.8951 50.1416 45.3209 50.5814 44.6092C51.0213 43.8976 51.2529 43.0769 51.2501 42.2402C51.2497 41.9106 51.3309 41.5861 51.4865 41.2955C51.642 41.0049 51.867 40.7573 52.1414 40.5747L56.9435 37.3733L55.5567 35.2932L50.7547 38.4947C50.1375 38.9051 49.6314 39.462 49.2817 40.1155C48.9319 40.7691 48.7493 41.499 48.7501 42.2402C48.7513 42.6123 48.6483 42.9772 48.4527 43.2936C48.2572 43.6101 47.9768 43.8654 47.6435 44.0307L45.0573 45.3238C44.8785 44.9564 44.6395 44.6214 44.3501 44.3328L43.7876 43.7703L43.7856 43.7683C44.4108 43.512 44.9788 43.1338 45.4564 42.6557L47.5329 40.5792L45.7652 38.8113L43.6886 40.888C43.4243 41.1538 43.105 41.3584 42.753 41.4874C42.401 41.6163 42.0251 41.6665 41.6516 41.6343L41.4017 41.3843C40.698 40.682 39.7443 40.2875 38.7501 40.2875C37.7559 40.2875 36.8022 40.682 36.0985 41.3843L34.4864 42.9949C34.3336 42.9825 34.1875 42.9266 34.0655 42.8337C33.9434 42.7408 33.8506 42.615 33.7979 42.4709C33.7452 42.3269 33.7349 42.1708 33.7682 42.0212C33.8015 41.8715 33.877 41.7345 33.9858 41.6264L37.0152 38.5969C37.4586 38.1511 37.9859 37.7977 38.5667 37.5571C39.1476 37.3165 39.7703 37.1935 40.399 37.1952C41.3562 37.1979 42.3043 37.0106 43.1886 36.6444C44.0729 36.2781 44.8757 35.7401 45.5506 35.0614L47.9782 32.6339L46.2105 30.866L43.7828 33.2937C43.3395 33.7395 42.8121 34.0928 42.2313 34.3334C41.6505 34.574 41.0277 34.697 40.399 34.6952C39.4419 34.6926 38.4938 34.8799 37.6095 35.2462C36.7252 35.6125 35.9224 36.1505 35.2474 36.8292L32.6388 39.4378C31.7176 39.6523 30.848 40.0468 30.0799 40.5987C29.3119 41.1506 28.6605 41.849 28.1634 42.6536L28.1626 42.6531L26.8704 41.914C26.7017 41.8178 26.5129 41.7622 26.3189 41.7516C26.125 41.7411 25.9313 41.7758 25.7531 41.8531C25.5749 41.9305 25.4172 42.0483 25.2925 42.1971C25.1677 42.346 25.0794 42.5219 25.0345 42.7109L18.7845 68.9609C18.7277 69.1979 18.7418 69.4463 18.8248 69.6755C18.9078 69.9046 19.0563 70.1043 19.2517 70.25ZM40.0485 49.4453L36.0751 47.175C36.0532 47.1625 36.0329 47.15 36.0126 47.1375C35.8618 47.0394 35.734 46.9099 35.638 46.7577C35.542 46.6056 35.48 46.4345 35.4563 46.2562C35.4322 46.0811 35.4459 45.9029 35.4966 45.7337C35.5472 45.5644 35.6337 45.4079 35.7501 45.275L35.7503 45.2747C35.8455 45.2377 35.9399 45.1974 36.0326 45.151L38.2893 44.0226C38.592 43.8703 38.9219 43.7795 39.2599 43.7556C39.5979 43.7316 39.9373 43.7748 40.2585 43.8828C40.309 43.8997 40.36 43.9126 40.4107 43.9278L40.4142 43.9312L42.5829 46.1C42.7948 46.3134 42.923 46.5957 42.9442 46.8957C42.9654 47.1957 42.8783 47.4933 42.6985 47.7344L41.6673 49.1094C41.4871 49.3493 41.2267 49.5165 40.9336 49.5804C40.6405 49.6444 40.3341 49.6009 40.0704 49.4578C40.0626 49.4531 40.0563 49.45 40.0485 49.4453H40.0485ZM31.309 42.805C31.4013 43.3039 31.6078 43.7745 31.9125 44.1802C32.2171 44.5859 32.6115 44.9155 33.0648 45.1432L33.0642 45.1453C33.0407 45.2359 33.0204 45.3266 33.0048 45.4187L30.336 43.8937L30.3352 43.8933C30.601 43.4819 30.9296 43.1147 31.309 42.805ZM27.0798 44.914L34.836 49.3453L38.8079 51.6156C38.8141 51.6187 38.8188 51.6218 38.8251 51.625L42.186 53.5453L41.3441 55.6524L26.0733 57.834L26.4269 60.3089L40.2721 58.331L40.272 58.3312L37.9485 64.1406L28.9048 63.0094C28.6365 62.9766 28.3649 63.0309 28.1298 63.164L21.8845 66.7343L27.0798 44.914Z" fill="white"/>
<path d="M10.9485 77.7655L13.4041 78.2346C13.5551 77.4448 13.7618 76.6666 14.0227 75.9059L11.6582 75.0942C11.3589 75.9668 11.1217 76.8594 10.9485 77.7655Z" fill="white"/>
<path d="M17.455 70.092L15.6073 68.408C14.5048 69.6197 13.5634 70.9688 12.8066 72.4218L15.0231 73.5782C15.6802 72.3162 16.4976 71.1444 17.455 70.092Z" fill="white"/>
</g>
<defs>
<clipPath id="clip0">
<rect width="60" height="60" fill="white" transform="translate(40.0002 150.426) rotate(-45)"/>
</clipPath>
<clipPath id="clip1">
<rect width="80" height="80" fill="white" transform="translate(-19.2942 175) rotate(15)"/>
</clipPath>
</defs>
</svg>
