<svg width="80" height="240" viewBox="0 0 80 240" fill="none" xmlns="http://www.w3.org/2000/svg">
<mask id="mask0" mask-type="alpha" maskUnits="userSpaceOnUse" x="0" y="0" width="240" height="240">
<path fill-rule="evenodd" clip-rule="evenodd" d="M0.783168 128.904C5.92245 91.55 49.4592 79.9876 78.5045 56.9724C106.414 34.8574 127.961 -5.41527 162.695 0.606545C198.216 6.7649 213.91 48.3643 227.319 82.7725C239.295 113.505 246.612 147.876 231.473 177.093C216.909 205.2 184.614 213.214 154.974 222.389C121.068 232.884 84.9443 250.389 54.438 231.893C20.1281 211.092 -4.79971 169.481 0.783168 128.904Z" fill="#FB8172"/>
</mask>
<g mask="url(#mask0)">
<path fill-rule="evenodd" clip-rule="evenodd" d="M0.783168 128.904C5.92245 91.55 49.4592 79.9876 78.5045 56.9724C106.414 34.8574 127.961 -5.41527 162.695 0.606545C198.216 6.7649 213.91 48.3643 227.319 82.7725C239.295 113.505 246.612 147.876 231.473 177.093C216.909 205.2 184.614 213.214 154.974 222.389C121.068 232.884 84.9443 250.389 54.438 231.893C20.1281 211.092 -4.79971 169.481 0.783168 128.904Z" fill="#FB8172"/>
<path d="M15.625 115.688C13.5222 115.688 11.875 116.923 11.875 118.5C11.875 120.077 13.5222 121.312 15.625 121.312C17.7278 121.312 19.375 120.077 19.375 118.5C19.375 116.923 17.7278 115.688 15.625 115.688ZM15.625 119.438C14.4804 119.438 13.75 118.882 13.75 118.5C13.75 118.118 14.4804 117.562 15.625 117.562C16.7696 117.562 17.5 118.118 17.5 118.5C17.5 118.882 16.7696 119.438 15.625 119.438Z" fill="white"/>
<path d="M34.375 115.688C34.0073 115.688 33.6408 115.728 33.2819 115.807C32.8253 114.641 31.4095 113.812 29.6875 113.812C27.5847 113.812 25.9375 115.048 25.9375 116.625C25.9375 118.202 27.5847 119.438 29.6875 119.438C30.0554 119.438 30.4222 119.399 30.7815 119.32C31.239 120.485 32.6541 121.312 34.375 121.312C36.4778 121.312 38.125 120.077 38.125 118.5C38.125 116.923 36.4778 115.688 34.375 115.688ZM27.8125 116.625C27.8125 116.243 28.5429 115.688 29.6875 115.688C30.8321 115.688 31.5625 116.243 31.5625 116.625C31.5625 117.007 30.8321 117.562 29.6875 117.562C28.5429 117.562 27.8125 117.007 27.8125 116.625ZM34.375 119.438C33.2333 119.438 32.5041 118.885 32.5003 118.503C32.7222 118.318 32.9146 118.1 33.0711 117.858C33.4762 117.657 33.9231 117.556 34.375 117.562C35.5196 117.562 36.25 118.118 36.25 118.5C36.25 118.882 35.5196 119.438 34.375 119.438Z" fill="white"/>
<path d="M47.8409 80.6895C48.1718 79.366 48.8562 78.1573 49.8208 77.1925L52.8504 74.1629L51.5246 72.837L48.495 75.8667C47.2901 77.0718 46.4352 78.5815 46.0218 80.2347C45.8054 81.1026 45.4355 81.9248 44.9297 82.6625L43.8281 84.2709C43.3725 83.9683 42.8443 83.793 42.2981 83.7632C41.752 83.7335 41.2078 83.8503 40.722 84.1016C40.2362 84.3529 39.8264 84.7295 39.5352 85.1925C39.2439 85.6554 39.0817 86.1878 39.0655 86.7345C39.0338 86.7401 39.0025 86.7467 38.9711 86.7532C38.8452 86.0448 38.589 85.366 38.2154 84.7511C40.2675 83.3729 41.8054 81.3541 42.5891 79.0097L42.7644 78.4839L40.9856 77.8911L40.8104 78.4168C40.3536 79.7818 39.5868 81.0224 38.5702 82.0414C37.7135 82.9028 36.6945 83.5858 35.5721 84.0507C34.4496 84.5156 33.2461 84.7533 32.0312 84.75H32.0175C30.5606 84.746 29.1175 85.031 27.7715 85.5885C26.4256 86.146 25.2036 86.965 24.1763 87.9979C24.0171 88.1573 23.8282 88.2838 23.6201 88.3701C23.4121 88.4564 23.1891 88.5009 22.9639 88.501C22.7387 88.501 22.5157 88.4568 22.3076 88.3706C22.0995 88.2845 21.9104 88.1582 21.7512 87.9989C21.5919 87.8397 21.4656 87.6506 21.3795 87.4425C21.2933 87.2344 21.249 87.0114 21.2491 86.7862C21.2492 86.561 21.2936 86.338 21.3799 86.13C21.4662 85.922 21.5927 85.733 21.7521 85.5738L22.5983 84.7276C23.8534 83.47 25.4536 82.6136 27.1961 82.2669C28.4845 82.0078 29.6924 81.4449 30.7195 80.625L34.0232 77.9821L32.8518 76.5179L29.5481 79.1608C28.7553 79.7937 27.8229 80.2283 26.8284 80.4282C26.7515 80.4436 26.6754 80.4615 26.5991 80.4785C25.1606 79.8586 23.5552 79.7415 22.0419 80.1461C20.5287 80.5506 19.1959 81.4533 18.2586 82.7084C17.3214 83.9634 16.8344 85.4977 16.8762 87.0635C16.918 88.6294 17.4862 90.1354 18.4891 91.3387L18.5192 91.3749L18.4426 91.4898C18.2494 91.7795 17.9722 92.0033 17.6482 92.131C17.3242 92.2588 16.9689 92.2843 16.6299 92.2043C16.291 92.1243 15.9846 91.9425 15.7519 91.6834C15.5192 91.4243 15.3713 91.1002 15.3281 90.7546C15.1338 89.2333 15.2431 87.6886 15.6497 86.2098C16.0563 84.731 16.7522 83.3476 17.6971 82.1396C19.6961 79.559 22.6232 77.8604 25.8556 77.4052C31.0719 76.6576 36.0034 74.564 40.1644 71.3306L42.4506 69.5525L41.2994 68.0725L39.0132 69.8507C35.1099 72.8838 30.4837 74.8477 25.5904 75.5489C21.8767 76.0721 18.5137 78.0237 16.217 80.9887C15.1204 82.3907 14.3127 83.9963 13.8408 85.7125C13.3689 87.4287 13.2421 89.2215 13.4677 90.9871C13.5539 91.6775 13.8392 92.3279 14.289 92.8587C14.7387 93.3895 15.3334 93.7779 16.0002 93.9763C16.6671 94.1747 17.3773 94.1746 18.0441 93.9759C18.7108 93.7773 19.3053 93.3887 19.7549 92.8578L20.4833 93.7319L21.95 96.1763C22.6233 97.2974 23.1546 98.4978 23.5315 99.75H3.4375C2.69158 99.75 1.97621 100.046 1.44876 100.574C0.921316 101.101 0.625 101.817 0.625 102.562C0.625 103.308 0.921316 104.024 1.44876 104.551C1.97621 105.079 2.69158 105.375 3.4375 105.375H3.64301L7.08782 119.154C7.44128 120.575 8.26026 121.836 9.41416 122.737C10.568 123.638 11.9904 124.127 13.4543 124.125H36.5457C38.0096 124.127 39.432 123.638 40.5859 122.737C41.7397 121.836 42.5587 120.575 42.9122 119.154L46.357 105.375H46.5625C47.3084 105.375 48.0238 105.079 48.5512 104.551C49.0787 104.024 49.375 103.308 49.375 102.562C49.375 101.817 49.0787 101.101 48.5512 100.574C48.0238 100.046 47.3084 99.75 46.5625 99.75H30.6971C30.9728 98.6284 31.3722 97.541 31.8881 96.5076L33.1648 93.9541L33.382 93.8817C33.6024 94.3084 33.9356 94.6665 34.3454 94.917C34.7551 95.1675 35.2257 95.3009 35.7059 95.3027C35.9022 95.3025 36.0979 95.2806 36.2894 95.2375C36.9109 95.0999 37.4603 94.7389 37.8332 94.2231C37.8736 94.2598 37.9134 94.297 37.9559 94.3319C38.3864 94.6848 38.901 94.9201 39.4495 95.0152C39.9981 95.1102 40.5618 95.0616 41.086 94.8741C41.6102 94.6867 42.0769 94.3667 42.4408 93.9454C42.8046 93.524 43.0532 93.0157 43.1623 92.4698L43.2065 92.2487C43.8386 92.2424 44.4531 92.0389 44.964 91.6666C45.4749 91.2943 45.8567 90.7717 46.0563 90.1719C46.2429 89.6122 46.3062 89.0187 46.2417 88.4323C46.1772 87.8458 45.9864 87.2803 45.6826 86.7746L45.0774 85.7651L46.4766 83.722C47.1085 82.8006 47.5705 81.7736 47.8409 80.6895ZM29.9621 89.1629L30.4625 89.6633L29.6875 91.6008C29.5001 92.0692 29.1767 92.4707 28.7589 92.7535C28.3412 93.0363 27.8482 93.1875 27.3438 93.1875C26.8393 93.1875 26.3463 93.0363 25.9286 92.7535C25.5108 92.4707 25.1874 92.0692 25 91.6008L24.5097 90.375H25.9375C26.1343 90.375 26.3261 90.3131 26.4857 90.198C26.6453 90.0829 26.7647 89.9206 26.8269 89.7339L27.4621 87.8283C28.1605 87.4292 28.9089 87.1245 29.6875 86.9222V88.5C29.6875 88.7486 29.7863 88.9871 29.9621 89.1629ZM19.3898 84.4037C19.7841 83.6867 20.3461 83.0757 21.0278 82.6231C21.7095 82.1705 22.4906 81.8897 23.3045 81.8046C22.5661 82.2543 21.884 82.7905 21.2726 83.4016L20.4263 84.2479C20.0407 84.6333 19.7481 85.1015 19.5706 85.6169C19.3931 86.1323 19.3353 86.6814 19.4017 87.2225C19.4682 87.7635 19.657 88.2823 19.9539 88.7395C20.2508 89.1967 20.648 89.5802 21.1153 89.8609L20.7883 91.169L19.9295 90.1384C19.2753 89.3466 18.8742 88.3766 18.7779 87.354C18.6817 86.3315 18.8949 85.3036 19.3898 84.4037ZM2.5 102.562C2.50028 102.314 2.59915 102.076 2.7749 101.9C2.95066 101.724 3.18895 101.625 3.4375 101.625H23.9706C24.0758 102.245 24.1431 102.871 24.1721 103.5H3.4375C3.18895 103.5 2.95066 103.401 2.7749 103.225C2.59915 103.049 2.50028 102.811 2.5 102.562ZM26.0503 103.5C26.0245 102.872 25.9647 102.246 25.871 101.625H28.467C28.3997 102.248 28.3655 102.874 28.3646 103.5H26.0503ZM41.0931 118.699C40.8407 119.714 40.2557 120.615 39.4315 121.259C38.6073 121.902 37.5914 122.251 36.5457 122.25H13.4543C12.4087 122.251 11.3927 121.902 10.5685 121.259C9.74428 120.615 9.1593 119.714 8.90686 118.699L7.45076 112.875H42.5492L41.0931 118.699ZM43.018 111H6.98201L5.57574 105.375H24.1466C24.0346 106.866 23.7107 108.334 23.1847 109.733L24.9403 110.392C25.5452 108.781 25.911 107.091 26.026 105.375H28.4634C28.6182 106.843 28.9585 108.286 29.4762 109.669L29.7472 110.392L31.5028 109.733L31.2319 109.011C30.7931 107.839 30.497 106.618 30.3499 105.375H44.4243L43.018 111ZM46.5625 101.625C46.8111 101.625 47.0496 101.724 47.2254 101.9C47.4012 102.075 47.5 102.314 47.5 102.562C47.5 102.811 47.4012 103.05 47.2254 103.225C47.0496 103.401 46.8111 103.5 46.5625 103.5H30.2391C30.2401 102.873 30.2785 102.247 30.3541 101.625H46.5625ZM25.4816 99.75C25.056 98.1546 24.4084 96.6268 23.5578 95.2116L22.2537 93.0381L22.7544 91.0352L23.2591 92.297C23.5857 93.1134 24.1493 93.8132 24.8774 94.3061C25.6054 94.799 26.4645 95.0625 27.3438 95.0625C28.223 95.0625 29.0821 94.799 29.8101 94.3061C30.5382 93.8132 31.1018 93.1134 31.4284 92.297L31.5625 91.9617V92.9662L30.2111 95.669C29.5643 96.9645 29.0812 98.3353 28.7728 99.75H25.4816ZM34.5352 89.5358L33.4618 91.3248C33.4529 91.3397 33.4461 91.3553 33.4375 91.3702V90.375C33.4375 90.1263 33.3387 89.8879 33.1629 89.712L31.5625 88.1117V86.6361C31.7135 86.6288 31.8652 86.6251 32.0175 86.625H32.0312C33.5964 86.6278 35.1445 86.2994 36.5737 85.6613C36.975 86.2948 37.1879 87.0295 37.1875 87.7795C37.1875 87.7856 37.1871 87.7916 37.1871 87.7977C37.0956 87.9019 37.0109 88.012 36.9336 88.1271C36.9046 88.1707 36.879 88.2161 36.8523 88.2609C36.6366 88.2561 36.4211 88.2776 36.2106 88.325C35.8634 88.4017 35.5357 88.5487 35.2475 88.7569C34.9594 88.9652 34.717 89.2302 34.5352 89.5358ZM35.878 93.4081C35.7346 93.4404 35.585 93.4298 35.4475 93.3778C35.3101 93.3258 35.191 93.2346 35.1049 93.1155C35.0188 92.9964 34.9696 92.8546 34.9633 92.7078C34.9571 92.561 34.994 92.4156 35.0696 92.2896L36.143 90.5005C36.195 90.4132 36.2643 90.3374 36.3467 90.2779C36.429 90.2183 36.5227 90.1763 36.622 90.1543C36.6767 90.142 36.7327 90.1357 36.7888 90.1357C36.9214 90.1362 37.0516 90.1718 37.166 90.2389C37.2804 90.306 37.375 90.4022 37.4402 90.5177C37.5054 90.6333 37.5388 90.764 37.5371 90.8966C37.5354 91.0293 37.4986 91.1591 37.4304 91.2729L36.357 93.0619C36.305 93.1493 36.2357 93.2251 36.1533 93.2846C36.071 93.3442 35.9773 93.3862 35.878 93.4081ZM41.4502 91.4688L41.3238 92.1018C41.2714 92.3679 41.1399 92.612 40.9466 92.8022C40.7533 92.9924 40.5071 93.1198 40.2402 93.1679C39.9733 93.2159 39.6981 93.1824 39.4505 93.0715C39.203 92.9607 38.9947 92.7778 38.8528 92.5467L39.0382 92.2376C39.3101 91.7851 39.439 91.261 39.408 90.734C39.377 90.207 39.1876 89.7016 38.8645 89.2841C38.9141 89.0984 38.9543 88.9106 38.9851 88.7209C39.1143 88.6519 39.2538 88.6041 39.3983 88.5794C39.5803 88.5474 39.7669 88.5533 39.9466 88.5966C40.1262 88.6399 40.295 88.7198 40.4425 88.8312C40.8418 89.1313 41.1482 89.5381 41.3265 90.0047C41.5048 90.4714 41.5477 90.9789 41.4502 91.4688ZM44.2773 89.5794C44.2094 89.7849 44.0851 89.9671 43.9187 90.1055C43.7523 90.2438 43.5504 90.3327 43.3359 90.3619C43.2565 89.765 43.0593 89.1897 42.7558 88.6695C42.4523 88.1493 42.0485 87.6945 41.568 87.3316C41.3738 87.1865 41.1639 87.0638 40.9422 86.966C40.9394 86.9208 40.9375 86.8755 40.9375 86.8301C40.9373 86.5682 41.0229 86.3136 41.1813 86.1051C41.3397 85.8966 41.5621 85.7458 41.8145 85.6759C42.0668 85.606 42.3351 85.6207 42.5782 85.7179C42.8213 85.8152 43.0258 85.9894 43.1604 86.214L44.0747 87.7391C44.2393 88.013 44.3427 88.3193 44.3777 88.637C44.4126 88.9547 44.3784 89.2762 44.2773 89.5794V89.5794Z" fill="white"/>
<path d="M92.5616 193.052C92.0408 193.201 91.5566 193.457 91.1396 193.803C90.7227 194.149 90.382 194.578 90.1392 195.062C89.9807 195.379 89.7426 195.649 89.4481 195.845L88.2108 196.67C88.0658 196.512 87.9023 196.371 87.7237 196.252L86.1943 195.232L88.2315 194.214L87.393 192.536L85.1546 193.656C84.8431 193.811 84.4962 193.881 84.1488 193.86C83.8014 193.838 83.4659 193.725 83.1761 193.532C82.6111 193.157 81.9569 192.937 81.2797 192.895C80.6025 192.852 79.9261 192.99 79.3189 193.292L78.0739 193.915C77.9457 193.979 77.7988 193.995 77.6596 193.961C77.5204 193.926 77.398 193.844 77.3142 193.727C77.2304 193.611 77.1907 193.469 77.2022 193.326C77.2138 193.183 77.2757 193.049 77.3771 192.947L77.9066 192.418C78.7891 191.529 79.8392 190.825 80.9959 190.346C82.1526 189.867 83.3929 189.622 84.645 189.625H84.7202C86.2614 189.628 87.7876 189.324 89.2101 188.73C91.6661 187.707 95.7585 186.002 97.5721 185.246L96.851 183.515C95.0373 184.271 90.9448 185.976 88.4888 187C87.2948 187.497 86.0137 187.752 84.7202 187.75H84.645C82.4118 187.744 80.2268 188.399 78.3648 189.632L74.2628 186.965L74.2628 186.965L68.1248 182.952V182.859C68.1246 180.94 67.3623 179.099 66.0056 177.742C65.8379 177.575 65.7201 177.364 65.6655 177.134C65.6108 176.903 65.6214 176.662 65.6961 176.437C65.9057 175.809 65.9124 175.132 65.7154 174.5C65.5184 173.869 65.1277 173.315 64.5985 172.918C64.5316 172.871 64.4771 172.808 64.4398 172.734C64.4025 172.661 64.3834 172.58 64.3842 172.498C64.3812 172.377 64.4198 172.259 64.4933 172.164C64.5669 172.068 64.671 172 64.7884 171.972C65.4447 171.808 66.0441 171.469 66.5225 170.991L67.0521 170.461C67.6879 169.825 68.0451 168.962 68.0451 168.063C68.0451 167.163 67.688 166.3 67.0522 165.664C66.8907 165.503 66.7951 165.287 66.7838 165.059C66.7726 164.831 66.8465 164.607 66.9912 164.43C67.136 164.254 67.3412 164.137 67.567 164.103C67.7928 164.07 68.0231 164.121 68.2131 164.248C68.7561 164.609 69.4205 164.741 70.0602 164.613C70.6999 164.485 71.2627 164.108 71.6249 163.566C71.836 163.251 72.1314 163.002 72.4773 162.847C72.8232 162.692 73.2057 162.638 73.581 162.691L76.6591 163.13C76.7741 163.147 76.8902 163.156 77.0064 163.156C77.5918 163.155 78.1563 162.938 78.5911 162.546C79.0259 162.154 79.3004 161.615 79.3617 161.033C79.423 160.451 79.2668 159.866 78.9232 159.392C78.5795 158.918 78.0727 158.588 77.5003 158.466L76.5295 158.258C76.4426 157.695 76.1867 157.171 75.7957 156.757C75.4047 156.343 74.897 156.057 74.3398 155.937C73.7827 155.818 73.2025 155.871 72.676 156.089C72.1495 156.307 71.7017 156.679 71.3918 157.157L70.6521 156.999C69.2861 156.707 67.88 156.655 66.4962 156.844C66.1208 156.411 65.622 156.103 65.0668 155.962C64.5116 155.821 63.9264 155.852 63.3896 156.053C62.8529 156.253 62.3902 156.613 62.0636 157.084C61.737 157.554 61.5621 158.114 61.5623 158.687C61.2347 158.9 60.9187 159.126 60.6215 159.365C60.5163 159.449 60.3978 159.514 60.2709 159.559C60.1463 159.603 60.0151 159.625 59.883 159.625C59.3801 159.624 58.8849 159.748 58.4415 159.986C57.9981 160.223 57.6203 160.566 57.3416 160.985L56.8377 161.741C56.6946 161.955 56.5009 162.131 56.2738 162.252C56.0466 162.374 55.793 162.437 55.5353 162.438C54.9217 162.438 54.3193 162.602 53.7905 162.913C53.2617 163.224 52.8258 163.671 52.5279 164.208L48.5626 171.344L47.7844 172.641C46.3853 174.972 45.6298 177.633 45.595 180.352C45.5602 183.071 46.2473 185.751 47.5863 188.117C48.9253 190.484 50.8681 192.453 53.2166 193.823C55.5651 195.194 58.2351 195.917 60.9542 195.918C63.0232 195.918 65.071 195.501 66.9758 194.693C67.9489 195.028 68.9708 195.198 69.9998 195.197C71.2768 195.196 72.5402 194.934 73.7122 194.427L75.2535 195.283C75.0486 195.937 75.0901 196.643 75.3701 197.268C75.6502 197.893 76.1494 198.395 76.7735 198.677L84.1775 202.042C84.5396 202.207 84.9329 202.292 85.3307 202.291C85.9108 202.291 86.4769 202.113 86.9536 201.783L88.7616 202.787C89.211 203.037 89.7225 203.152 90.2354 203.119C90.7484 203.087 91.2411 202.908 91.6553 202.603C92.0694 202.299 92.3875 201.882 92.5717 201.402C92.756 200.922 92.7986 200.4 92.6947 199.896C92.6239 199.548 92.4843 199.218 92.284 198.924C92.0837 198.631 91.8267 198.381 91.5283 198.188L90.407 197.459L90.4882 197.405C91.0541 197.028 91.5117 196.509 91.8162 195.901C91.9426 195.649 92.1198 195.426 92.3368 195.246C92.5538 195.066 92.8057 194.933 93.0767 194.855L97.4691 193.6L96.954 191.797L92.5616 193.052ZM77.4998 160.784C77.5001 160.915 77.4483 161.041 77.3558 161.134C77.2633 161.228 77.1377 161.28 77.0064 161.281C76.9817 161.281 76.957 161.279 76.9326 161.275L75.2881 161.04C75.6539 160.8 75.9592 160.478 76.18 160.101L77.1074 160.299C77.2182 160.323 77.3174 160.384 77.3888 160.473C77.4601 160.561 77.4992 160.671 77.4998 160.784ZM73.7498 157.75C73.9352 157.75 74.1164 157.805 74.2706 157.908C74.4248 158.011 74.545 158.157 74.6159 158.329C74.6869 158.5 74.7054 158.689 74.6693 158.87C74.6331 159.052 74.5438 159.219 74.4127 159.35C74.2816 159.482 74.1145 159.571 73.9327 159.607C73.7508 159.643 73.5623 159.625 73.391 159.554C73.2197 159.483 73.0733 159.363 72.9703 159.208C72.8673 159.054 72.8123 158.873 72.8123 158.688C72.8126 158.439 72.9114 158.201 73.0872 158.025C73.2629 157.849 73.5012 157.75 73.7498 157.75ZM64.3748 157.75C64.5602 157.75 64.7415 157.805 64.8956 157.908C65.0498 158.011 65.17 158.157 65.2409 158.329C65.3119 158.5 65.3304 158.689 65.2943 158.87C65.2581 159.052 65.1688 159.219 65.0377 159.35C64.9066 159.482 64.7395 159.571 64.5577 159.607C64.3758 159.643 64.1873 159.625 64.016 159.554C63.8447 159.483 63.6983 159.363 63.5953 159.208C63.4923 159.054 63.4373 158.873 63.4373 158.688C63.4376 158.439 63.5364 158.201 63.7122 158.025C63.8879 157.849 64.1262 157.75 64.3748 157.75ZM54.1673 165.118C54.3028 164.874 54.5011 164.67 54.7416 164.529C54.9822 164.387 55.2562 164.313 55.5353 164.313C56.1016 164.312 56.6592 164.172 57.1585 163.905C57.6578 163.638 58.0835 163.252 58.3978 162.781L58.9015 162.025C59.0091 161.863 59.155 161.731 59.3263 161.639C59.4975 161.548 59.6888 161.5 59.883 161.5C60.2271 161.5 60.5688 161.442 60.8934 161.328C61.2185 161.213 61.522 161.045 61.7913 160.83C61.9322 160.717 62.0788 160.608 62.228 160.502C62.5996 160.942 63.0977 161.258 63.6547 161.406C64.2117 161.554 64.8008 161.527 65.342 161.329C65.8833 161.131 66.3506 160.771 66.6807 160.299C67.0108 159.826 67.1876 159.264 67.1873 158.688C67.1873 158.676 67.1865 158.664 67.1864 158.652C68.2137 158.556 69.2497 158.617 70.2589 158.832L70.9526 158.981C70.9947 159.379 71.1211 159.763 71.3234 160.108C71.5256 160.453 71.7992 160.751 72.1256 160.982C71.2833 161.248 70.5565 161.792 70.0647 162.526C70.0111 162.606 69.9385 162.672 69.8533 162.717C69.7682 162.762 69.6732 162.786 69.5767 162.786C69.4614 162.786 69.3486 162.752 69.253 162.688C68.6758 162.303 67.9763 162.147 67.2904 162.249C66.6044 162.352 65.9811 162.705 65.5414 163.242C65.1017 163.778 64.8772 164.459 64.9114 165.152C64.9455 165.844 65.236 166.499 65.7263 166.99C66.0105 167.275 66.1701 167.66 66.1701 168.063C66.1701 168.465 66.0104 168.851 65.7263 169.135L65.1967 169.665C64.9583 169.903 64.6596 170.072 64.3326 170.153C63.8106 170.285 63.3476 170.587 63.0172 171.012C62.6867 171.437 62.5079 171.96 62.5092 172.498C62.5083 172.871 62.5951 173.239 62.7623 173.572C62.9296 173.906 63.1727 174.195 63.4722 174.417C63.687 174.578 63.8456 174.803 63.9255 175.059C64.0054 175.315 64.0025 175.59 63.9174 175.844C63.7325 176.399 63.706 176.995 63.8406 177.565C63.9753 178.134 64.2659 178.655 64.6798 179.068C65.1783 179.566 65.5731 180.157 65.8416 180.807C65.9518 181.075 66.0404 181.351 66.1064 181.632L58.1104 176.404C58.3605 176.099 58.5435 175.745 58.6476 175.364C58.7517 174.984 58.7746 174.586 58.7146 174.196C58.6547 173.806 58.5134 173.433 58.2998 173.101C58.0862 172.77 57.8052 172.487 57.475 172.271C57.1448 172.055 56.7729 171.911 56.3834 171.848C55.9939 171.785 55.5956 171.806 55.2144 171.907C54.8331 172.008 54.4775 172.189 54.1707 172.437C53.8639 172.685 53.6127 172.995 53.4336 173.346L50.618 171.505L54.1673 165.118ZM56.5141 175.36L55.0307 174.391C55.0675 174.246 55.1382 174.113 55.237 174.001C55.3358 173.889 55.4597 173.803 55.5986 173.749C55.7375 173.695 55.8872 173.675 56.0354 173.69C56.1837 173.706 56.326 173.756 56.4507 173.838C56.5755 173.92 56.6789 174.03 56.7525 174.159C56.8261 174.289 56.8678 174.434 56.874 174.583C56.8802 174.732 56.8507 174.88 56.7881 175.015C56.7256 175.15 56.6316 175.269 56.5141 175.36V175.36ZM54.3703 192.323C52.7945 191.44 51.4118 190.251 50.3042 188.824C49.1966 187.397 48.3867 185.763 47.9225 184.017C47.4582 182.272 47.3491 180.451 47.6016 178.662C47.8541 176.874 48.463 175.154 49.3922 173.606L49.6773 173.13L66.2498 183.966V184H66.3014L72.3556 187.959L71.3311 189.188C69.314 191.607 66.5142 193.245 63.4167 193.818C60.3192 194.39 57.1191 193.861 54.3703 192.323ZM73.3302 192.537C72.2957 193.052 71.1557 193.321 69.9998 193.322C69.8448 193.322 69.6906 193.316 69.5369 193.306C70.7484 192.492 71.8376 191.51 72.7716 190.388L73.9369 188.99L76.8175 190.862C76.7375 190.938 76.6584 191.014 76.5802 191.092L76.0507 191.622C75.633 192.04 75.3793 192.594 75.3357 193.184L74.2051 192.555C74.0718 192.481 73.9224 192.441 73.77 192.438C73.6175 192.434 73.4665 192.468 73.3302 192.537ZM84.9534 200.335L77.5494 196.97C77.3383 196.875 77.17 196.704 77.0774 196.492C76.9847 196.279 76.9743 196.04 77.048 195.82L77.0736 195.743C77.683 195.933 78.3421 195.878 78.9124 195.592L80.1575 194.969C80.469 194.814 80.8159 194.744 81.1633 194.765C81.5106 194.787 81.8461 194.9 82.1359 195.093C82.5299 195.354 82.9689 195.541 83.4307 195.643L86.6836 197.812C86.7764 197.874 86.8557 197.954 86.9165 198.047C86.9772 198.141 87.0183 198.246 87.0372 198.356C87.056 198.466 87.0522 198.578 87.0261 198.687C86.9999 198.795 86.9519 198.897 86.885 198.987L86.0913 200.045C85.9625 200.215 85.7799 200.336 85.5732 200.389C85.3665 200.442 85.148 200.423 84.9534 200.335ZM90.8583 200.275C90.8899 200.427 90.8772 200.585 90.8216 200.73C90.7661 200.875 90.6701 201.001 90.5451 201.093C90.42 201.185 90.2712 201.239 90.1163 201.248C89.9615 201.258 89.8071 201.223 89.6715 201.148L88.2148 200.338L88.3849 200.112C88.6869 199.708 88.8699 199.227 88.9133 198.725L90.5068 199.761C90.5968 199.819 90.6742 199.894 90.7346 199.983C90.795 200.071 90.837 200.171 90.8583 200.275Z" fill="white"/>
<path d="M60.625 170.875C61.1813 170.875 61.725 170.71 62.1875 170.401C62.6501 170.092 63.0105 169.653 63.2234 169.139C63.4363 168.625 63.492 168.06 63.3835 167.514C63.2749 166.968 63.0071 166.467 62.6137 166.074C62.2204 165.681 61.7193 165.413 61.1737 165.304C60.6281 165.196 60.0626 165.251 59.5487 165.464C59.0348 165.677 58.5955 166.038 58.2865 166.5C57.9774 166.963 57.8125 167.506 57.8125 168.063C57.8133 168.808 58.1099 169.523 58.6372 170.05C59.1645 170.578 59.8793 170.874 60.625 170.875ZM60.625 167.125C60.8104 167.125 60.9917 167.18 61.1458 167.283C61.3 167.386 61.4202 167.533 61.4911 167.704C61.5621 167.875 61.5807 168.064 61.5445 168.246C61.5083 168.427 61.419 168.594 61.2879 168.726C61.1568 168.857 60.9898 168.946 60.8079 168.982C60.626 169.018 60.4375 169 60.2662 168.929C60.0949 168.858 59.9485 168.738 59.8455 168.583C59.7425 168.429 59.6875 168.248 59.6875 168.063C59.6878 167.814 59.7866 167.576 59.9624 167.4C60.1382 167.224 60.3764 167.125 60.625 167.125Z" fill="white"/>
<path d="M77.5 208.375C77.4983 206.884 76.9052 205.454 75.8507 204.4C74.7962 203.345 73.3666 202.752 71.8753 202.75H71.8749C71.129 202.75 70.4135 203.046 69.886 203.574C69.3586 204.101 69.0622 204.817 69.0622 205.563C69.0622 206.309 69.3586 207.024 69.8861 207.552C70.4136 208.079 71.129 208.375 71.875 208.375V210.25H69.0625V207.438C69.0625 207.189 68.9637 206.951 68.7879 206.775C68.6121 206.599 68.3736 206.5 68.125 206.5H68.1237C68.124 206.483 68.125 206.465 68.125 206.447V202.75C68.125 202.565 68.07 202.383 67.967 202.229C67.8639 202.075 67.7175 201.955 67.5461 201.884C67.3748 201.813 67.1863 201.794 67.0044 201.831C66.8225 201.867 66.6555 201.956 66.5244 202.087L66.4304 202.181C65.7649 202.847 64.9584 203.448 63.8922 204.072C63.5526 204.272 63.2588 204.541 63.0301 204.861C62.57 203.675 62.0455 202.514 61.459 201.384C61.3802 201.231 61.2607 201.102 61.1136 201.013C60.9665 200.923 60.7974 200.875 60.625 200.875C60.4526 200.875 60.2835 200.923 60.1364 201.013C59.9893 201.102 59.8698 201.231 59.791 201.384C59.2045 202.514 58.68 203.675 58.2199 204.861C57.9911 204.541 57.6974 204.272 57.3578 204.072C56.2916 203.448 55.4851 202.847 54.8199 202.182L54.7256 202.087C54.5945 201.956 54.4275 201.867 54.2456 201.831C54.0637 201.794 53.8752 201.813 53.7039 201.884C53.5325 201.955 53.3861 202.075 53.283 202.229C53.18 202.383 53.125 202.565 53.125 202.75V206.447C53.125 206.465 53.126 206.483 53.1263 206.5H53.125C52.8764 206.5 52.6379 206.599 52.4621 206.775C52.2863 206.951 52.1875 207.189 52.1875 207.438V210.25H49.375L49.3751 208.375C50.121 208.375 50.8363 208.079 51.3638 207.551C51.8912 207.024 52.1875 206.309 52.1875 205.563C52.1875 204.817 51.8912 204.101 51.3637 203.574C50.8363 203.046 50.1209 202.75 49.375 202.75C47.8837 202.752 46.4539 203.345 45.3994 204.399C44.3449 205.454 43.7517 206.884 43.75 208.375V210.25H41.875V212.125H79.375V210.25H77.5V208.375ZM71.8749 206.5C71.6262 206.5 71.3878 206.401 71.212 206.225C71.0361 206.049 70.9374 205.811 70.9374 205.562C70.9374 205.314 71.0362 205.075 71.2121 204.899C71.3879 204.724 71.6264 204.625 71.8751 204.625H71.8752C72.8694 204.626 73.8225 205.022 74.5255 205.725C75.2284 206.428 75.6239 207.381 75.625 208.375V210.25H73.75V208.375C73.7495 207.878 73.5518 207.402 73.2002 207.05C72.8487 206.698 72.3721 206.501 71.8749 206.5ZM64.8397 205.69C65.3579 205.386 65.8245 205.086 66.25 204.779V206.447C66.2544 206.695 66.1647 206.934 65.9993 207.118C65.8338 207.301 65.6048 207.415 65.3586 207.437C65.1489 207.447 64.9418 207.386 64.7705 207.265C64.5992 207.144 64.4736 206.968 64.4138 206.767C64.354 206.566 64.3635 206.35 64.4407 206.155C64.5179 205.96 64.6584 205.796 64.8397 205.69ZM60.6251 203.968C61.1479 205.118 61.5562 206.166 61.5625 206.501C61.5625 206.749 61.4638 206.988 61.288 207.164C61.1122 207.339 60.8738 207.438 60.6251 207.438C60.3765 207.438 60.138 207.34 59.9622 207.164C59.7863 206.988 59.6875 206.75 59.6875 206.501C59.6936 206.166 60.1021 205.119 60.6251 203.968L60.6251 203.968ZM55 204.779C55.4255 205.086 55.892 205.386 56.4103 205.69C56.5917 205.796 56.7323 205.96 56.8096 206.155C56.8869 206.35 56.8964 206.566 56.8366 206.767C56.7768 206.968 56.6511 207.144 56.4797 207.265C56.3083 207.387 56.1012 207.447 55.8914 207.437C55.6451 207.415 55.4162 207.301 55.2507 207.118C55.0852 206.934 54.9956 206.695 55 206.447V204.779ZM54.0625 208.586C54.5405 209.024 55.1569 209.28 55.8042 209.31C55.8496 209.312 55.8948 209.313 55.9399 209.313C56.6628 209.315 57.3582 209.036 57.8794 208.535C57.933 208.484 57.9837 208.43 58.0327 208.375H58.5309C58.7943 208.67 59.117 208.906 59.4778 209.068C59.8387 209.229 60.2296 209.313 60.625 209.313C61.0204 209.313 61.4113 209.229 61.7722 209.068C62.133 208.906 62.4557 208.67 62.7191 208.375H63.2173C63.2663 208.43 63.317 208.484 63.3706 208.535C63.8918 209.036 64.5872 209.315 65.3101 209.313C65.3551 209.313 65.4003 209.312 65.4457 209.31C66.0931 209.28 66.7095 209.024 67.1875 208.586V210.25H54.0625V208.586ZM45.625 208.375C45.6261 207.381 46.0216 206.428 46.7246 205.725C47.4276 205.022 48.3808 204.626 49.375 204.625C49.4981 204.625 49.62 204.649 49.7338 204.696C49.8475 204.744 49.9509 204.813 50.0379 204.9C50.125 204.987 50.194 205.09 50.2412 205.204C50.2883 205.318 50.3125 205.439 50.3125 205.563C50.3125 205.686 50.2883 205.808 50.2412 205.921C50.1941 206.035 50.125 206.138 50.038 206.226C49.9509 206.313 49.8476 206.382 49.7338 206.429C49.6201 206.476 49.4982 206.5 49.3751 206.5C48.8779 206.501 48.4013 206.698 48.0498 207.05C47.6983 207.401 47.5006 207.878 47.5 208.375V210.25H45.625V208.375Z" fill="white"/>
</g>
</svg>
