<svg width="60" height="360" viewBox="0 0 60 360" fill="none" xmlns="http://www.w3.org/2000/svg">
<mask id="mask0" mask-type="alpha" maskUnits="userSpaceOnUse" x="-180" y="0" width="240" height="360">
<path fill-rule="evenodd" clip-rule="evenodd" d="M59.7124 184.306C56.8486 232.966 24.4511 265.297 -5.18204 296.186C-35.5078 327.797 -68.6164 371.59 -106.121 357.169C-142.725 343.095 -146.551 282.042 -160.276 236.553C-171.819 198.299 -186.171 161.034 -177.174 121.685C-165.864 72.2231 -145.957 19.8873 -107.299 4.86225C-66.4658 -11.0082 -23.287 14.1168 9.35447 49.188C40.8217 82.9976 62.7913 131.991 59.7124 184.306Z" fill="#C4C4C4"/>
</mask>
<g mask="url(#mask0)">
<path fill-rule="evenodd" clip-rule="evenodd" d="M59.7124 184.306C56.8486 232.966 24.4511 265.297 -5.18204 296.186C-35.5078 327.797 -68.6164 371.59 -106.121 357.169C-142.725 343.095 -146.551 282.042 -160.276 236.553C-171.819 198.299 -186.171 161.034 -177.174 121.685C-165.864 72.2231 -145.957 19.8873 -107.299 4.86225C-66.4658 -11.0082 -23.287 14.1168 9.35447 49.188C40.8217 82.9976 62.7913 131.991 59.7124 184.306Z" fill="#FB8172"/>
<g clip-path="url(#clip0)">
<path d="M9.49817 154.712L-13.2463 141.581C-13.5459 140.666 -13.9232 139.779 -14.3741 138.929C-14.4527 138.781 -14.5693 138.657 -14.712 138.57C-14.8547 138.482 -15.0182 138.435 -15.1855 138.432C-15.3528 138.429 -15.5179 138.471 -15.6636 138.553C-15.8092 138.635 -15.9302 138.755 -16.0138 138.9L-16.4826 139.712L-21.354 136.9C-22.8618 136.031 -24.6523 135.797 -26.3329 136.247C-28.0135 136.697 -29.4469 137.796 -30.3185 139.302L-32.6623 143.361C-34.3854 142.369 -36.4318 142.101 -38.3525 142.615C-40.2732 143.13 -41.9113 144.385 -42.9075 146.106L-43.845 147.73C-44.8372 149.453 -45.1055 151.5 -44.5908 153.42C-44.0762 155.341 -42.8207 156.979 -41.0998 157.975L-43.4435 162.035C-44.3118 163.543 -44.5465 165.333 -44.0962 167.014C-43.6458 168.694 -42.5473 170.128 -41.0415 170.999L-35.7332 174.064C-35.7335 174.722 -35.5606 175.369 -35.2318 175.939C-34.9029 176.508 -34.4298 176.982 -33.8599 177.311C-33.2901 177.64 -32.6437 177.813 -31.9857 177.813C-31.3277 177.813 -30.6813 177.639 -30.1117 177.31L-10.1893 188.812C-8.68157 189.68 -6.89097 189.915 -5.21038 189.465C-3.52979 189.014 -2.09644 187.916 -1.22479 186.41L11.9002 163.677C12.7684 162.169 13.0031 160.378 12.5528 158.698C12.1025 157.017 11.004 155.584 9.49817 154.712ZM-14.2746 147.122C-14.3208 149.669 -15.0124 152.162 -16.2846 154.369L-19.9116 160.651C-20.2026 161.156 -20.5722 161.611 -21.0065 161.999L-21.187 161.894C-20.9282 161.347 -20.8134 160.742 -20.8535 160.138C-20.8613 159.735 -20.866 159.492 -20.6083 159.046C-20.3506 158.599 -20.1377 158.482 -19.785 158.287C-19.1406 157.959 -18.6051 157.451 -18.2435 156.825C-17.8819 156.198 -17.7096 155.481 -17.7476 154.758C-17.7554 154.356 -17.7601 154.112 -17.5024 153.666C-17.4065 153.5 -17.111 153.285 -16.8503 153.095C-16.3734 152.748 -15.7798 152.316 -15.5368 151.618C-15.2889 150.907 -15.4895 150.191 -15.6507 149.616C-15.7358 149.312 -15.8322 148.968 -15.8065 148.79C-15.78 148.607 -15.5887 148.302 -15.4199 148.032C-15.104 147.528 -14.7108 146.9 -14.7477 146.152C-14.7845 145.408 -15.2361 144.823 -15.599 144.353C-15.7942 144.1 -16.0155 143.814 -16.0603 143.632C-16.1028 143.46 -16.0403 143.109 -15.9852 142.8C-15.9687 142.708 -15.9524 142.613 -15.9369 142.517L-15.2969 141.408C-14.5889 143.229 -14.2417 145.169 -14.2746 147.122ZM-22.5763 150.267L-26.6358 147.923L-25.6983 146.299L-21.6388 148.643L-22.5763 150.267ZM-27.5733 149.547L-23.5138 151.891L-24.4513 153.514L-28.5108 151.171L-27.5733 149.547ZM-29.4483 152.794L-25.3888 155.138L-26.3263 156.762L-30.3858 154.418L-29.4483 152.794ZM-20.7013 147.019L-25.5727 144.207C-25.6794 144.145 -25.7971 144.105 -25.9191 144.089C-26.0412 144.073 -26.1652 144.081 -26.2841 144.113C-26.4031 144.145 -26.5145 144.2 -26.6122 144.275C-26.7099 144.35 -26.7918 144.443 -26.8534 144.55L-32.4784 154.293C-32.5399 154.399 -32.5799 154.517 -32.596 154.639C-32.612 154.761 -32.6039 154.885 -32.5721 155.004C-32.5402 155.123 -32.4852 155.234 -32.4103 155.332C-32.3353 155.43 -32.2419 155.512 -32.1352 155.573L-27.2638 158.386L-33.8263 169.752L-37.8858 167.409C-38.5312 167.035 -39.002 166.421 -39.195 165.701C-39.388 164.98 -39.2874 164.213 -38.9153 163.567L-26.7278 142.457C-26.3542 141.812 -25.7399 141.341 -25.0197 141.148C-24.2994 140.955 -23.532 141.056 -22.8858 141.428L-18.8263 143.772L-20.7013 147.019ZM-25.1713 158.511L-17.4068 145.063C-17.3007 145.216 -17.1895 145.361 -17.0829 145.499C-16.891 145.748 -16.6282 146.088 -16.6204 146.245C-16.6126 146.404 -16.8417 146.77 -17.0089 147.037C-17.2762 147.463 -17.579 147.947 -17.6621 148.522C-17.7447 149.092 -17.5913 149.64 -17.4561 150.122C-17.3705 150.428 -17.2532 150.846 -17.3074 151.001C-17.3575 151.145 -17.7022 151.396 -17.9539 151.579C-18.3653 151.879 -18.8315 152.218 -19.1262 152.729C-19.4983 153.351 -19.6714 154.072 -19.6221 154.795C-19.6143 155.198 -19.6096 155.441 -19.8673 155.887C-20.125 156.333 -20.3379 156.451 -20.6906 156.645C-21.335 156.974 -21.8705 157.482 -22.2321 158.108C-22.5937 158.734 -22.766 159.452 -22.728 160.174C-22.7037 160.437 -22.7352 160.702 -22.8203 160.951L-25.64 159.323L-25.1713 158.511ZM-40.104 169.376C-41.1796 168.753 -41.9642 167.729 -42.2859 166.529C-42.6076 165.328 -42.4399 164.049 -41.8197 162.972L-39.0072 158.101C-38.9457 157.994 -38.9057 157.877 -38.8896 157.755C-38.8736 157.633 -38.8817 157.509 -38.9136 157.39C-38.9454 157.271 -39.0004 157.159 -39.0754 157.062C-39.1503 156.964 -39.2438 156.882 -39.3504 156.82L-40.1623 156.352C-41.453 155.604 -42.3946 154.376 -42.7806 152.935C-43.1666 151.495 -42.9654 149.96 -42.2212 148.668L-41.2837 147.044C-40.5365 145.753 -39.308 144.812 -37.8675 144.426C-36.4269 144.04 -34.8921 144.241 -33.5998 144.985L-32.7879 145.454C-32.6813 145.515 -32.5636 145.555 -32.4415 145.571C-32.3194 145.587 -32.1954 145.579 -32.0765 145.547C-31.9576 145.516 -31.8461 145.461 -31.7484 145.386C-31.6507 145.311 -31.5688 145.217 -31.5072 145.111L-28.6947 140.239C-28.0721 139.164 -27.0483 138.379 -25.8479 138.057C-24.6475 137.736 -23.3685 137.903 -22.2915 138.523L-17.4201 141.336L-17.8888 142.148L-21.9483 139.804C-23.0253 139.184 -24.3043 139.016 -25.5047 139.338C-26.7052 139.66 -27.729 140.444 -28.3516 141.52L-40.5391 162.629C-41.1593 163.706 -41.3269 164.985 -41.0053 166.186C-40.6836 167.386 -39.8989 168.41 -38.8233 169.032L-34.7638 171.376L-35.2326 172.188L-40.104 169.376ZM-30.3608 175.001C-30.6097 175.431 -31.0192 175.745 -31.4994 175.873C-31.9796 176.002 -32.4911 175.934 -32.9216 175.686C-33.3521 175.437 -33.6663 175.028 -33.7951 174.548C-33.924 174.068 -33.857 173.556 -33.6088 173.126L-26.5775 160.947L-22.8717 163.087C-22.9895 163.127 -23.1085 163.165 -23.2298 163.197L-23.4492 163.256C-24.3113 163.484 -25.1196 163.882 -25.8272 164.424C-26.5348 164.967 -27.1277 165.645 -27.5716 166.419L-27.5985 166.465C-27.8638 166.924 -28.0354 167.43 -28.1035 167.955C-28.1717 168.48 -28.1349 169.014 -27.9954 169.524L-27.9753 169.599C-27.9008 169.874 -27.8815 170.161 -27.9187 170.444C-27.9559 170.726 -28.0487 170.998 -28.1918 171.244L-30.3608 175.001ZM-26.1643 169.114L-26.1844 169.039C-26.2594 168.766 -26.2795 168.481 -26.2435 168.2C-26.2076 167.919 -26.1162 167.648 -25.9748 167.403L-25.9479 167.356C-25.6266 166.796 -25.1974 166.306 -24.6852 165.913C-24.1731 165.52 -23.588 165.232 -22.964 165.067L-22.7446 165.008C-21.8125 164.761 -20.9387 164.332 -20.1736 163.745C-19.4086 163.158 -18.7676 162.425 -18.2878 161.589L-14.9263 155.767C-14.9879 155.873 -15.0279 155.991 -15.0439 156.113C-15.06 156.235 -15.0518 156.359 -15.0197 156.478L-13.9903 160.32C-13.9584 160.439 -13.9035 160.55 -13.8285 160.648C-13.7536 160.745 -13.6601 160.827 -13.5535 160.889C-13.4469 160.95 -13.3292 160.99 -13.2071 161.006C-13.0851 161.022 -12.961 161.014 -12.8421 160.982L-9.00018 159.953C-8.88125 159.921 -8.76977 159.866 -8.67209 159.791C-8.57442 159.716 -8.49246 159.623 -8.4309 159.516C-8.36934 159.41 -8.32939 159.292 -8.31333 159.17C-8.29727 159.048 -8.3054 158.924 -8.33728 158.805L-9.36672 154.963C-9.43108 154.723 -9.5882 154.518 -9.80352 154.394C-10.0188 154.269 -10.2747 154.236 -10.5149 154.3L-14.3568 155.329C-14.4758 155.361 -14.5873 155.416 -14.6849 155.491C-14.7826 155.566 -14.8645 155.659 -14.926 155.766L-14.6608 155.307C-13.2847 152.918 -12.5123 150.23 -12.4106 147.476L6.34252 158.303C6.98786 158.676 7.45867 159.291 7.65167 160.011C7.84466 160.731 7.74407 161.499 7.37197 162.145L-4.81553 183.254C-5.1891 183.9 -5.80339 184.37 -6.52364 184.563C-7.2439 184.756 -8.0113 184.656 -8.65748 184.284L-27.3307 173.503L-26.5681 172.182C-26.3012 171.723 -26.128 171.215 -26.0587 170.688C-25.9894 170.162 -26.0253 169.627 -26.1643 169.114L-26.1643 169.114ZM-12.966 156.898L-10.9352 156.354L-10.391 158.385L-12.4219 158.929L-12.966 156.898ZM-2.84859 185.472C-3.47119 186.548 -4.49501 187.333 -5.69543 187.654C-6.89586 187.976 -8.17486 187.808 -9.25183 187.188L-28.7371 175.938L-28.2683 175.126L-9.59498 185.907C-8.51801 186.528 -7.23901 186.695 -6.03858 186.374C-4.83816 186.052 -3.81434 185.267 -3.19174 184.192L8.99576 163.082C9.61593 162.005 9.78358 160.726 9.46193 159.526C9.14028 158.326 8.35559 157.302 7.28002 156.679L-12.4746 145.274C-12.5118 144.882 -12.5623 144.492 -12.6264 144.104L8.56067 156.336C9.63624 156.959 10.4209 157.982 10.7426 159.183C11.0642 160.383 10.8966 161.662 10.2764 162.739L-2.84859 185.472Z" fill="white"/>
<path d="M-0.28023 162.823C-0.248371 162.942 -0.193401 163.053 -0.118456 163.151C-0.0435117 163.248 0.049938 163.33 0.156557 163.392C0.263177 163.453 0.380877 163.493 0.502937 163.509C0.624998 163.526 0.749028 163.517 0.867945 163.486L4.70989 162.456C4.82882 162.424 4.9403 162.369 5.03797 162.294C5.13565 162.219 5.21761 162.126 5.27917 162.019C5.34072 161.913 5.38067 161.795 5.39674 161.673C5.4128 161.551 5.40467 161.427 5.37279 161.308L4.34334 157.466C4.27899 157.226 4.12187 157.021 3.90654 156.897C3.69122 156.772 3.43533 156.739 3.19517 156.803L-0.646778 157.833C-0.7657 157.864 -0.877182 157.919 -0.974859 157.994C-1.07254 158.069 -1.15449 158.163 -1.21605 158.269C-1.27761 158.376 -1.31756 158.494 -1.33362 158.616C-1.34969 158.738 -1.34155 158.862 -1.30968 158.981L-0.28023 162.823ZM2.77491 158.857L3.31908 160.888L1.28821 161.432L0.744035 159.401L2.77491 158.857Z" fill="white"/>
<path d="M-0.211569 164.579L-4.05352 165.608C-4.17244 165.64 -4.28392 165.695 -4.3816 165.77C-4.47928 165.845 -4.56124 165.939 -4.62279 166.045C-4.68435 166.152 -4.7243 166.27 -4.74037 166.392C-4.75643 166.514 -4.74829 166.638 -4.71642 166.757L-3.68697 170.599C-3.65512 170.717 -3.60014 170.829 -3.5252 170.927C-3.45026 171.024 -3.35681 171.106 -3.25019 171.168C-3.14357 171.229 -3.02587 171.269 -2.90381 171.285C-2.78175 171.301 -2.65772 171.293 -2.5388 171.261L1.30315 170.232C1.42207 170.2 1.53355 170.145 1.63123 170.07C1.72891 169.995 1.81087 169.902 1.87242 169.795C1.93398 169.689 1.97393 169.571 1.99 169.449C2.00606 169.327 1.99793 169.203 1.96605 169.084L0.936606 165.242C0.87225 165.002 0.715129 164.797 0.499806 164.673C0.284482 164.548 0.0285942 164.515 -0.211569 164.579ZM-2.11854 169.208L-2.66271 167.177L-0.631832 166.633L-0.0876621 168.664L-2.11854 169.208Z" fill="white"/>
</g>
<g clip-path="url(#clip1)">
<path d="M85.6656 177.306L67.5472 172.452C67.0191 171.645 66.4233 170.886 65.7662 170.181C65.652 170.058 65.5072 169.969 65.3468 169.921C65.1863 169.874 65.0161 169.87 64.8537 169.91C64.6913 169.951 64.5428 170.034 64.4234 170.151C64.304 170.269 64.2183 170.416 64.175 170.577L63.9323 171.483L51.2545 168.086C49.5734 167.638 47.7831 167.874 46.2763 168.744C44.7695 169.614 43.6694 171.046 43.2171 172.726L42.0039 177.254C40.0827 176.742 38.0366 177.012 36.3146 178.006C34.5925 179.001 33.3352 180.637 32.8183 182.557L32.3331 184.369C31.8206 186.29 32.0911 188.336 33.0854 190.058C34.0796 191.78 35.7163 193.037 37.6364 193.554L36.4231 198.082C35.9747 199.763 36.2115 201.553 37.0814 203.06C37.9513 204.567 39.3835 205.667 41.0635 206.119L54.2286 209.647C54.3995 210.282 54.7344 210.862 55.1999 211.327C55.6653 211.792 56.2449 212.126 56.8804 212.296C57.5159 212.467 58.185 212.467 58.8206 212.297C59.4562 212.127 60.0359 211.793 60.5016 211.328L75.4746 215.34C77.1557 215.788 78.9461 215.551 80.4529 214.682C81.9596 213.812 83.0598 212.379 83.512 210.699L90.306 185.344C90.7544 183.663 90.5177 181.872 89.6478 180.366C88.7778 178.859 87.3457 177.759 85.6656 177.306ZM68.4056 182.536C68.2466 182.53 68.0882 182.53 67.9309 182.538C67.9132 181.873 67.576 181.301 67.2992 180.834C67.1384 180.563 66.9561 180.255 66.935 180.077C66.9132 179.893 67.019 179.548 67.1124 179.244C67.2868 178.675 67.5039 177.967 67.275 177.254C67.0461 176.545 66.4589 176.097 65.9871 175.737C65.7331 175.544 65.4454 175.324 65.3551 175.16C65.269 175.004 65.2385 174.649 65.2115 174.336C65.2036 174.243 65.1948 174.148 65.1851 174.052L65.5171 172.813C67.5811 175.619 68.6025 179.057 68.4056 182.536ZM73.6334 189.612C73.8253 188.895 74.2254 188.252 74.783 187.763C75.3407 187.274 76.0308 186.961 76.7661 186.864C77.5014 186.767 78.249 186.891 78.9142 187.219C79.5794 187.547 80.1323 188.065 80.5032 188.707C80.874 189.349 81.0461 190.087 80.9976 190.827C80.949 191.567 80.6822 192.277 80.2307 192.865C79.7792 193.453 79.1633 193.895 78.461 194.133C77.7587 194.372 77.0014 194.396 76.285 194.204C75.325 193.946 74.5066 193.317 74.0095 192.456C73.5124 191.595 73.3771 190.572 73.6334 189.612ZM73.2649 186.622C73.1109 186.613 72.9572 186.643 72.8174 186.708C72.6775 186.773 72.5559 186.871 72.4633 186.995C72.3707 187.118 72.31 187.263 72.2866 187.415C72.2631 187.567 72.2776 187.723 72.3289 187.869C71.889 188.666 71.6499 189.558 71.6322 190.469C71.5151 190.569 71.4246 190.697 71.3687 190.84C71.3128 190.984 71.2932 191.14 71.3117 191.293C71.3302 191.446 71.3863 191.592 71.4748 191.718C71.5634 191.845 71.6817 191.947 71.8194 192.017C71.9172 192.385 72.0521 192.743 72.222 193.084C71.694 193.013 71.1874 192.83 70.7357 192.547C70.284 192.265 69.8977 191.889 69.6025 191.446C69.3072 191.003 69.1099 190.501 69.0235 189.976C68.9372 189.45 68.9639 188.912 69.1017 188.397C69.2396 187.883 69.4856 187.403 69.8232 186.991C70.1608 186.579 70.5823 186.244 71.0597 186.007C71.5371 185.771 72.0594 185.639 72.5918 185.62C73.1242 185.601 73.6545 185.696 74.1474 185.899C73.8296 186.109 73.5339 186.352 73.2649 186.622ZM65.3249 194.179L65.1294 194.127C65.2092 193.711 65.2089 193.283 65.1288 192.867C65.3488 193.011 65.5787 193.138 65.8168 193.25C65.683 193.575 65.5183 193.886 65.3249 194.179ZM56.6054 187.961L56.3628 188.866C56.2984 189.106 56.1413 189.311 55.926 189.435C55.7107 189.56 55.4548 189.593 55.2146 189.529C54.9744 189.465 54.7697 189.308 54.6453 189.092C54.521 188.877 54.4873 188.621 54.5517 188.381L54.7943 187.475L52.9832 186.99L52.7406 187.896L51.835 187.653C51.0376 187.44 50.3328 186.969 49.8301 186.314C49.3274 185.66 49.0549 184.857 49.0549 184.032C49.0549 183.206 49.3273 182.404 49.8299 181.749C50.3325 181.094 51.0372 180.623 51.8346 180.41L51.7224 180.829L53.5335 181.314L53.7762 180.409C53.8405 180.168 53.9976 179.964 54.213 179.839C54.4283 179.715 54.6842 179.681 54.9244 179.746C55.1645 179.81 55.3693 179.967 55.4936 180.182C55.6179 180.398 55.6516 180.654 55.5873 180.894L55.3446 181.799L57.1557 182.285L57.3984 181.379L61.0206 182.35L59.0795 189.594L58.1739 189.351L58.4165 188.446L56.6054 187.961ZM61.5059 180.539L57.1897 179.382C57.0044 179.015 56.7407 178.693 56.4171 178.438C56.0936 178.184 55.7181 178.004 55.3174 177.911C54.9166 177.819 54.5003 177.815 54.0979 177.901C53.6955 177.986 53.3169 178.159 52.9888 178.408C51.609 178.363 50.261 178.827 49.2012 179.712C48.1415 180.596 47.444 181.84 47.2415 183.205C47.0391 184.571 47.3458 185.963 48.1034 187.117C48.8609 188.271 50.0163 189.107 51.3497 189.464L52.9492 189.893C53.1273 190.246 53.3779 190.557 53.6847 190.807C53.9914 191.056 54.3474 191.238 54.7293 191.34C55.1112 191.443 55.5104 191.463 55.9008 191.4C56.2912 191.338 56.664 191.193 56.9947 190.977L58.5942 191.405L54.9545 204.989L43.1823 201.834C42.4623 201.64 41.8485 201.169 41.4757 200.523C41.1029 199.877 41.0014 199.11 41.1936 198.39L47.5023 174.845C47.6961 174.125 48.1676 173.511 48.8134 173.139C49.4591 172.766 50.2264 172.664 50.9469 172.856L62.7191 176.011L61.5059 180.539ZM60.6479 190.985L64.4245 176.891C64.5665 177.011 64.7114 177.122 64.85 177.228C65.0999 177.419 65.4421 177.68 65.4902 177.829C65.5388 177.98 65.4122 178.393 65.3198 178.694C65.1721 179.175 65.0047 179.721 65.073 180.298C65.1411 180.87 65.4306 181.359 65.6859 181.79C65.8477 182.063 66.0694 182.437 66.0574 182.602C66.0496 182.709 65.9016 182.919 65.7742 183.085C65.1013 183.406 64.499 183.857 64.0025 184.413C63.506 184.969 63.1251 185.618 62.8822 186.322C62.6393 187.027 62.5391 187.773 62.5876 188.516C62.6361 189.26 62.8322 189.987 63.1645 190.654C63.1563 190.682 63.1478 190.711 63.1399 190.74C62.9415 191.438 62.961 192.179 63.1957 192.864C63.2872 193.112 63.3253 193.376 63.3077 193.639L60.1626 192.796L60.6479 190.985ZM68.7372 185.408C68.5832 185.4 68.4294 185.43 68.2896 185.495C68.1498 185.56 68.0282 185.658 67.9356 185.782C67.843 185.905 67.7822 186.049 67.7588 186.202C67.7353 186.354 67.7499 186.51 67.8011 186.656C67.3612 187.453 67.1222 188.345 67.1045 189.255C66.9874 189.356 66.8968 189.483 66.8409 189.627C66.785 189.771 66.7654 189.926 66.784 190.079C66.8025 190.233 66.8585 190.379 66.947 190.505C67.0356 190.631 67.1539 190.734 67.2916 190.803C67.3895 191.172 67.5243 191.53 67.6942 191.871C67.1663 191.8 66.6596 191.617 66.2079 191.334C65.7562 191.052 65.3699 190.676 65.0747 190.233C64.7794 189.789 64.5821 189.288 64.4958 188.762C64.4094 188.237 64.4361 187.699 64.574 187.184C64.7118 186.67 64.9578 186.19 65.2954 185.778C65.633 185.366 66.0546 185.031 66.5319 184.794C67.0093 184.558 67.5316 184.426 68.064 184.407C68.5964 184.388 69.1267 184.483 69.6196 184.685C69.3018 184.896 69.0062 185.138 68.7372 185.408ZM41.5488 204.308C40.3488 203.985 39.3258 203.199 38.7044 202.123C38.0831 201.047 37.914 199.768 38.2343 198.567L39.6901 193.134C39.722 193.015 39.7301 192.891 39.714 192.769C39.698 192.647 39.658 192.529 39.5965 192.423C39.5349 192.316 39.453 192.222 39.3553 192.148C39.2576 192.073 39.1461 192.018 39.0272 191.986L38.1216 191.743C36.6816 191.355 35.4541 190.412 34.7084 189.121C33.9627 187.829 33.7598 186.295 34.1442 184.854L34.6295 183.043C35.0171 181.603 35.9601 180.375 37.2516 179.63C38.5431 178.884 40.0777 178.681 41.5186 179.065L42.4242 179.308C42.5431 179.34 42.6672 179.348 42.7892 179.332C42.9113 179.316 43.029 179.276 43.1356 179.214C43.2422 179.153 43.3357 179.071 43.4106 178.973C43.4856 178.875 43.5405 178.764 43.5724 178.645L45.0283 173.212C45.3513 172.012 46.1371 170.989 47.2134 170.367C48.2897 169.746 49.5685 169.577 50.7693 169.897L63.447 173.294L63.2044 174.2L51.4322 171.045C50.2314 170.725 48.9526 170.894 47.8763 171.516C46.8 172.137 46.0142 173.16 45.6912 174.36L39.3825 197.904C39.0622 199.105 39.2313 200.384 39.8526 201.46C40.474 202.536 41.497 203.322 42.697 203.645L54.4692 206.8L54.2266 207.705L41.5488 204.308ZM59.6599 209.161C59.5312 209.641 59.217 210.051 58.7863 210.3C58.3557 210.548 57.8439 210.616 57.3635 210.487C56.8832 210.358 56.4737 210.044 56.225 209.613C55.9764 209.183 55.909 208.671 56.0377 208.191L59.6774 194.607L63.81 195.715C63.7068 195.784 63.6019 195.852 63.4937 195.914L63.2975 196.027C61.7409 196.931 60.6038 198.413 60.1333 200.15L60.1193 200.202C59.9818 200.712 59.9467 201.244 60.0161 201.767C60.0854 202.29 60.2579 202.795 60.5234 203.251L60.5666 203.327C60.8529 203.826 60.9309 204.417 60.7836 204.972L59.6599 209.161ZM62.1948 202.398L62.1516 202.321C62.0084 202.077 61.9151 201.807 61.8772 201.526C61.8392 201.246 61.8573 200.961 61.9305 200.687L61.9444 200.635C62.2849 199.378 63.1079 198.306 64.2346 197.651L64.4312 197.538C65.0117 197.201 65.543 196.786 66.0101 196.304L66.0162 196.306L66.0192 196.295C66.7268 195.566 67.277 194.7 67.6358 193.749C68.1374 193.8 68.6435 193.783 69.1406 193.699C69.7629 194.216 70.4899 194.593 71.2715 194.802C72.0531 195.012 72.8708 195.049 73.6683 194.912C74.3942 195.515 75.2598 195.925 76.1856 196.105C77.1114 196.285 78.0676 196.229 78.9663 195.943C79.865 195.657 80.6773 195.15 81.3285 194.467C81.9797 193.785 82.449 192.95 82.6931 192.039C82.9372 191.128 82.9483 190.17 82.7254 189.254C82.5025 188.338 82.0528 187.492 81.4176 186.795C80.7824 186.098 79.9821 185.571 79.0903 185.264C78.1985 184.958 77.2438 184.88 76.3141 185.038C75.6918 184.521 74.9648 184.145 74.1832 183.935C73.4016 183.726 72.5839 183.688 71.7863 183.825C71.328 183.446 70.8126 183.142 70.2591 182.924C70.3815 181.249 70.2535 179.566 69.8794 177.929L83.5469 181.592C84.2669 181.785 84.8807 182.257 85.2535 182.903C85.6263 183.548 85.7278 184.316 85.5356 185.036L79.2269 208.581C79.0331 209.301 78.5616 209.914 77.9158 210.287C77.2701 210.66 76.5028 210.762 75.7823 210.569L62.1997 206.93L62.5947 205.457C62.8691 204.425 62.7255 203.325 62.1948 202.398ZM81.7009 210.214C81.3779 211.414 80.5921 212.437 79.5158 213.058C78.4395 213.68 77.1607 213.849 75.9599 213.529L61.471 209.646L61.7139 208.741L75.297 212.38C76.4978 212.701 77.7766 212.532 78.8529 211.91C79.9292 211.289 80.715 210.266 81.038 209.066L87.3467 185.521C87.667 184.321 87.4979 183.042 86.8765 181.966C86.2552 180.889 85.2322 180.103 84.0322 179.78L69.249 175.819C69.1121 175.451 68.9628 175.087 68.801 174.729L85.1804 179.118C86.3804 179.441 87.4034 180.226 88.0247 181.303C88.6461 182.379 88.8152 183.658 88.4949 184.859L81.7009 210.214Z" fill="white"/>
<path d="M42.1814 180.213L41.2758 179.971C40.075 179.65 38.7962 179.82 37.72 180.441C36.6437 181.062 35.8578 182.085 35.5348 183.285L35.0495 185.096C34.7292 186.297 34.8983 187.576 35.5197 188.652C36.1411 189.729 37.164 190.514 38.3641 190.837L39.2697 191.08C39.3886 191.112 39.5126 191.12 39.6347 191.104C39.7567 191.088 39.8744 191.048 39.9811 190.986C40.0877 190.925 40.1811 190.843 40.2561 190.745C40.331 190.648 40.386 190.536 40.4179 190.417L42.8443 181.362C42.8762 181.243 42.8843 181.119 42.8682 180.997C42.8522 180.875 42.8122 180.757 42.7506 180.65C42.6891 180.544 42.6071 180.45 42.5095 180.375C42.4118 180.3 42.3003 180.245 42.1814 180.213ZM38.8494 189.026C38.1294 188.833 37.5156 188.361 37.1428 187.715C36.7699 187.07 36.6685 186.302 36.8607 185.582L37.3459 183.771C37.5397 183.051 38.0112 182.437 38.657 182.064C39.3028 181.691 40.0701 181.59 40.7905 181.782L38.8494 189.026Z" fill="white"/>
<path d="M57.6061 209.581C58.1062 209.715 58.6203 209.419 58.7543 208.918C58.8883 208.418 58.5915 207.904 58.0913 207.77C57.5912 207.636 57.0772 207.933 56.9431 208.433C56.8091 208.933 57.1059 209.447 57.6061 209.581Z" fill="white"/>
</g>
<g clip-path="url(#clip2)">
<path d="M18.4055 78.7188L15.6143 79.4667C15.5833 79.1542 15.5271 78.8446 15.4462 78.5412C14.6954 75.7392 11.9199 73.8493 8.69698 73.8518C8.17153 72.5932 7.99673 71.2157 8.19115 69.8657L8.8515 65.2824L9.75224 63.2254C10.3042 63.3147 10.8691 63.2794 11.4056 63.1221C11.9422 62.9649 12.4367 62.6896 12.8531 62.3165C13.2695 61.9434 13.5972 61.4819 13.8122 60.9658C14.0272 60.4497 14.1241 59.892 14.0957 59.3337C14.0673 58.7753 13.9145 58.2303 13.6482 57.7387C13.382 57.247 13.0092 56.8211 12.5572 56.4921C12.1051 56.1632 11.5851 55.9395 11.0354 55.8374C10.4857 55.7353 9.92016 55.7575 9.38012 55.9023C9.34198 55.9125 9.30411 55.9233 9.26651 55.9346C9.00243 55.4674 8.64114 55.0623 8.20707 54.7467C7.773 54.4311 7.27625 54.2123 6.75038 54.1052C6.2245 53.998 5.68176 54.005 5.1588 54.1256C4.63585 54.2462 4.14486 54.4776 3.71901 54.8042C3.29316 55.1308 2.94237 55.545 2.69034 56.0188C2.4383 56.4926 2.29088 57.015 2.25805 57.5507C2.22522 58.0864 2.30773 58.6229 2.50002 59.1239C2.6923 59.625 2.98988 60.0789 3.37265 60.4551L1.87404 63.0507L1.04194 64.4919C-0.151101 63.6035 -1.62161 63.1691 -3.10591 63.2666C-4.59021 63.3641 -5.99123 63.9872 -7.05777 65.0241C-6.71726 62.8352 -6.83556 60.5995 -7.40517 58.4587C-7.44938 58.2937 -7.53783 58.1439 -7.66098 58.0256C-7.78412 57.9072 -7.93727 57.8247 -8.10389 57.787C-8.2705 57.7493 -8.44424 57.7579 -8.60635 57.8117C-8.76846 57.8656 -8.91277 57.9627 -9.02369 58.0926L-18.535 69.232C-19.5803 70.4566 -20.2154 71.9781 -20.3508 73.5825C-20.4862 75.1869 -20.1151 76.7933 -19.2898 78.1758C-20.0938 79.1338 -20.6517 80.2736 -20.9151 81.4962C-25.26 82.7887 -27.9224 86.9318 -26.8723 90.8509L-30.4945 91.8215C-31.215 92.0146 -31.8293 92.4859 -32.2023 93.1319C-32.5752 93.7779 -32.6763 94.5456 -32.4832 95.2661C-32.2902 95.9866 -31.8188 96.6009 -31.1728 96.9739C-30.5268 97.3468 -29.7591 97.4479 -29.0386 97.2548L-27.176 96.7557C-26.4761 98.536 -25.1929 100.026 -23.5362 100.983C-21.8796 101.939 -19.9475 102.305 -18.0557 102.021L-17.0714 105.695C-17.007 105.935 -16.8499 106.14 -16.6346 106.264C-16.4192 106.389 -16.1633 106.422 -15.9232 106.358L13.0546 98.5934C13.2948 98.5291 13.4995 98.3719 13.6239 98.1566C13.7482 97.9413 13.7819 97.6854 13.7175 97.4452L12.7331 93.7715C14.5134 93.0715 16.0036 91.7884 16.9601 90.1317C17.9165 88.4751 18.2827 86.5429 17.9987 84.6512L19.8614 84.1521C20.5819 83.9591 21.1962 83.4877 21.5691 82.8417C21.9421 82.1957 22.0432 81.428 21.8501 80.7075C21.657 79.987 21.1857 79.3727 20.5397 78.9998C19.8937 78.6268 19.126 78.5257 18.4055 78.7188ZM13.6351 79.0264C13.7168 79.3316 13.7615 79.6455 13.7681 79.9614L8.72359 81.3131C9.46555 79.5586 9.66329 77.6217 9.29117 75.7535C11.4083 75.952 13.1504 77.2177 13.6351 79.0264ZM5.06387 59.4025C4.79674 59.2485 4.57172 59.0309 4.40877 58.7691C4.24582 58.5073 4.14996 58.2093 4.12968 57.9016C4.10941 57.5939 4.16534 57.286 4.29253 57.005C4.41972 56.7241 4.61423 56.4789 4.85884 56.2911C5.10345 56.1033 5.3906 55.9788 5.69485 55.9285C5.9991 55.8782 6.31106 55.9037 6.60308 56.0028C6.8951 56.1019 7.15817 56.2715 7.36899 56.4966C7.5798 56.7217 7.73184 56.9952 7.81165 57.2931C7.82051 57.3262 7.82876 57.3587 7.83534 57.3917C7.86561 57.5442 7.93332 57.6867 8.03237 57.8065C8.13143 57.9263 8.25872 58.0196 8.40278 58.078C8.54685 58.1363 8.70317 58.158 8.85768 58.1409C9.01218 58.1239 9.16002 58.0687 9.28789 57.9803C9.55687 57.7948 9.86966 57.6828 10.1952 57.6554C10.5208 57.628 10.8479 57.6862 11.1441 57.8241C11.4403 57.9621 11.6953 58.175 11.8839 58.4419C12.0724 58.7087 12.188 59.0202 12.219 59.3455C12.2501 59.6707 12.1957 59.9985 12.0611 60.2962C11.9266 60.594 11.7165 60.8514 11.4518 61.0429C11.1871 61.2345 10.877 61.3536 10.5521 61.3884C10.2272 61.4231 9.89887 61.3724 9.59961 61.2413C9.4868 61.1916 9.3653 61.1647 9.24207 61.162C9.11884 61.1594 8.99629 61.1811 8.88145 61.2258C8.76661 61.2706 8.66172 61.3376 8.57279 61.4229C8.48386 61.5083 8.41263 61.6103 8.36317 61.7232L7.41162 63.8961L4.09828 62.9483L5.4063 60.6827C5.53053 60.4675 5.56425 60.2118 5.50004 59.9717C5.43584 59.7317 5.27895 59.527 5.06387 59.4025ZM3.1319 64.6221L6.89711 65.6991L6.33524 69.5984C6.0884 71.3105 6.31737 73.0576 6.99707 74.6484C7.45516 75.7279 7.657 76.8988 7.58675 78.0694C7.51651 79.2399 7.17609 80.3783 6.59219 81.3953L6.25824 81.9736L-3.47886 84.5827C-4.37513 83.6978 -4.95271 82.5408 -5.12118 81.2927C-5.28966 80.0445 -5.03953 78.7757 -4.40994 77.6849L3.1319 64.6221ZM-13.2413 76.5223C-10.7354 75.8508 -8.13372 76.2207 -6.39346 77.4534C-6.94555 78.6948 -7.15359 80.0618 -6.99577 81.4112C-6.83796 82.7607 -6.3201 84.0428 -5.49646 85.1233L-10.5723 86.4834C-11.499 83.0249 -15.0168 80.861 -18.8608 81.1233C-18.0858 79.0473 -15.9411 77.2456 -13.2413 76.5223ZM-18.3051 75.7353C-18.5495 74.8233 -18.5683 73.8656 -18.36 72.9447C-18.1516 72.0238 -17.7223 71.1674 -17.1091 70.4495L-8.85502 60.7826C-8.55774 63.1216 -8.85072 65.4978 -9.70724 67.6945L-13.9722 71.9974L-12.6406 73.3174L-5.81075 66.4267C-5.03999 65.6505 -4.00727 65.1899 -2.91476 65.1351C-1.82225 65.0803 -0.748606 65.4352 0.0959891 66.1304L-5.4865 75.7995C-7.67829 74.3299 -10.7267 73.9073 -13.7266 74.7111C-15.2492 75.1105 -16.6717 75.8235 -17.9028 76.8045C-18.0715 76.4621 -18.2062 76.104 -18.3051 75.7353ZM-20.1781 83.2338C-16.6828 82.2972 -13.1861 83.9727 -12.3834 86.9686L-25.0612 90.3656C-25.8639 87.3697 -23.6735 84.1704 -20.1781 83.2338ZM-15.5029 104.304L-16.2308 101.588L10.9358 94.3083L11.6638 97.0249L-15.5029 104.304ZM11.3561 92.2545L-17.6217 100.019C-19.1459 100.425 -20.7653 100.27 -22.1843 99.5808C-23.6033 98.8919 -24.7272 97.7156 -25.3507 96.2667L16.1734 85.1403C16.3579 86.7069 15.9728 88.2875 15.0884 89.5937C14.2039 90.8998 12.8792 91.8442 11.3561 92.2545ZM19.3761 82.341L-29.5239 95.4437C-29.7641 95.5081 -30.02 95.4744 -30.2353 95.3501C-30.4506 95.2257 -30.6078 95.021 -30.6721 94.7808C-30.7365 94.5406 -30.7028 94.2847 -30.5785 94.0694C-30.4541 93.8541 -30.2494 93.697 -30.0092 93.6326L18.8908 80.5299C19.131 80.4655 19.3869 80.4992 19.6022 80.6236C19.8175 80.7479 19.9746 80.9526 20.039 81.1928C20.1033 81.433 20.0696 81.6889 19.9453 81.9042C19.821 82.1195 19.6162 82.2767 19.3761 82.341Z" fill="white"/>
<path d="M1.86301 82.1808C2.36313 82.0468 2.65993 81.5327 2.52592 81.0326C2.39191 80.5324 1.87785 80.2357 1.37772 80.3697C0.877599 80.5037 0.580803 81.0177 0.714811 81.5179C0.848819 82.018 1.36288 82.3148 1.86301 82.1808Z" fill="white"/>
<path d="M3.36643 76.9249C3.86655 76.7909 4.16335 76.2768 4.02934 75.7767C3.89533 75.2766 3.38127 74.9798 2.88114 75.1138C2.38102 75.2478 2.08422 75.7619 2.21823 76.262C2.35224 76.7621 2.8663 77.0589 3.36643 76.9249Z" fill="white"/>
<path d="M11.8239 79.5116C12.3241 79.3776 12.6209 78.8635 12.4869 78.3634C12.3529 77.8633 11.8388 77.5665 11.3387 77.7005C10.8385 77.8345 10.5417 78.3485 10.6757 78.8487C10.8098 79.3488 11.3238 79.6456 11.8239 79.5116Z" fill="white"/>
</g>
<g clip-path="url(#clip3)">
<path d="M-23.6839 256.858C-23.3818 255.735 -23.0034 254.634 -22.5513 253.563L-20.973 253.986L-20.4877 252.175L-21.7494 251.836C-20.7611 249.896 -19.5307 248.089 -18.0878 246.458C-15.8197 243.893 -14.0462 240.93 -12.8569 237.719L-5.38231 239.722C-5.72336 241.711 -5.84489 243.731 -5.74471 245.746L-3.87199 245.653C-4.00529 242.982 -3.72048 240.307 -3.02788 237.725L-0.0453621 226.594C0.147697 225.873 0.0466286 225.106 -0.326331 224.46C-0.699292 223.814 -1.3136 223.342 -2.0341 223.149L-7.46743 221.693C-8.18794 221.5 -8.95562 221.601 -9.60161 221.974C-10.2476 222.347 -10.719 222.962 -10.912 223.682L-13.8945 234.813C-14.9318 238.665 -16.8472 242.225 -19.4906 245.214C-22.327 248.42 -24.3821 252.239 -25.495 256.373L-26.0511 258.448L-24.24 258.934L-23.6839 256.858ZM-12.2647 235.937C-12.2022 235.725 -12.1407 235.512 -12.0834 235.298L-11.2847 232.317L-4.04026 234.258L-4.83899 237.239C-4.89633 237.453 -4.95011 237.668 -5.00224 237.883L-12.2647 235.937ZM-10.7994 230.506L-10.3141 228.695L-3.06969 230.636L-3.55497 232.447L-10.7994 230.506ZM-1.85647 226.108L-2.5844 228.825L-9.82885 226.884L-9.5862 225.978L-4.15287 227.434L-3.66758 225.623L-9.10092 224.167C-9.03656 223.927 -8.87944 223.722 -8.66411 223.598C-8.44878 223.474 -8.19289 223.44 -7.95272 223.504L-2.51939 224.96C-2.27922 225.025 -2.07445 225.182 -1.95013 225.397C-1.82581 225.612 -1.79212 225.868 -1.85647 226.108Z" fill="white"/>
<path d="M26.3619 261.182C26.3033 261.061 26.2192 260.954 26.1154 260.868C26.0116 260.782 25.8905 260.719 25.7604 260.684L24.1483 260.252L27.879 252.707C27.9405 252.583 27.9736 252.447 27.976 252.308C27.9783 252.169 27.9499 252.032 27.8927 251.905C27.8355 251.779 27.751 251.667 27.6453 251.577C27.5396 251.487 27.4152 251.422 27.2813 251.386L22.7535 250.173C22.5567 250.12 22.3481 250.133 22.1592 250.21C21.9703 250.286 21.8115 250.422 21.7068 250.597L21.0677 251.662L18.8656 251.072L20.7173 246.863C20.7718 246.74 20.7988 246.606 20.7965 246.47C20.7943 246.335 20.7629 246.202 20.7044 246.08C20.646 245.958 20.5618 245.851 20.4578 245.764C20.3538 245.678 20.2324 245.615 20.1018 245.58L14.6685 244.124C14.4665 244.07 14.2523 244.085 14.0598 244.167C13.8674 244.248 13.7077 244.392 13.6062 244.575L12.0853 247.315L10.0757 246.776C9.85772 246.718 9.62598 246.74 9.42303 246.839C9.22008 246.937 9.05954 247.106 8.97088 247.313L8.54624 248.307L6.58446 247.782L6.96638 243.842C6.98779 243.621 6.93015 243.4 6.80371 243.218C6.67727 243.035 6.49022 242.904 6.27585 242.846L0.842521 241.39C0.711006 241.355 0.573392 241.349 0.439249 241.372C0.305106 241.396 0.177654 241.448 0.0657533 241.525C-0.0461471 241.603 -0.13981 241.704 -0.208722 241.821C-0.277634 241.939 -0.320142 242.07 -0.33329 242.205L-0.776799 246.78L-2.42445 246.338C-2.55419 246.304 -2.68989 246.297 -2.82236 246.319C-2.95482 246.342 -3.08097 246.392 -3.19224 246.467C-3.30351 246.542 -3.39732 246.641 -3.46731 246.755C-3.53729 246.87 -3.58183 246.998 -3.59789 247.132L-4.26154 252.64L-5.0285 252.435C-5.15864 252.4 -5.29477 252.393 -5.42761 252.416C-5.56046 252.438 -5.68689 252.489 -5.79831 252.565C-5.90973 252.641 -6.00351 252.739 -6.07327 252.855C-6.14302 252.97 -6.18711 253.099 -6.20253 253.233L-6.85343 258.882L-4.99065 259.097L-4.4642 254.527L-2.52586 255.046L-2.36265 256.918C-2.13114 259.573 -1.08816 262.093 0.624674 264.135C2.33751 266.177 4.63723 267.642 7.21158 268.332C9.78594 269.022 12.5102 268.902 15.0145 267.99C17.5188 267.079 19.6818 265.418 21.2099 263.234L22.2872 261.695L24.2255 262.214L14.8055 283.955L-7.17633 278.065L-7.05189 276.985L-8.91466 276.77L-9.13167 278.653C-9.1574 278.877 -9.10201 279.102 -8.97558 279.288C-8.84915 279.474 -8.66011 279.608 -8.44292 279.666L15.1015 285.975C15.3187 286.033 15.5496 286.011 15.752 285.914C15.9545 285.816 16.115 285.648 16.2044 285.442L26.378 261.963C26.4316 261.839 26.4578 261.705 26.4551 261.571C26.4523 261.436 26.4205 261.303 26.3619 261.182ZM25.6913 252.901L24.4128 255.487C24.3627 255.463 24.3105 255.444 24.2569 255.429L22.1402 254.862L22.8751 253.286C22.9423 253.144 22.9723 252.987 22.9623 252.83C22.9523 252.674 22.9025 252.522 22.8178 252.39L22.9512 252.167L25.6913 252.901ZM20.7036 253.506L20.3011 254.369L19.7292 254.216C19.5198 254.159 19.2975 254.178 19.1 254.267C18.9026 254.356 18.7422 254.511 18.6461 254.706L12.7246 266.682C12.4658 266.733 12.2052 266.776 11.9426 266.809L18.1017 252.809L20.7036 253.506ZM14.8902 246.125L18.561 247.109L9.86544 266.874C9.22111 266.834 8.58159 266.737 7.95424 266.584L15.2253 249.258C15.2771 249.134 15.3019 249.001 15.298 248.867C15.2941 248.734 15.2616 248.602 15.2026 248.482C15.1437 248.362 15.0598 248.256 14.9564 248.171C14.8531 248.086 14.7327 248.024 14.6035 247.989L13.9522 247.815L14.8902 246.125ZM13.0808 249.522L6.17115 265.988C6.0472 265.934 5.92457 265.878 5.80326 265.82L8.12966 254.056L10.3758 248.798L13.0808 249.522ZM3.42649 253.73L6.13917 254.456L4.09252 264.806C3.18181 264.148 2.37527 263.358 1.70003 262.46L3.42649 253.73ZM6.68625 252.662L4.75498 252.144L5.48291 249.428L7.80223 250.049L6.68625 252.662ZM1.42618 243.488L5.02341 244.452L4.74277 247.346C4.55035 247.362 4.36751 247.437 4.21924 247.56C4.07097 247.684 3.96452 247.85 3.91444 248.037L2.94387 251.659C2.81784 251.625 2.68616 251.618 2.55727 251.639L2.79548 248.529C2.81217 248.311 2.75213 248.094 2.62574 247.915C2.49934 247.737 2.31455 247.608 2.10333 247.552L1.05938 247.272L1.42618 243.488ZM-0.494689 256.755L-0.714941 254.229C-0.731652 254.038 -0.806962 253.856 -0.930645 253.708C-1.05433 253.561 -1.22039 253.455 -1.40628 253.405L-2.43199 253.13L-1.86567 248.429L0.866473 249.161L0.0801259 259.428C-0.221594 258.564 -0.414684 257.666 -0.494692 256.755L-0.494689 256.755ZM15.2163 265.873L19.9863 256.226L22.667 256.944L21.0867 260.14L19.6736 262.159C18.544 263.771 17.0055 265.053 15.2163 265.873L15.2163 265.873Z" fill="white"/>
<path d="M4.78543 277.387C1.53794 276.517 -1.24218 275 -2.2973 273.523L-3.82311 274.613C-2.51076 276.45 0.601976 278.208 4.30014 279.199C6.83143 279.877 9.33199 280.118 11.3414 279.879C13.6414 279.604 15.1093 278.703 15.4745 277.34C15.8397 275.977 15.0193 274.462 13.1645 273.075C11.5442 271.862 9.25786 270.821 6.72657 270.143C3.70813 269.334 0.760687 269.152 -1.36006 269.643L-0.937246 271.469C0.866715 271.052 3.55026 271.233 6.24128 271.954C11.2164 273.287 13.9602 275.747 13.6634 276.855C13.3666 277.962 9.76056 278.72 4.78543 277.387Z" fill="white"/>
<path d="M-3.05692 270.433C-2.99257 270.193 -3.02626 269.937 -3.15058 269.722C-3.2749 269.506 -3.47967 269.349 -3.71983 269.285L-6.4365 268.557C-5.7959 266.155 -6.13409 263.598 -7.37686 261.445C-8.61963 259.293 -10.6655 257.721 -13.0656 257.075C-14.0963 256.802 -15.0625 256.327 -15.9084 255.678C-16.7543 255.029 -17.463 254.218 -17.9936 253.294L-18.1074 253.096C-18.2001 252.936 -18.3384 252.806 -18.5047 252.724C-18.671 252.643 -18.8578 252.612 -19.0417 252.636C-19.2255 252.66 -19.398 252.738 -19.5374 252.861C-19.6768 252.983 -19.7768 253.144 -19.8248 253.323L-21.038 257.85C-21.3033 258.828 -21.2446 259.866 -20.8706 260.807L-21.3384 260.682C-22.6262 260.332 -23.983 260.324 -25.2749 260.658C-26.5668 260.993 -27.749 261.659 -28.705 262.59L-30.8865 262.006C-31.1267 261.941 -31.3826 261.975 -31.5979 262.099C-31.8132 262.224 -31.9703 262.428 -32.0347 262.668C-32.5048 264.433 -32.3161 266.308 -31.5038 267.943C-30.6915 269.578 -29.3112 270.862 -27.6212 271.553L-28.1222 273.423C-28.1866 273.663 -28.1529 273.919 -28.0286 274.134C-27.9043 274.349 -27.6995 274.506 -27.4593 274.571L-12.9704 278.453C-12.7303 278.517 -12.4744 278.484 -12.259 278.359C-12.0437 278.235 -11.8866 278.03 -11.8222 277.79L-11.3212 275.92C-9.51208 276.167 -7.67512 275.746 -6.15403 274.736C-4.63293 273.726 -3.5319 272.196 -3.05692 270.433ZM-21.8236 262.493L-18.4736 263.39C-17.5429 263.643 -16.5716 263.708 -15.6157 263.582C-14.6597 263.456 -13.7383 263.142 -12.9046 262.657L-13.842 261.033C-14.9588 261.682 -16.2706 261.911 -17.541 261.678C-18.181 261.422 -18.7054 260.941 -19.0158 260.326C-19.3262 259.71 -19.4013 259.003 -19.2269 258.336L-18.5364 255.759C-17.2292 257.282 -15.4908 258.372 -13.5509 258.886C-11.6308 259.403 -9.99412 260.66 -8.9999 262.382C-8.00568 264.104 -7.73513 266.15 -8.24761 268.072L-26.4574 263.192C-25.7758 262.761 -25.0119 262.475 -24.2141 262.355C-23.4164 262.234 -22.6023 262.281 -21.8236 262.493ZM-30.3907 264.08L-5.18618 270.833C-5.7409 272.041 -6.70461 273.013 -7.90703 273.579C-9.10944 274.145 -10.4732 274.268 -11.7572 273.925L-26.2461 270.043C-27.5293 269.697 -28.649 268.909 -29.4074 267.818C-30.1658 266.727 -30.5141 265.403 -30.3907 264.08ZM-26.0685 273.002L-25.8258 272.097L-13.1481 275.494L-13.3907 276.399L-26.0685 273.002Z" fill="white"/>
</g>
</g>
<defs>
<clipPath id="clip0">
<rect width="60" height="60" fill="white" transform="translate(-30 120) rotate(30)"/>
</clipPath>
<clipPath id="clip1">
<rect width="60" height="60" fill="white" transform="translate(38.5291 154) rotate(15)"/>
</clipPath>
<clipPath id="clip2">
<rect width="60" height="60" fill="white" transform="translate(-44 59.5291) rotate(-15)"/>
</clipPath>
<clipPath id="clip3">
<rect width="60" height="60" fill="white" transform="translate(-21.4709 216) rotate(15)"/>
</clipPath>
</defs>
</svg>
