<svg width="80" height="240" viewBox="0 0 80 240" fill="none" xmlns="http://www.w3.org/2000/svg">
<mask id="mask0" mask-type="alpha" maskUnits="userSpaceOnUse" x="0" y="0" width="240" height="240">
<path fill-rule="evenodd" clip-rule="evenodd" d="M97.4566 239.159C63.7756 234.298 48.5141 199.149 29.7206 171.554C14.0004 148.471 -4.78214 124.767 1.10698 97.6837C7.08112 70.2097 33.9603 55.1729 58.3134 40.0614C89.3084 20.8284 120.053 -7.55407 155.528 1.86271C196.498 12.7384 229.758 47.3823 238.248 87.8255C246.561 127.426 224.084 165.601 196.194 195.581C170.688 222.996 135.074 244.588 97.4566 239.159Z" fill="#C4C4C4"/>
</mask>
<g mask="url(#mask0)">
<path fill-rule="evenodd" clip-rule="evenodd" d="M97.4566 239.159C63.7756 234.298 48.5141 199.149 29.7206 171.554C14.0004 148.471 -4.78214 124.767 1.10698 97.6837C7.08112 70.2097 33.9603 55.1729 58.3134 40.0614C89.3084 20.8284 120.053 -7.55407 155.528 1.86271C196.498 12.7384 229.758 47.3823 238.248 87.8255C246.561 127.426 224.084 165.601 196.194 195.581C170.688 222.996 135.074 244.588 97.4566 239.159Z" fill="#FB8172"/>
<g clip-path="url(#clip0)">
<path d="M86.8494 199.156L52.4383 189.936C50.7572 189.488 48.9669 189.724 47.4601 190.594C45.9533 191.464 44.8531 192.896 44.4009 194.576L43.1877 199.104C41.2664 198.592 39.2204 198.862 37.4983 199.856C35.7763 200.851 34.5189 202.487 34.0021 204.407L33.5168 206.219C33.0044 208.14 33.2749 210.186 34.2691 211.908C35.2634 213.63 36.9 214.887 38.8201 215.404L37.6069 219.932C37.1585 221.613 37.3952 223.403 38.2652 224.91C39.1351 226.417 40.5672 227.517 42.2473 227.969L45.704 228.896C48.2119 235.004 51.8927 240.562 56.5382 245.254C56.684 245.401 56.8744 245.496 57.0796 245.524C57.2849 245.551 57.4935 245.51 57.6728 245.406L64.8983 241.235L70.3958 250.757C70.872 251.58 71.6559 252.181 72.5751 252.427C73.4943 252.673 74.4736 252.544 75.2976 252.069C76.1217 251.593 76.7231 250.809 76.9697 249.89C77.2162 248.971 77.0877 247.992 76.6123 247.167L70.6461 236.834L69.789 235.349L76.6584 237.19C78.3395 237.638 80.1299 237.401 81.6366 236.532C83.1434 235.662 84.2436 234.229 84.6958 232.549L91.4898 207.194C91.9382 205.513 91.7015 203.722 90.8315 202.216C89.9616 200.709 88.5295 199.609 86.8494 199.156ZM57.366 243.418C51.9009 237.732 47.9001 230.802 45.7082 223.226L47.4835 222.201C49.7426 229.749 53.7348 236.663 59.1414 242.393L57.366 243.418ZM44.14 221.967C43.9606 222.07 43.8206 222.23 43.7418 222.422C43.663 222.613 43.6498 222.826 43.7043 223.025C43.7459 223.178 43.7897 223.33 43.8327 223.482C43.2547 223.191 42.7944 222.71 42.5294 222.119C42.2643 221.529 42.2107 220.865 42.3773 220.24L48.6861 196.695C48.8799 195.975 49.3514 195.361 49.9971 194.989C50.6429 194.616 51.4102 194.514 52.1307 194.706L84.7307 203.442C85.4507 203.635 86.0644 204.107 86.4373 204.753C86.8101 205.398 86.9116 206.166 86.7194 206.886L80.4107 230.431C80.2169 231.151 79.7454 231.764 79.0996 232.137C78.4538 232.51 77.6866 232.612 76.9661 232.419L66.4745 229.608L58.0508 215.018C57.9265 214.803 57.7217 214.645 57.4815 214.581C57.2414 214.517 56.9855 214.55 56.7702 214.675L44.14 221.967ZM68.5536 236.959L60.811 241.429C55.3461 235.743 51.3453 228.813 49.1532 221.237L56.8958 216.767L68.5536 236.959ZM74.3612 250.447C73.9673 250.673 73.4996 250.735 73.0606 250.617C72.6216 250.499 72.2472 250.212 72.0196 249.819L66.5221 240.297L69.4911 238.583L74.9886 248.105C75.2154 248.499 75.2767 248.966 75.159 249.405C75.0414 249.844 74.7545 250.219 74.3612 250.447ZM82.8847 232.064C82.5617 233.264 81.7759 234.287 80.6996 234.908C79.6233 235.53 78.3445 235.699 77.1437 235.379L68.4632 233.053L67.8003 231.905L76.4808 234.23C77.6816 234.551 78.9604 234.382 80.0367 233.76C81.1129 233.139 81.8988 232.116 82.2218 230.916L88.5305 207.371C88.8508 206.171 88.6817 204.892 88.0603 203.816C87.4389 202.739 86.416 201.953 85.2159 201.63L52.6159 192.895C51.4152 192.575 50.1363 192.744 49.0601 193.366C47.9838 193.987 47.198 195.01 46.8749 196.21L40.5662 219.754C40.2459 220.955 40.415 222.234 41.0364 223.31C41.6578 224.386 42.6807 225.172 43.8808 225.495L44.5036 225.662C44.6227 226.02 44.7456 226.377 44.8724 226.732L42.7326 226.158C41.5325 225.835 40.5096 225.049 39.8882 223.973C39.2668 222.897 39.0977 221.618 39.418 220.417L40.8739 214.984C40.9058 214.865 40.9139 214.741 40.8978 214.619C40.8818 214.497 40.8418 214.379 40.7802 214.273C40.7187 214.166 40.6367 214.072 40.5391 213.998C40.4414 213.923 40.3299 213.868 40.211 213.836L39.3054 213.593C37.8654 213.205 36.6378 212.262 35.8922 210.971C35.1465 209.679 34.9436 208.145 35.3279 206.704L35.8132 204.893C36.2008 203.453 37.1439 202.225 38.4354 201.48C39.7269 200.734 41.2615 200.531 42.7024 200.915L43.608 201.158C43.7269 201.19 43.8509 201.198 43.973 201.182C44.0951 201.166 44.2128 201.126 44.3194 201.064C44.426 201.003 44.5195 200.921 44.5944 200.823C44.6693 200.725 44.7243 200.614 44.7562 200.495L46.212 195.062C46.535 193.862 47.3209 192.839 48.3972 192.217C49.4734 191.596 50.7522 191.427 51.953 191.747L86.3641 200.968C87.5642 201.291 88.5871 202.076 89.2085 203.153C89.8299 204.229 89.999 205.508 89.6787 206.709L82.8847 232.064Z" fill="white"/>
<path d="M43.3655 202.064L42.4599 201.821C41.2591 201.501 39.9803 201.67 38.904 202.291C37.8278 202.912 37.0419 203.935 36.7189 205.135L36.2336 206.947C35.9133 208.147 36.0824 209.426 36.7038 210.502C37.3252 211.579 38.3481 212.365 39.5482 212.688L40.4537 212.93C40.5727 212.962 40.6967 212.97 40.8188 212.954C40.9408 212.938 41.0585 212.898 41.1651 212.837C41.2718 212.775 41.3652 212.693 41.4402 212.595C41.5151 212.498 41.5701 212.386 41.6019 212.267L44.0284 203.212C44.0602 203.093 44.0684 202.969 44.0523 202.847C44.0362 202.725 43.9963 202.607 43.9347 202.5C43.8732 202.394 43.7912 202.3 43.6935 202.225C43.5959 202.15 43.4844 202.095 43.3655 202.064ZM40.0335 210.876C39.3134 210.683 38.6997 210.211 38.3268 209.565C37.954 208.92 37.8526 208.152 38.0447 207.432L38.53 205.621C38.7238 204.901 39.1953 204.287 39.8411 203.914C40.4869 203.541 41.2541 203.44 41.9746 203.632L40.0335 210.876Z" fill="white"/>
<path d="M58.6471 199.364L51.4026 197.423C51.2837 197.391 51.1597 197.383 51.0376 197.399C50.9155 197.415 50.7978 197.455 50.6912 197.517C50.5846 197.578 50.4912 197.66 50.4162 197.758C50.3413 197.856 50.2863 197.967 50.2544 198.086L47.3427 208.953C47.3108 209.072 47.3027 209.196 47.3188 209.318C47.3348 209.44 47.3748 209.557 47.4364 209.664C47.4979 209.771 47.5799 209.864 47.6775 209.939C47.7752 210.014 47.8867 210.069 48.0056 210.101L55.2501 212.042C55.369 212.074 55.493 212.082 55.6151 212.066C55.7371 212.05 55.8548 212.01 55.9615 211.948C56.0681 211.887 56.1615 211.805 56.2365 211.707C56.3114 211.609 56.3664 211.498 56.3983 211.379L59.31 200.512C59.3419 200.393 59.35 200.269 59.3339 200.147C59.3178 200.025 59.2779 199.908 59.2163 199.801C59.1548 199.694 59.0728 199.601 58.9751 199.526C58.8775 199.451 58.766 199.396 58.6471 199.364ZM57.2562 200.933L57.0136 201.838L51.5803 200.382L51.8229 199.477L57.2562 200.933ZM56.5283 203.649L56.2857 204.555L50.8523 203.099L51.095 202.193L56.5283 203.649ZM49.3965 208.532L50.367 204.91L55.8004 206.366L54.8298 209.988L49.3965 208.532Z" fill="white"/>
<path d="M59.3471 209.358C58.9508 209.778 58.6568 210.283 58.488 210.835C58.3191 211.387 58.28 211.97 58.3738 212.54C58.4675 213.109 58.6914 213.649 59.0282 214.118C59.365 214.587 59.8054 214.971 60.3153 215.241C60.2968 215.769 60.3898 216.294 60.5881 216.783C60.7863 217.271 61.0854 217.713 61.4659 218.078C61.8463 218.444 62.2996 218.725 62.796 218.903C63.2924 219.082 63.8209 219.153 64.3469 219.114C64.4326 219.959 64.7465 220.765 65.255 221.446C65.7635 222.127 66.4475 222.656 67.2338 222.978C68.0201 223.3 68.8792 223.403 69.7191 223.274C70.559 223.146 71.3483 222.791 72.0023 222.249C72.7198 222.636 73.5438 222.779 74.3498 222.656C75.1558 222.533 75.8997 222.151 76.4691 221.568C76.8917 221.762 77.3559 221.849 77.8202 221.82C78.2845 221.791 78.7345 221.648 79.1297 221.402C79.525 221.157 79.8532 220.817 80.0852 220.414C80.3171 220.011 80.4454 219.556 80.4586 219.091C80.9101 218.883 81.2984 218.559 81.5838 218.152C81.8692 217.745 82.0415 217.269 82.0831 216.774C82.1248 216.279 82.0342 215.781 81.8208 215.332C81.6073 214.883 81.2786 214.498 80.8681 214.218C80.8847 214.168 80.8999 214.117 80.9137 214.066C81.0202 213.671 81.039 213.257 80.9689 212.854C80.8987 212.451 80.7412 212.068 80.5075 211.732C80.7583 211.199 80.8797 210.613 80.862 210.024C80.8442 209.435 80.6878 208.858 80.4054 208.34C80.1229 207.822 79.7225 207.379 79.2365 207.045C78.7505 206.711 78.1926 206.496 77.6081 206.418C77.3796 205.532 76.8351 204.76 76.0771 204.248C75.3192 203.735 74.4001 203.517 73.4927 203.635C73.3026 203.099 72.955 202.633 72.4955 202.299C72.0359 201.964 71.4859 201.777 70.9178 201.76C70.7097 201.309 70.3855 200.921 69.9784 200.635C69.5713 200.35 69.0958 200.177 68.6003 200.136C68.1049 200.094 67.6073 200.185 67.1582 200.398C66.7092 200.612 66.3248 200.94 66.0443 201.351C65.994 201.334 65.9432 201.319 65.8919 201.305C65.1714 201.113 64.4041 201.215 63.7584 201.587C63.1126 201.96 62.6411 202.574 62.4473 203.294C62.4371 203.332 62.4277 203.37 62.4192 203.409C61.7249 203.402 61.0423 203.588 60.4476 203.946C59.8528 204.304 59.3691 204.82 59.0506 205.437C58.732 206.054 58.5911 206.747 58.6434 207.44C58.6958 208.132 58.9394 208.796 59.3471 209.358ZM62.8676 205.348C62.9207 205.362 62.9752 205.38 63.034 205.401C63.1959 205.461 63.3712 205.475 63.5405 205.441C63.7098 205.408 63.8666 205.328 63.9936 205.211C64.1206 205.094 64.2128 204.945 64.2601 204.779C64.3075 204.613 64.308 204.437 64.2618 204.271C64.2162 204.11 64.215 203.94 64.2584 203.779C64.323 203.539 64.4802 203.335 64.6954 203.21C64.9107 203.086 65.1665 203.052 65.4066 203.116C65.5694 203.16 65.7172 203.247 65.8338 203.369C65.9571 203.496 66.1138 203.585 66.2858 203.627C66.4578 203.668 66.6381 203.66 66.8058 203.604C66.9734 203.547 67.1217 203.445 67.2334 203.307C67.3451 203.17 67.4157 203.004 67.437 202.828C67.4417 202.784 67.4495 202.74 67.4604 202.696C67.5174 202.482 67.6484 202.296 67.83 202.169C68.0117 202.043 68.2323 201.984 68.4526 202.005C68.673 202.026 68.879 202.124 69.0339 202.282C69.1889 202.44 69.2829 202.648 69.2992 202.868C69.31 203.011 69.3534 203.15 69.426 203.273C69.4986 203.397 69.5985 203.502 69.7181 203.581C69.8377 203.66 69.9738 203.71 70.1159 203.728C70.258 203.746 70.4023 203.731 70.5378 203.685C70.69 203.633 70.853 203.621 71.0111 203.651C71.1692 203.68 71.317 203.749 71.4405 203.853C71.5639 203.956 71.6587 204.089 71.7158 204.239C71.7729 204.389 71.7903 204.552 71.7665 204.711C71.7406 204.881 71.7623 205.056 71.8292 205.215C71.8962 205.374 72.0057 205.512 72.1459 205.613C72.286 205.713 72.4512 205.773 72.6234 205.786C72.7955 205.799 72.9679 205.764 73.1214 205.686C73.4066 205.539 73.7245 205.469 74.0448 205.48C74.3651 205.492 74.6771 205.585 74.9509 205.752C75.2248 205.918 75.4514 206.152 75.6091 206.431C75.7669 206.71 75.8504 207.025 75.8519 207.345C75.8524 207.477 75.8807 207.608 75.9351 207.728C75.9894 207.848 76.0686 207.956 76.1673 208.043C76.266 208.131 76.3821 208.197 76.508 208.236C76.6339 208.276 76.7667 208.288 76.8978 208.273C77.264 208.231 77.6345 208.297 77.9631 208.465C78.2917 208.632 78.5637 208.892 78.7453 209.213C78.9269 209.533 79.0099 209.901 78.984 210.268C78.958 210.636 78.8243 210.988 78.5996 211.28C78.4477 211.477 78.3803 211.726 78.4121 211.973C78.4439 212.219 78.5723 212.443 78.7691 212.595C78.916 212.708 79.026 212.861 79.0854 213.037C79.1447 213.212 79.1507 213.401 79.1026 213.58C79.0591 213.743 78.9718 213.891 78.8502 214.007C78.7233 214.131 78.6339 214.287 78.5923 214.459C78.5506 214.631 78.5586 214.812 78.6151 214.979C78.6716 215.147 78.7744 215.295 78.9117 215.407C79.0489 215.519 79.215 215.589 79.3906 215.611C79.4352 215.615 79.4794 215.623 79.5228 215.634C79.7367 215.691 79.9234 215.822 80.0499 216.004C80.1764 216.185 80.2345 216.406 80.2138 216.626C80.1932 216.847 80.0951 217.053 79.9371 217.208C79.779 217.363 79.5712 217.457 79.3505 217.473C79.2076 217.484 79.0692 217.527 78.9457 217.6C78.8222 217.672 78.7171 217.772 78.6382 217.892C78.5594 218.011 78.5091 218.147 78.491 218.29C78.473 218.432 78.4877 218.576 78.5342 218.711C78.6041 218.915 78.6016 219.137 78.527 219.339C78.4525 219.541 78.3105 219.712 78.125 219.821C77.9395 219.931 77.7218 219.973 77.5087 219.941C77.2957 219.909 77.1002 219.804 76.9553 219.645C76.8543 219.534 76.7281 219.448 76.5872 219.396C76.4464 219.344 76.295 219.326 76.146 219.345C75.9969 219.363 75.8545 219.417 75.7307 219.503C75.6069 219.588 75.5053 219.701 75.4346 219.834C75.3003 220.084 75.1107 220.302 74.8802 220.468C74.6496 220.635 74.3841 220.747 74.1037 220.796C73.8234 220.845 73.5357 220.829 73.2623 220.75C72.9889 220.671 72.7371 220.531 72.5259 220.34C72.4322 220.256 72.3222 220.191 72.2027 220.149C72.0832 220.108 71.9566 220.092 71.8304 220.101C71.7043 220.11 71.5813 220.144 71.4689 220.202C71.3564 220.259 71.2568 220.339 71.1759 220.437C70.7753 220.92 70.2246 221.255 69.6114 221.389C68.9983 221.523 68.358 221.448 67.7924 221.175C67.2269 220.903 66.7685 220.45 66.4904 219.887C66.2123 219.325 66.1304 218.685 66.2577 218.071C66.2937 217.898 66.2801 217.718 66.2183 217.552C66.1566 217.387 66.0494 217.242 65.9089 217.135C65.7684 217.027 65.6005 216.962 65.4245 216.946C65.2484 216.93 65.0715 216.964 64.914 217.045C64.5911 217.209 64.2273 217.276 63.8669 217.239C63.5064 217.201 63.1647 217.059 62.8831 216.831C62.6014 216.603 62.3919 216.298 62.28 215.953C62.168 215.608 62.1584 215.239 62.2523 214.889C62.2841 214.77 62.2923 214.646 62.2762 214.524C62.2601 214.402 62.2202 214.284 62.1586 214.177C62.097 214.071 62.0151 213.977 61.9174 213.902C61.8197 213.827 61.7083 213.772 61.5893 213.74C61.1093 213.611 60.7002 213.297 60.4516 212.866C60.203 212.436 60.1354 211.924 60.2635 211.444C60.329 211.196 60.4453 210.964 60.6051 210.763C60.7648 210.562 60.9645 210.396 61.1915 210.276C61.3322 210.201 61.4513 210.091 61.5377 209.957C61.6241 209.823 61.6748 209.669 61.685 209.51C61.6953 209.35 61.6647 209.191 61.5962 209.047C61.5278 208.903 61.4237 208.779 61.2938 208.686C60.936 208.431 60.6791 208.058 60.5681 207.633C60.457 207.208 60.4988 206.757 60.6863 206.36C60.8737 205.962 61.1947 205.643 61.5934 205.458C61.9921 205.273 62.4431 205.234 62.8676 205.348Z" fill="white"/>
<path d="M74.3322 213.273C74.3966 213.033 74.5537 212.828 74.769 212.703C74.9843 212.579 75.2402 212.545 75.4804 212.61C75.7206 212.674 75.9253 212.831 76.0497 213.047C76.174 213.262 76.2077 213.518 76.1433 213.758L77.9544 214.243C78.1475 213.523 78.0464 212.755 77.6735 212.109C77.3005 211.463 76.6862 210.992 75.9657 210.799C75.2452 210.606 74.4775 210.707 73.8315 211.08C73.1855 211.453 72.7142 212.067 72.5211 212.787L74.3322 213.273Z" fill="white"/>
<path d="M67.3954 206.561C67.4888 206.586 67.5778 206.626 67.6591 206.678C67.1962 206.917 66.7883 207.25 66.4616 207.656C66.1349 208.062 65.8966 208.532 65.762 209.035L67.5731 209.52C67.7018 209.04 68.016 208.63 68.4467 208.382C68.8773 208.133 69.3891 208.066 69.8695 208.194C70.3498 208.323 70.7593 208.637 71.008 209.068C71.2566 209.499 71.324 210.011 71.1953 210.491L73.0064 210.976C73.149 210.446 73.1735 209.891 73.078 209.351C72.9825 208.811 72.7694 208.298 72.4539 207.849C72.1383 207.4 71.7279 207.026 71.2517 206.753C70.7756 206.48 70.2453 206.315 69.6984 206.27C69.453 205.748 69.0533 205.314 68.5534 205.027C68.0535 204.741 67.4775 204.614 66.9033 204.665C66.3292 204.716 65.7847 204.943 65.3434 205.314C64.9021 205.684 64.5854 206.182 64.4361 206.739L66.2472 207.224C66.3118 206.984 66.469 206.779 66.6843 206.655C66.8995 206.531 67.1553 206.497 67.3954 206.561Z" fill="white"/>
<path d="M70.2244 214.113C69.7213 213.979 69.1957 213.951 68.6812 214.031C68.3252 213.704 67.8909 213.474 67.4201 213.363C66.9493 213.253 66.4579 213.266 65.9936 213.401C65.5292 213.536 65.1076 213.789 64.7694 214.134C64.4312 214.48 64.1879 214.907 64.0631 215.374L65.8742 215.859C65.9386 215.619 66.0957 215.414 66.311 215.29C66.5263 215.166 66.7822 215.132 67.0224 215.197C67.2626 215.261 67.4673 215.418 67.5917 215.633C67.716 215.849 67.7497 216.105 67.6853 216.345L69.4964 216.83C69.5785 216.524 69.6081 216.206 69.5838 215.89C69.6358 215.9 69.6876 215.911 69.7391 215.924C70.2191 216.054 70.6283 216.368 70.8768 216.799C71.1254 217.229 71.193 217.741 71.0649 218.221L72.876 218.706C73.1322 217.745 72.997 216.722 72.4999 215.861C72.0028 215 71.1844 214.372 70.2244 214.113Z" fill="white"/>
</g>
<path d="M33.1247 95.4641V92.8125C33.1247 92.5639 33.0259 92.3254 32.8501 92.1496C32.6743 91.9738 32.4359 91.875 32.1872 91.875H29.5356C29.287 91.875 29.0485 91.9738 28.8727 92.1495L27.9875 93.0347L27.274 92.2024C27.186 92.0997 27.0768 92.0173 26.954 91.9608C26.8311 91.9043 26.6975 91.875 26.5622 91.875H21.8747C21.6261 91.875 21.3876 91.9738 21.2118 92.1495L16.5243 96.837C16.3934 96.968 16.3043 97.1346 16.2679 97.3161L15.3685 101.813C15.2766 101.859 15.1928 101.919 15.1203 101.991L9.23672 107.875L3.90807 108.763C3.81589 108.778 3.72653 108.807 3.64291 108.849L1.76791 109.786C1.6122 109.864 1.48125 109.984 1.38972 110.132C1.2982 110.28 1.24972 110.451 1.24972 110.625V116.25C-0.73872 116.252 -2.64507 117.043 -4.05111 118.449C-5.45715 119.855 -6.24804 121.762 -6.25028 123.75H-10.0003C-10.1495 123.75 -10.2966 123.786 -10.4293 123.854C-10.562 123.922 -10.6764 124.021 -10.7631 124.143L-15.4506 130.705C-15.5741 130.878 -15.6352 131.088 -15.6239 131.3C-15.6126 131.512 -15.5296 131.714 -15.3885 131.873L-14.1371 133.281C-15.3497 133.039 -16.6031 133.099 -17.7872 133.455C-18.9713 133.811 -20.0499 134.452 -20.9285 135.322C-22.3338 136.728 -23.123 138.636 -23.1226 140.624C-23.1221 142.613 -22.332 144.52 -20.9259 145.926C-19.5198 147.332 -17.613 148.122 -15.6245 148.122C-13.636 148.123 -11.7287 147.334 -10.322 145.928C-10.1462 145.752 -10.0474 145.514 -10.0474 145.265C-10.0474 145.017 -10.1462 144.778 -10.322 144.602L-12.9736 141.951C-13.1494 141.775 -13.3879 141.676 -13.6365 141.676C-13.8852 141.676 -14.1236 141.775 -14.2995 141.951C-14.5617 142.213 -14.8958 142.392 -15.2595 142.464C-15.6232 142.536 -16.0002 142.499 -16.3428 142.357C-16.6855 142.215 -16.9783 141.975 -17.1843 141.667C-17.3904 141.358 -17.5003 140.996 -17.5003 140.625C-17.5003 140.254 -17.3904 139.892 -17.1843 139.583C-16.9783 139.275 -16.6855 139.035 -16.3428 138.893C-16.0002 138.751 -15.6232 138.714 -15.2595 138.786C-14.8958 138.858 -14.5617 139.037 -14.2995 139.299L-12.9737 140.625C-12.7978 140.801 -12.5594 140.899 -12.3107 140.899C-12.0621 140.899 -11.8236 140.801 -11.6478 140.625L-9.50947 138.487L-7.8885 140.31C-7.7469 140.47 -7.55522 140.576 -7.34508 140.612C-7.13493 140.647 -6.91887 140.611 -6.73253 140.507L1.70496 135.82C1.87869 135.723 2.01727 135.574 2.10068 135.394C2.18409 135.213 2.20802 135.011 2.16903 134.816L1.45477 131.245C3.3709 131.19 5.19358 130.405 6.54904 129.049C7.9045 127.694 8.69002 125.871 8.74451 123.955L12.3158 124.669C12.4672 124.7 12.6236 124.692 12.7714 124.647C12.9191 124.603 13.0535 124.522 13.1627 124.413L18.7877 118.788C18.9268 118.649 19.0186 118.469 19.0501 118.275C19.0816 118.081 19.0512 117.882 18.9632 117.706L18.0154 115.81L23.8068 110.019C23.9116 109.914 23.9901 109.786 24.0357 109.645C24.0814 109.504 24.0929 109.354 24.0695 109.208L26.3783 109.669C26.5297 109.7 26.6861 109.692 26.8339 109.647C26.9816 109.603 27.116 109.522 27.2252 109.413L32.8502 103.788C33.026 103.612 33.1247 103.374 33.1247 103.125V99.375C33.1247 99.1512 33.0447 98.9348 32.899 98.7649L31.659 97.3182L32.8502 96.1271C33.026 95.9512 33.1247 95.7127 33.1247 95.4641ZM19.2327 111.941C17.7059 109.668 15.6227 107.823 13.1813 106.582L13.8766 105.887C16.2936 107.164 18.3637 109.01 19.9083 111.266L19.2327 111.941ZM-12.3107 138.636L-12.9736 137.973C-13.4696 137.477 -14.0947 137.131 -14.7779 136.972C-15.4612 136.814 -16.1752 136.85 -16.8388 137.077C-17.5024 137.304 -18.0891 137.713 -18.5322 138.256C-18.9752 138.8 -19.2569 139.457 -19.3452 140.153C-19.4336 140.849 -19.325 141.555 -19.0319 142.193C-18.7388 142.83 -18.2728 143.372 -17.687 143.758C-17.1012 144.143 -16.4189 144.357 -15.7177 144.374C-15.0166 144.392 -14.3246 144.212 -13.7204 143.856L-12.3657 145.21C-13.5154 146.026 -14.9296 146.381 -16.3283 146.204C-17.7269 146.026 -19.0081 145.331 -19.9181 144.254C-20.8282 143.177 -21.3008 141.798 -21.2424 140.389C-21.1839 138.981 -20.5988 137.645 -19.6027 136.647C-18.7429 135.796 -17.633 135.242 -16.4356 135.068C-15.2382 134.893 -14.0163 135.106 -12.9491 135.677C-12.8066 135.753 -12.6466 135.791 -12.4849 135.788C-12.3232 135.784 -12.1652 135.738 -12.0264 135.655L-10.7574 137.083L-12.3107 138.636ZM-1.51758 135.465L-5.5301 130.65L-6.97046 131.85L-3.18581 136.392L-6.98625 138.503L-13.4902 131.186L-12.6151 129.961L-10.6632 131.913L-9.33732 130.587L-11.5101 128.414L-9.5178 125.625H-6.59704L-0.543573 130.814L0.196173 134.513L-1.51758 135.465ZM1.24972 129.375C1.0383 129.375 0.827061 129.363 0.616974 129.339L-4.17833 125.229C-4.48767 124.094 -4.43339 122.89 -4.02314 121.788C-3.61288 120.685 -2.86729 119.739 -1.89125 119.082C-0.915211 118.425 0.242159 118.091 1.41805 118.127C2.59394 118.162 3.72917 118.565 4.66405 119.279C5.59892 119.993 6.2864 120.982 6.62977 122.108C6.97313 123.233 6.95511 124.437 6.57823 125.552C6.20135 126.666 5.48458 127.634 4.52875 128.32C3.57292 129.006 2.42614 129.375 1.24972 129.375ZM16.2497 118.674L13.1627 115.587L11.8368 116.913L14.9238 120L12.7565 122.167L12.4007 121.456C12.3556 121.366 12.2964 121.283 12.2252 121.212L9.41268 118.4L8.08677 119.725L10.7917 122.43L10.8039 122.455L8.54201 122.002C8.22231 120.679 7.54964 119.467 6.59565 118.496C5.64166 117.525 4.44209 116.831 3.12472 116.487V114.954L5.51791 116.151L6.35653 114.474L3.12472 112.858V111.204L4.35542 110.589L5.98986 110.317L8.95514 114.023L10.4193 112.852L8.10862 109.963L9.40947 109.747L15.4959 114.964L16.984 117.94L16.2497 118.674ZM17.0882 113.956C17.0323 113.844 16.9547 113.744 16.8598 113.663L11.066 108.697L11.777 107.986C14.284 109.125 16.404 110.971 17.877 113.297L17.1315 114.042L17.0882 113.956ZM21.2546 109.919C19.6735 107.7 17.6269 105.852 15.2577 104.505L15.9429 103.82C18.2889 105.199 20.3257 107.047 21.9263 109.248L21.2546 109.919ZM26.254 107.732L22.5383 106.989C21.0178 105.172 19.2102 103.616 17.1872 102.382V102.28L18.0508 97.9622L21.8747 94.1384L24.0243 96.288L25.3502 94.962L24.1381 93.75H26.131L31.2497 99.7218V102.737L28.1627 99.6495L26.8368 100.975L29.9239 104.063L28.4372 105.549L26.2877 103.4L24.9618 104.725L27.1113 106.875L26.254 107.732ZM29.2114 94.4626L29.9239 93.75H31.2497V95.0758L30.4351 95.8903L29.2114 94.4626Z" fill="white"/>
<path d="M20.6628 98.7119L19.3369 100.038L21.2119 101.913L22.5378 100.587L20.6628 98.7119Z" fill="white"/>
<g clip-path="url(#clip1)">
<path d="M99.5043 80.5673C99.0243 80.4381 98.6151 80.1238 98.3665 79.6933C98.118 79.2628 98.0503 78.7512 98.1785 78.2709L98.6637 76.4598L100.475 76.9451C101.436 77.2025 102.459 77.0678 103.32 76.5705C104.182 76.0732 104.81 75.2541 105.068 74.2934C105.325 73.3328 105.19 72.3092 104.693 71.4479C104.196 70.5866 103.377 69.9581 102.416 69.7007L73.4382 61.9361C72.4775 61.6787 71.454 61.8134 70.5926 62.3107C69.7313 62.808 69.1028 63.6271 68.8454 64.5877C68.588 65.5484 68.7228 66.572 69.22 67.4333C69.7173 68.2946 70.5364 68.9231 71.4971 69.1805L71.0118 70.9916C70.8826 71.4717 70.5682 71.8808 70.1377 72.1294C69.7072 72.3779 69.1957 72.4456 68.7154 72.3175C67.7548 72.0612 66.7317 72.1965 65.8707 72.6936C65.0097 73.1907 64.381 74.0091 64.1226 74.9691L54.4169 111.191C54.1606 112.152 54.2959 113.175 54.793 114.036C55.2901 114.897 56.1085 115.526 57.0685 115.784L87.8574 124.034C88.8181 124.29 89.8411 124.155 90.7021 123.658C91.5631 123.161 92.1918 122.342 92.4502 121.382L102.156 85.1601C102.412 84.1995 102.277 83.1764 101.78 82.3154C101.283 81.4544 100.464 80.8257 99.5043 80.5673ZM70.6565 65.073C70.7857 64.593 71.1001 64.1838 71.5306 63.9353C71.9611 63.6867 72.4726 63.6191 72.9529 63.7472L101.931 71.5118C102.411 71.6405 102.821 71.9547 103.069 72.3854C103.318 72.816 103.385 73.3278 103.257 73.8082C103.128 74.2885 102.814 74.698 102.383 74.9467C101.952 75.1953 101.44 75.2627 100.96 75.134L71.9824 67.3694C71.5023 67.2402 71.0932 66.9259 70.8446 66.4954C70.5961 66.0649 70.5284 65.5533 70.6565 65.073ZM95.4875 91.2129C95.0242 91.8498 94.5779 92.5031 94.1488 93.1727C94.3329 92.7619 94.4151 92.3127 94.3883 91.8633C94.3615 91.4139 94.2267 90.9776 93.9951 90.5915C94.3165 90.0025 94.6309 89.4135 94.9331 88.8339L95.4463 87.8488C95.8138 88.3307 96.0163 88.9181 96.0237 89.5241C96.0311 90.13 95.8431 90.7222 95.4875 91.2129ZM93.7228 93.85C93.3004 94.536 92.8976 95.2335 92.5146 95.9426C92.4478 96.0666 92.4098 96.204 92.4035 96.3447C92.3971 96.4853 92.4225 96.6256 92.4778 96.7552C92.5331 96.8847 92.6168 97.0001 92.7228 97.0928C92.8288 97.1855 92.9543 97.2531 93.0901 97.2906C93.329 97.3566 93.5321 97.5147 93.6548 97.7301C93.7775 97.9455 93.8098 98.2008 93.7446 98.44C93.6795 98.6792 93.5222 98.8828 93.3072 99.0063C93.0922 99.1297 92.8371 99.163 92.5977 99.0987C92.4889 99.0694 92.3865 99.0203 92.2956 98.9538C92.1815 98.8708 92.0501 98.8147 91.9113 98.7895C91.7724 98.7644 91.6297 98.7709 91.4937 98.8086C91.3578 98.8463 91.2321 98.9142 91.126 99.0073C91.0199 99.1003 90.9362 99.2161 90.8811 99.346C89.9873 101.455 89.2712 103.634 88.7403 105.862C88.7117 105.982 88.7071 106.107 88.7269 106.229C88.7467 106.351 88.7905 106.468 88.8557 106.573C88.9209 106.678 89.0063 106.769 89.1069 106.841C89.2075 106.913 89.3213 106.965 89.4418 106.992C89.4636 106.997 89.4851 107.002 89.5066 107.006L89.5168 107.008C89.7479 107.073 89.9457 107.223 90.0693 107.428C90.1929 107.634 90.2329 107.879 90.1812 108.113C90.1295 108.348 89.9899 108.553 89.7912 108.688C89.5926 108.822 89.3499 108.875 89.1133 108.836C88.9897 108.815 88.8632 108.819 88.7412 108.848C88.6193 108.877 88.5043 108.93 88.4032 109.004C88.3021 109.078 88.2169 109.172 88.1526 109.279C88.0883 109.387 88.0462 109.506 88.0288 109.63C87.8575 110.853 87.7396 112.088 87.6782 113.3L87.6594 113.666C87.6214 114.41 87.2893 115.109 86.7361 115.609C86.1829 116.109 85.4538 116.369 84.7091 116.331C84.5097 116.321 84.3119 116.291 84.1189 116.239C83.3944 116.042 82.7781 115.564 82.4056 114.912C82.3508 114.816 82.2794 114.73 82.1948 114.659C82.0586 114.544 81.9578 114.393 81.904 114.224C81.8503 114.054 81.8458 113.872 81.8912 113.7C81.9078 113.639 81.9303 113.579 81.9585 113.522C82.0133 113.41 82.0452 113.288 82.0522 113.163L82.0606 113.014C82.1032 112.174 82.1696 111.331 82.2573 110.499C82.7109 110.378 83.1272 110.146 83.4683 109.824C83.8093 109.502 84.0643 109.099 84.21 108.653C84.3557 108.207 84.3874 107.731 84.3024 107.27C84.2173 106.808 84.0181 106.375 83.7229 106.01C84.069 105.579 84.4104 105.146 84.7472 104.713C85.3374 104.992 86.0065 105.057 86.6396 104.897C87.2728 104.737 87.8306 104.362 88.2173 103.836C88.6041 103.31 88.7958 102.665 88.7595 102.013C88.7232 101.361 88.4612 100.742 88.0184 100.262C89.2455 98.4979 90.4279 96.6811 91.5444 94.8445C91.9582 94.8485 92.3678 94.7615 92.7443 94.5896C93.1207 94.4178 93.4547 94.1653 93.7228 93.85ZM94.8615 84.9133L93.2705 87.9673C92.8828 88.7104 92.4746 89.4701 92.057 90.225C91.957 90.4058 91.9195 90.6147 91.9505 90.8191C91.9814 91.0234 92.0791 91.2118 92.2282 91.355C92.3768 91.4974 92.4744 91.6848 92.5059 91.8882C92.5375 92.0917 92.5012 92.2998 92.4026 92.4806C92.3041 92.6613 92.1488 92.8046 91.9608 92.8883C91.7727 92.9721 91.5623 92.9916 91.362 92.9438C91.1592 92.8748 90.9389 92.8775 90.7377 92.9513C90.5366 93.0251 90.3669 93.1656 90.2568 93.3494C88.9151 95.5866 87.4709 97.799 85.9642 99.925C85.8844 100.038 85.8304 100.167 85.8062 100.303C85.782 100.439 85.7881 100.578 85.8241 100.711C85.8601 100.845 85.9251 100.969 86.0145 101.074C86.1039 101.179 86.2154 101.263 86.3411 101.321C86.4677 101.378 86.5798 101.464 86.6692 101.57C86.7586 101.677 86.8232 101.802 86.8582 101.937C86.8931 102.072 86.8976 102.212 86.8713 102.349C86.845 102.486 86.7886 102.615 86.7061 102.727C86.6236 102.839 86.5172 102.931 86.3946 102.997C86.2719 103.063 86.1362 103.101 85.9972 103.107C85.8582 103.114 85.7194 103.09 85.591 103.036C85.4626 102.982 85.3477 102.901 85.2548 102.797C85.1627 102.694 85.049 102.613 84.9219 102.559C84.7947 102.505 84.6572 102.48 84.5193 102.486C84.3813 102.491 84.2463 102.527 84.1238 102.591C84.0013 102.655 83.8944 102.745 83.8107 102.855C83.1307 103.747 82.4185 104.65 81.6941 105.536C81.6065 105.644 81.5437 105.769 81.5103 105.903C81.4769 106.038 81.4737 106.178 81.5009 106.314C81.5281 106.449 81.585 106.577 81.6676 106.689C81.7501 106.8 81.8563 106.891 81.9784 106.956C82.1018 107.022 82.2089 107.114 82.292 107.227C82.375 107.339 82.4318 107.469 82.4582 107.606C82.4847 107.743 82.48 107.885 82.4447 108.02C82.4093 108.155 82.3442 108.281 82.2539 108.388C82.1637 108.494 82.0508 108.58 81.9233 108.637C81.7959 108.695 81.6572 108.723 81.5175 108.72C81.3777 108.716 81.2405 108.682 81.1157 108.619C80.991 108.556 80.882 108.466 80.7967 108.355C80.7123 108.245 80.6045 108.155 80.4812 108.092C80.358 108.029 80.2222 107.994 80.0837 107.989C79.9453 107.985 79.8075 108.011 79.6804 108.066C79.5533 108.121 79.44 108.204 79.3487 108.308C78.5325 109.239 77.6943 110.162 76.8579 111.05C76.3983 111.538 75.8001 111.874 75.1439 112.012C74.4877 112.15 73.805 112.083 73.1878 111.821C72.5705 111.559 72.0484 111.115 71.6917 110.547C71.335 109.979 71.1608 109.316 71.1928 108.646C71.2011 108.464 71.1563 108.283 71.0637 108.126C70.9711 107.969 70.8347 107.843 70.6713 107.762C70.559 107.707 70.4588 107.63 70.3767 107.536C70.2946 107.441 70.2322 107.332 70.1932 107.213C70.1543 107.094 70.1395 106.969 70.1497 106.844C70.16 106.719 70.1951 106.598 70.253 106.487C70.3109 106.376 70.3904 106.278 70.4868 106.199C70.5833 106.119 70.6947 106.06 70.8144 106.024C70.9342 105.988 71.06 105.976 71.1843 105.99C71.3086 106.003 71.429 106.042 71.5383 106.102C71.7214 106.202 71.9324 106.237 72.1379 106.203C72.3434 106.169 72.5318 106.068 72.6733 105.915C74.4024 104.047 76.0855 102.076 77.6757 100.057C77.816 99.8787 77.887 99.6558 77.8755 99.4293C77.864 99.2028 77.7708 98.9882 77.6132 98.8252C77.5001 98.7096 77.4192 98.5665 77.3785 98.41C77.3377 98.2536 77.3385 98.0891 77.3808 97.9331C77.4455 97.6931 77.6026 97.4885 77.8179 97.3642C78.0331 97.2399 78.2889 97.2061 78.529 97.2702C78.5976 97.2889 78.6637 97.3156 78.7261 97.3497C78.9259 97.4579 79.1583 97.4899 79.3799 97.4397C79.6016 97.3894 79.7974 97.2604 79.9311 97.0766C81.0473 95.5404 82.1295 93.95 83.1566 92.345C83.5718 92.2492 83.9599 92.0603 84.2914 91.7926C84.6229 91.5248 84.8893 91.1852 85.0703 90.7994C85.2513 90.4136 85.3423 89.9918 85.3363 89.5656C85.3304 89.1395 85.2277 88.7204 85.036 88.3398C86.7307 86.1312 88.2101 83.7654 89.4537 81.2748C89.9755 80.6597 90.7058 80.2585 91.5048 80.1479C92.3039 80.0373 93.1156 80.2251 93.7849 80.6755C94.4542 81.1258 94.934 81.8069 95.1326 82.5888C95.3312 83.3706 95.2347 84.1982 94.8615 84.9133L94.8615 84.9133ZM63.6161 101.203C63.6066 99.376 63.7603 97.5513 64.0752 95.7512L64.1406 95.3772L63.9275 95.0631C63.8559 94.9576 63.8065 94.8385 63.7824 94.7132C63.7584 94.5879 63.7601 94.459 63.7875 94.3344C63.8149 94.2098 63.8675 94.0921 63.9419 93.9885C64.0164 93.8849 64.1112 93.7976 64.2205 93.7318L64.5446 93.5362L64.642 93.1704C64.8548 92.3715 65.1015 91.5764 65.3752 90.8075C65.572 90.2549 65.7847 89.7087 66.0134 89.169C66.1969 89.4924 66.443 89.7761 66.7373 90.0035C67.0315 90.2309 67.3681 90.3975 67.7274 90.4936L68.2127 88.6825C67.9725 88.6181 67.7677 88.461 67.6434 88.2457C67.5191 88.0303 67.4854 87.7744 67.5498 87.5343C67.6141 87.2941 67.7712 87.0893 67.9866 86.965C68.2019 86.8407 68.4578 86.807 68.698 86.8714L69.1833 85.0603C68.8592 84.9732 68.5221 84.9451 68.1881 84.9774C68.7153 84.1294 69.285 83.3055 69.8973 82.5054L70.4282 81.8123L69.7745 81.2335C69.6165 81.0934 69.5104 80.9041 69.4735 80.6962C69.4366 80.4883 69.4709 80.274 69.571 80.088C69.671 79.9021 69.831 79.7554 70.0248 79.6717C70.2187 79.588 70.4352 79.5722 70.6391 79.6269C70.7718 79.6618 70.8949 79.7259 70.9996 79.8146L71.6704 80.3842L72.2813 79.7507C72.3901 79.6378 72.5009 79.5265 72.6139 79.415C72.9651 79.0666 73.3906 78.802 73.8585 78.6413C74.3265 78.4806 74.8247 78.4277 75.3159 78.4868C75.8071 78.5459 76.2786 78.7153 76.6951 78.9824C77.1115 79.2495 77.4622 79.6074 77.7207 80.0292C77.2551 80.1716 76.8345 80.4326 76.5003 80.7867C76.166 81.1408 75.9296 81.5758 75.8143 82.0488C75.699 82.5219 75.7088 83.0168 75.8426 83.485C75.9764 83.9532 76.2297 84.3785 76.5776 84.7192C75.8353 85.7091 75.0455 86.6703 74.2203 87.5884C73.6625 87.6566 73.1377 87.8894 72.7129 88.2571C72.288 88.6248 71.9823 89.1108 71.8349 89.653C71.7948 89.8029 71.7673 89.9558 71.7528 90.1103C71.6267 90.229 71.5088 90.3388 71.3964 90.4418C70.6768 91.1002 70.218 91.9955 70.1039 92.9641C69.9898 93.9328 70.228 94.9102 70.775 95.7178C70.5802 96.5716 70.4325 97.4356 70.3328 98.3056L70.2754 98.8116L70.6686 99.1352C70.7812 99.2282 70.8704 99.3462 70.9292 99.4798C70.9881 99.6134 71.0149 99.7589 71.0075 99.9047C71.0002 100.051 70.9589 100.193 70.8869 100.32C70.8149 100.447 70.7142 100.555 70.5929 100.636L70.1719 100.92L70.18 101.428C70.191 102.121 70.2336 102.824 70.306 103.513L70.3099 103.552C70.3337 103.775 70.3346 103.999 70.3126 104.222C69.7226 104.39 69.204 104.747 68.8366 105.238C68.4692 105.729 68.2734 106.328 68.2792 106.941C67.8322 107.122 67.3507 107.203 66.869 107.177C66.3873 107.151 65.9173 107.019 65.4925 106.79C65.0677 106.562 64.6985 106.242 64.4113 105.855C64.1241 105.467 63.926 105.021 63.831 104.548L63.7189 103.986L63.1677 103.829C62.9819 103.776 62.817 103.667 62.6956 103.517C62.5742 103.367 62.5022 103.183 62.4895 102.99C62.4768 102.797 62.524 102.605 62.6246 102.44C62.7252 102.275 62.8744 102.146 63.0516 102.069L63.6195 101.822L63.6161 101.203ZM75.7752 99.4357C74.6233 100.877 73.4235 102.287 72.197 103.651C72.1922 103.554 72.1854 103.458 72.1751 103.362L72.1715 103.324C72.1197 102.831 72.0844 102.333 72.0664 101.839C72.5565 101.346 72.8466 100.689 72.8805 99.9944C72.9143 99.2999 72.6897 98.6175 72.2499 98.079C72.2929 97.7581 72.345 97.438 72.4022 97.1189C72.6217 97.2228 72.8501 97.3068 73.0846 97.3698C73.2452 97.4128 73.4082 97.4461 73.5728 97.4694C74.2708 97.5706 74.9832 97.4873 75.6391 97.2279C75.6134 97.2997 75.5898 97.3728 75.5697 97.4478C75.3935 98.1133 75.4665 98.8203 75.7752 99.4358L75.7752 99.4357ZM78.2738 95.3631C78.7777 94.9449 79.2725 94.5147 79.7584 94.0727C79.4479 94.5229 79.1346 94.9699 78.8183 95.4139C78.6389 95.3792 78.4565 95.3622 78.2738 95.3631ZM89.2118 77.2325C89.0229 77.7071 88.8254 78.1777 88.6194 78.6443C88.443 78.285 88.1918 77.9675 87.8825 77.7133C87.5733 77.459 87.2132 77.2739 86.8265 77.1703L86.3412 78.9814C86.5814 79.0458 86.7862 79.2029 86.9105 79.4182C87.0348 79.6336 87.0685 79.8895 87.0041 80.1296C86.9398 80.3698 86.7826 80.5746 86.5673 80.6989C86.352 80.8232 86.0961 80.8569 85.8559 80.7925L85.3706 82.6037C85.766 82.7099 86.1798 82.728 86.583 82.6566C85.5604 84.4277 84.4092 86.1213 83.1386 87.7237C82.9977 87.9015 82.926 88.1242 82.9368 88.3507C82.9475 88.5773 83.0401 88.7922 83.1972 88.9558C83.3608 89.1236 83.4555 89.3467 83.4624 89.5809C83.4694 89.8152 83.3882 90.0435 83.2348 90.2208C83.0814 90.398 82.8671 90.5112 82.6343 90.5379C82.4014 90.5646 82.1671 90.503 81.9775 90.3651C81.7933 90.2324 81.5672 90.171 81.3411 90.1924C81.1151 90.2137 80.9044 90.3164 80.7483 90.4813C79.2208 92.0953 77.5672 93.5852 75.8032 94.9368L75.481 95.1834C75.0323 95.5269 74.4683 95.684 73.9066 95.622C73.3449 95.5601 72.8287 95.2838 72.4656 94.8508C72.1025 94.4178 71.9205 93.8614 71.9574 93.2975C71.9943 92.7336 72.2473 92.2056 72.6638 91.8236C72.8658 91.6384 73.0841 91.4334 73.3312 91.197C73.4312 91.1014 73.5088 90.9848 73.5584 90.8557C73.608 90.7265 73.6284 90.588 73.6182 90.45C73.6076 90.3173 73.6256 90.1838 73.6709 90.0586C73.7162 89.9334 73.7878 89.8194 73.8808 89.7242C73.9739 89.629 74.0862 89.5548 74.2103 89.5066C74.3345 89.4584 74.4675 89.4374 74.6004 89.4449C74.7387 89.4524 74.877 89.4291 75.0053 89.3767C75.1336 89.3244 75.2487 89.2442 75.3423 89.142C76.5361 87.8382 77.6498 86.4632 78.6774 85.0248C78.7616 84.9067 78.8174 84.7708 78.8402 84.6276C78.863 84.4844 78.8523 84.3379 78.8089 84.1996C78.7656 84.0612 78.6907 83.9348 78.5902 83.8303C78.4898 83.7258 78.3664 83.646 78.2299 83.5971C78.0022 83.5156 77.8149 83.3491 77.7072 83.1326C77.5995 82.9161 77.5797 82.6663 77.6519 82.4355C77.7242 82.2047 77.8829 82.0108 78.0948 81.8943C78.3068 81.7779 78.5556 81.7479 78.7891 81.8107C78.9555 81.8551 79.1061 81.9452 79.2239 82.0709C79.3237 82.1761 79.4465 82.2567 79.5828 82.3064C79.719 82.356 79.8649 82.3734 80.009 82.3572C80.153 82.3409 80.2914 82.2915 80.4131 82.2127C80.5349 82.1339 80.6367 82.028 80.7106 81.9032C81.5926 80.4128 82.3853 78.8713 83.0846 77.2869C83.1392 77.1632 83.1664 77.0291 83.1643 76.8938C83.1622 76.7586 83.1309 76.6254 83.0724 76.5034C83.014 76.3815 82.9299 76.2736 82.8258 76.1872C82.7218 76.1008 82.6003 76.0379 82.4696 76.0029L82.2987 75.9571C82.0586 75.8928 81.8538 75.7356 81.7295 75.5203C81.6051 75.305 81.5715 75.0491 81.6358 74.8089C81.7002 74.5687 81.8573 74.364 82.0726 74.2396C82.2879 74.1153 82.5438 74.0816 82.784 74.146L83.4481 74.3239C83.6676 74.3828 83.9009 74.3599 84.1047 74.2596C84.3086 74.1592 84.4691 73.9883 84.5563 73.7786L84.9677 72.79L90.401 74.2458L89.2118 77.2325ZM90.6391 120.897C90.5099 121.377 90.1956 121.786 89.765 122.035C89.3345 122.283 88.823 122.351 88.3427 122.223L57.5538 113.973C57.0738 113.844 56.6646 113.529 56.4161 113.099C56.1675 112.668 56.0999 112.157 56.228 111.677L65.9337 75.4544C66.0629 74.9744 66.3773 74.5652 66.8078 74.3167C67.2383 74.0681 67.7498 74.0005 68.2301 74.1286C69.1907 74.3848 70.2138 74.2495 71.0748 73.7524C71.9358 73.2553 72.5645 72.437 72.8229 71.4769L73.3082 69.6658L83.1406 72.3004L83.1394 72.3033C82.4994 72.1641 81.8309 72.2526 81.2491 72.5535C80.6674 72.8545 80.2089 73.349 79.9528 73.9518C79.6967 74.5546 79.659 75.2279 79.8461 75.8555C80.0333 76.4832 80.4337 77.0258 80.9781 77.3898C80.5866 78.225 80.165 79.049 79.7194 79.8563C79.4146 79.0793 78.9254 78.388 78.2941 77.842C77.6629 77.2959 76.9083 76.9114 76.0955 76.7217C75.2827 76.5319 74.4359 76.5425 73.6281 76.7526C72.8203 76.9626 72.0756 77.3658 71.4582 77.9275C71.3493 77.8835 71.2378 77.8462 71.1244 77.8158C70.5856 77.6718 70.0162 77.6911 69.4884 77.8713C68.9606 78.0515 68.4982 78.3845 68.16 78.828C67.8218 79.2714 67.6229 79.8054 67.5887 80.3621C67.5545 80.9187 67.6865 81.473 67.9679 81.9545C66.125 84.4708 64.6567 87.241 63.6087 90.1786C63.3553 90.8906 63.1238 91.6233 62.919 92.361C62.4309 92.7619 62.0918 93.3152 61.9562 93.9321C61.8206 94.549 61.8965 95.1936 62.1716 95.7621C61.905 97.3861 61.7616 99.0279 61.7426 100.673C61.235 101.051 60.8704 101.589 60.7082 102.201C60.5458 102.818 60.5969 103.472 60.8533 104.056C61.1097 104.64 61.5562 105.121 62.1202 105.419C62.3803 106.251 62.8458 107.005 63.4738 107.61C64.1017 108.215 64.8719 108.652 65.7133 108.881C66.7723 109.164 67.8937 109.102 68.9152 108.705C69.0369 108.854 69.1738 108.991 69.3237 109.112C69.3842 110.117 69.7375 111.082 70.3398 111.888C70.9421 112.694 71.7673 113.306 72.7134 113.649C73.6595 113.992 74.6853 114.05 75.6642 113.817C76.6431 113.584 77.5323 113.069 78.2222 112.336C78.8682 111.65 79.5147 110.944 80.1516 110.231C80.2279 110.274 80.307 110.312 80.3874 110.348C80.2995 111.19 80.2329 112.042 80.1896 112.888C79.9781 113.411 79.9287 113.985 80.0479 114.536C80.1671 115.087 80.4494 115.589 80.8581 115.978C81.4789 116.981 82.4531 117.716 83.5887 118.037L59.1873 111.499L58.702 113.31L87.6798 121.075L88.1651 119.264L83.6749 118.06C83.9818 118.139 84.2958 118.187 84.6122 118.204C85.8537 118.267 87.0694 117.835 87.9919 117.002C88.9145 116.168 89.4684 115.003 89.5319 113.762L89.5508 113.396C89.5963 112.498 89.6742 111.587 89.7831 110.679C90.3398 110.574 90.852 110.304 91.2527 109.904C91.6534 109.503 91.9239 108.991 92.029 108.435C92.1341 107.878 92.0688 107.303 91.8417 106.784C91.6145 106.265 91.2361 105.826 90.7559 105.526C91.1605 103.969 91.6603 102.439 92.2525 100.944C92.8696 101.076 93.5131 100.996 94.0797 100.718C94.6462 100.44 95.1027 99.9799 95.3757 99.411C95.6487 98.842 95.7224 98.1978 95.5848 97.5819C95.4472 96.966 95.1064 96.4144 94.6172 96.0157C95.3436 94.7391 96.1404 93.5039 97.0039 92.3157C97.6815 91.3805 97.9908 90.2285 97.8727 89.0796C97.7546 87.9308 97.2174 86.8658 96.3636 86.088L96.5241 85.78C96.9813 84.9045 97.1772 83.9159 97.0884 82.9321C96.9996 81.9483 96.63 81.0108 96.0234 80.2312C95.4169 79.4516 94.599 78.8627 93.6673 78.5348C92.7355 78.2069 91.7291 78.1537 90.768 78.3815C90.8304 78.2299 90.8932 78.0785 90.9539 77.9261L92.2246 74.7344L96.8526 75.9745L96.3673 77.7856C96.1111 78.7463 96.2464 79.7693 96.7435 80.6303C97.2406 81.4913 98.0589 82.12 99.019 82.3784C99.499 82.5076 99.9082 82.822 100.157 83.2525C100.405 83.683 100.473 84.1945 100.345 84.6748L90.6391 120.897Z" fill="white"/>
</g>
</g>
<defs>
<clipPath id="clip0">
<rect width="60" height="60" fill="white" transform="translate(37.5293 184) rotate(15)"/>
</clipPath>
<clipPath id="clip1">
<rect width="60" height="60" fill="white" transform="translate(58.5293 56) rotate(15)"/>
</clipPath>
</defs>
</svg>
