<svg width="100" height="40" viewBox="0 0 100 40" fill="none" xmlns="http://www.w3.org/2000/svg">
<path d="M76.0725 31.5351C76.073 31.6428 76.0519 31.7495 76.0105 31.8491C75.9691 31.9487 75.9081 32.0392 75.8312 32.1153C75.7542 32.1914 75.6627 32.2517 75.562 32.2927C75.4613 32.3337 75.3534 32.3545 75.2446 32.354H72.4516C72.0526 32.2987 71.7434 32.0639 71.7434 31.6476C71.7434 31.2312 72.0386 31.028 72.4376 30.9649H74.2331C74.1294 30.6728 74.1333 30.5604 73.6645 30.1519C73.6341 30.1258 73.6006 30.1032 73.5648 30.0848C73.5304 30.0624 73.4944 30.0427 73.4571 30.0256C73.1866 29.8798 72.8833 29.8038 72.5753 29.8046C72.1803 29.8072 71.7963 29.9331 71.478 30.1644C71.1598 30.3958 70.9236 30.7207 70.8032 31.0927C70.6828 31.4648 70.6844 31.8649 70.8078 32.236C70.9311 32.6071 71.1699 32.9302 71.49 33.159C71.522 33.1832 71.5553 33.2056 71.5898 33.2261C71.6197 33.2458 71.6516 33.2616 71.6815 33.2794C71.7115 33.2971 71.6915 33.2794 71.6975 33.2794C71.9671 33.4233 72.2689 33.4979 72.5753 33.4964C72.6749 33.4976 72.7744 33.4897 72.8725 33.4728H73.6147C73.833 33.4733 74.0423 33.5593 74.1967 33.712C74.3511 33.8647 74.4381 34.0717 74.4386 34.2877C74.4412 34.3963 74.4219 34.5044 74.3817 34.6056C74.3415 34.7067 74.2812 34.7989 74.2044 34.8767C74.1276 34.9545 74.0359 35.0163 73.9346 35.0585C73.8333 35.1006 73.7246 35.1223 73.6147 35.1223H72.3818C71.4911 35.0817 70.6528 34.6945 70.0496 34.045C69.4324 33.3986 69.0896 32.5426 69.0921 31.6535C69.0951 30.9713 69.3025 30.3052 69.688 29.7394C70.0734 29.1736 70.6197 28.7335 71.2578 28.4745C71.8959 28.2155 72.5974 28.1492 73.2735 28.2841C73.9497 28.419 74.5703 28.749 75.057 29.2324C75.7293 29.8915 76.0725 30.584 76.0725 31.5351Z" fill="black"/>
<path d="M17.5319 9.05285L11.2158 22.3244C11.0484 22.6748 10.7838 22.9709 10.4529 23.1784C10.122 23.3859 9.7383 23.4962 9.34648 23.4964H8.37892C7.9871 23.4962 7.60341 23.3859 7.27248 23.1784C6.94156 22.9709 6.67701 22.6748 6.50963 22.3244L0.199532 9.05285C0.0513831 8.74137 -0.0148396 8.39793 0.00700547 8.05438C0.0288506 7.71083 0.138056 7.3783 0.324494 7.08763C0.510932 6.79696 0.768564 6.55756 1.0735 6.39163C1.37843 6.22571 1.72079 6.13864 2.06882 6.13849C2.46199 6.13953 2.84669 6.25148 3.17779 6.46118C3.50889 6.67088 3.77265 6.96963 3.93811 7.32239L8.43677 16.7719C8.4753 16.8521 8.53605 16.9199 8.61197 16.9674C8.68789 17.0149 8.77587 17.0401 8.86569 17.0401C8.95552 17.0401 9.0435 17.0149 9.11942 16.9674C9.19534 16.9199 9.25609 16.8521 9.29461 16.7719L13.7933 7.30068C13.9587 6.94793 14.2225 6.64917 14.5536 6.43947C14.8847 6.22977 15.2694 6.11783 15.6626 6.11678C16.0135 6.11517 16.3592 6.20199 16.6668 6.36906C16.9745 6.53612 17.2341 6.77793 17.4211 7.07169C17.6081 7.36545 17.7164 7.70147 17.7358 8.04809C17.7552 8.3947 17.685 8.74049 17.5319 9.05285Z" fill="black"/>
<path d="M23.1698 0C23.7174 0 24.2426 0.215162 24.6298 0.598154C25.017 0.981146 25.2346 1.50059 25.2346 2.04223C25.2348 2.31058 25.1816 2.57636 25.078 2.82436C24.9743 3.07236 24.8223 3.29773 24.6305 3.48757C24.4388 3.67742 24.211 3.82803 23.9604 3.93078C23.7098 4.03354 23.4411 4.08642 23.1698 4.08642C22.8985 4.08642 22.6298 4.03354 22.3792 3.93078C22.1285 3.82803 21.9008 3.67742 21.709 3.48757C21.5173 3.29773 21.3652 3.07236 21.2616 2.82436C21.1579 2.57636 21.1047 2.31058 21.105 2.04223C21.105 1.50059 21.3225 0.981146 21.7097 0.598154C22.097 0.215162 22.6222 0 23.1698 0V0ZM23.1698 6.13852C23.7174 6.13852 24.2426 6.35368 24.6298 6.73667C25.017 7.11966 25.2346 7.63911 25.2346 8.18074V21.4542C25.2346 21.9959 25.017 22.5153 24.6298 22.8983C24.2426 23.2813 23.7174 23.4964 23.1698 23.4964C22.6222 23.4964 22.097 23.2813 21.7097 22.8983C21.3225 22.5153 21.105 21.9959 21.105 21.4542V8.18074C21.105 7.63911 21.3225 7.11966 21.7097 6.73667C22.097 6.35368 22.6222 6.13852 23.1698 6.13852Z" fill="black"/>
<path d="M42.5988 26.5351C42.9204 26.5328 43.2381 26.6049 43.5265 26.7456C43.8149 26.8863 44.066 27.0918 44.2598 27.3456C44.4537 27.5995 44.5848 27.8946 44.6428 28.2074C44.7008 28.5203 44.684 28.8422 44.5938 29.1476C44.1719 30.4865 43.4174 31.6995 42.3993 32.6756C41.5877 33.4841 40.6223 34.1257 39.5589 34.5636C38.4954 35.0015 37.3548 35.2269 36.2029 35.2269C35.051 35.2269 33.9104 35.0015 32.847 34.5636C31.7835 34.1257 30.8182 33.4841 30.0065 32.6756C28.9879 31.6999 28.2333 30.4868 27.8121 29.1476C27.7219 28.8422 27.7051 28.5203 27.7631 28.2074C27.821 27.8946 27.9522 27.5995 28.146 27.3456C28.3398 27.0918 28.591 26.8863 28.8794 26.7456C29.1678 26.6049 29.4854 26.5328 29.807 26.5351C30.2482 26.5365 30.6775 26.6769 31.0326 26.9359C31.3878 27.1949 31.6502 27.559 31.7821 27.9755C32.0096 28.6644 32.3994 29.2899 32.9192 29.8007C33.7944 30.66 34.9776 31.1423 36.2109 31.1423C37.4441 31.1423 38.6274 30.66 39.5026 29.8007C40.0224 29.2899 40.4122 28.6644 40.6397 27.9755C40.7716 27.559 41.034 27.1949 41.3892 26.9359C41.7443 26.6769 42.1735 26.5365 42.6148 26.5351H42.5988Z" fill="#F67C6D"/>
<path d="M55.941 23.4964C54.7848 23.516 53.6369 23.2996 52.569 22.8606C51.5011 22.4216 50.5363 21.7696 49.7347 20.9451C48.9002 20.1514 48.2403 19.1958 47.7964 18.1382C47.3526 17.0805 47.1343 15.9437 47.1552 14.7987C47.1365 13.6585 47.3559 12.5267 47.7998 11.4742C48.2436 10.4217 48.9023 9.47109 49.7347 8.68193C50.5461 7.87349 51.5113 7.23186 52.5746 6.79401C53.6379 6.35616 54.7783 6.13074 55.9301 6.13074C57.0818 6.13074 58.2222 6.35616 59.2855 6.79401C60.3488 7.23186 61.314 7.87349 62.1255 8.68193C62.9578 9.47109 63.6165 10.4217 64.0603 11.4742C64.5042 12.5267 64.7236 13.6585 64.705 14.7987C64.7248 15.9424 64.5059 17.0777 64.0621 18.1339C63.6182 19.1901 62.959 20.1444 62.1255 20.9373C61.3283 21.7619 60.3675 22.4149 59.3033 22.8553C58.2391 23.2956 57.0945 23.5139 55.941 23.4964ZM55.941 10.2249C55.3312 10.221 54.7267 10.3365 54.1622 10.5646C53.5977 10.7927 53.0844 11.129 52.6518 11.5541C52.2192 11.9792 51.8759 12.4847 51.6416 13.0416C51.4074 13.5984 51.2868 14.1956 51.2868 14.7987C51.2863 15.554 51.4742 16.2978 51.8338 16.9641C52.1934 17.6305 52.7135 18.1988 53.3481 18.6189C53.9828 19.0389 54.7124 19.2977 55.4723 19.3723C56.2322 19.4469 56.999 19.3351 57.7048 19.0466C58.4105 18.7582 59.0335 18.302 59.5185 17.7186C60.0035 17.1352 60.3355 16.4425 60.4852 15.7019C60.6349 14.9612 60.5977 14.1955 60.3768 13.4725C60.1559 12.7495 59.7581 12.0915 59.2188 11.5568C58.7916 11.1275 58.281 10.7881 57.7177 10.5592C57.1544 10.3303 56.55 10.2166 55.941 10.2249Z" fill="#F67C6D"/>
<path d="M68.9564 19.4121C69.5041 19.4121 70.0292 19.6272 70.4165 20.0102C70.8037 20.3932 71.0212 20.9127 71.0212 21.4543C71.0212 21.9959 70.8037 22.5154 70.4165 22.8984C70.0292 23.2814 69.5041 23.4965 68.9564 23.4965C68.6851 23.4968 68.4164 23.4442 68.1657 23.3416C67.9149 23.2391 67.6871 23.0887 67.4951 22.8991C67.3032 22.7094 67.1509 22.4842 67.047 22.2363C66.9431 21.9884 66.8896 21.7227 66.8896 21.4543C66.8896 21.186 66.9431 20.9202 67.047 20.6723C67.1509 20.4244 67.3032 20.1992 67.4951 20.0095C67.6871 19.8199 67.9149 19.6695 68.1657 19.567C68.4164 19.4645 68.6851 19.4118 68.9564 19.4121Z" fill="black"/>
<path d="M48.6775 31.4581C48.7196 30.6017 49.0932 29.7942 49.7209 29.2028C50.4002 28.5592 51.3078 28.2049 52.2485 28.2162H53.1941C53.4121 28.2162 53.6212 28.3019 53.7753 28.4543C53.9294 28.6068 54.016 28.8136 54.016 29.0292C54.0163 29.1361 53.9952 29.242 53.954 29.3409C53.9129 29.4397 53.8524 29.5296 53.776 29.6053C53.6997 29.681 53.609 29.741 53.5091 29.782C53.4093 29.823 53.3022 29.8441 53.1941 29.8441H52.1707C51.9278 29.8441 51.6873 29.8914 51.463 29.9833C51.2386 30.0753 51.0347 30.21 50.863 30.3798C50.6913 30.5497 50.5551 30.7513 50.4621 30.9732C50.3692 31.1952 50.3213 31.433 50.3213 31.6732C50.3213 31.9134 50.3692 32.1513 50.4621 32.3732C50.5551 32.5951 50.6913 32.7968 50.863 32.9666C51.0347 33.1365 51.2386 33.2712 51.463 33.3631C51.6873 33.455 51.9278 33.5023 52.1707 33.5023H53.1941C53.3022 33.5023 53.4093 33.5234 53.5091 33.5644C53.609 33.6054 53.6997 33.6654 53.776 33.7411C53.8524 33.8168 53.9129 33.9067 53.954 34.0056C53.9952 34.1044 54.0163 34.2103 54.016 34.3173C54.0163 34.4241 53.9952 34.5299 53.954 34.6287C53.9128 34.7274 53.8523 34.8171 53.7759 34.8927C53.6995 34.9682 53.6088 35.0281 53.509 35.0688C53.4091 35.1096 53.3021 35.1305 53.1941 35.1302H52.2485C51.3081 35.1398 50.4012 34.7858 49.7209 34.1436C49.0871 33.5459 48.713 32.728 48.6775 31.8626V31.468V31.4581Z" fill="black"/>
<path d="M58.3871 28.2025C59.2773 28.205 60.133 28.5431 60.7799 29.1481C61.4267 29.753 61.816 30.5792 61.8683 31.4582H61.8783V34.5916C61.8788 34.6611 61.8654 34.73 61.8389 34.7944C61.8123 34.8588 61.7732 34.9173 61.7237 34.9666C61.6742 35.016 61.6153 35.0551 61.5504 35.0819C61.4855 35.1086 61.4159 35.1223 61.3456 35.1223H60.7631C60.6934 35.1223 60.6244 35.1088 60.56 35.0824C60.4956 35.056 60.4371 35.0174 60.3878 34.9686C60.3386 34.9199 60.2995 34.862 60.2728 34.7983C60.2461 34.7347 60.2324 34.6664 60.2324 34.5975C59.6813 34.9446 59.0405 35.1269 58.3871 35.1223C57.49 35.0799 56.6439 34.6976 56.0242 34.0547C55.4045 33.4117 55.0588 32.5576 55.0588 31.6693C55.0588 30.781 55.4045 29.9269 56.0242 29.2839C56.6439 28.641 57.49 28.2587 58.3871 28.2163V28.2025ZM58.3871 33.4886C58.8131 33.4857 59.2249 33.337 59.5526 33.0678C59.8803 32.7985 60.1035 32.4253 60.1844 32.0116C60.2653 31.5979 60.1988 31.1693 59.9963 30.7986C59.7938 30.4279 59.4677 30.1381 59.0735 29.9783C58.6793 29.8186 58.2413 29.7988 57.834 29.9224C57.4267 30.0459 57.0753 30.3052 56.8395 30.6561C56.6036 31.007 56.498 31.4279 56.5404 31.8471C56.5829 32.2664 56.7709 32.6581 57.0724 32.9558C57.2433 33.1284 57.4481 33.2647 57.6742 33.3563C57.9002 33.4479 58.1428 33.4929 58.3871 33.4886Z" fill="black"/>
<path d="M66.247 26.5706V28.2024H67.2704C67.4884 28.2024 67.6975 28.2881 67.8516 28.4406C68.0058 28.593 68.0924 28.7998 68.0924 29.0154C68.0926 29.1223 68.0715 29.2282 68.0304 29.3271C67.9892 29.426 67.9287 29.5158 67.8523 29.5915C67.776 29.6672 67.6853 29.7273 67.5854 29.7682C67.4856 29.8092 67.3785 29.8303 67.2704 29.8303H66.247V34.3035C66.2481 34.41 66.2279 34.5156 66.1877 34.6144C66.1474 34.7132 66.0879 34.8032 66.0125 34.8792C65.9371 34.9553 65.8473 35.0159 65.7482 35.0576C65.6492 35.0993 65.5427 35.1213 65.4351 35.1223C65.327 35.1226 65.2199 35.1018 65.1199 35.061C65.02 35.0203 64.9291 34.9604 64.8526 34.8849C64.776 34.8094 64.7153 34.7197 64.6739 34.621C64.6325 34.5222 64.6111 34.4163 64.6111 34.3094V29.8303H63.5797C63.3616 29.8298 63.1525 29.7437 62.9984 29.5909C62.8443 29.4382 62.7578 29.2312 62.7578 29.0154C62.7583 28.7999 62.8451 28.5935 62.9991 28.4411C63.1532 28.2888 63.3619 28.203 63.5797 28.2024H64.6111V26.5706C64.6111 26.4637 64.6325 26.3578 64.6739 26.2591C64.7153 26.1603 64.776 26.0706 64.8526 25.9951C64.9291 25.9196 65.02 25.8597 65.1199 25.819C65.2199 25.7783 65.327 25.7574 65.4351 25.7577C65.6515 25.7598 65.8583 25.8464 66.0104 25.9987C66.1625 26.151 66.2475 26.3566 66.247 26.5706Z" fill="black"/>
<path d="M76.8245 31.6555C76.8287 30.7393 77.1992 29.8619 77.8552 29.2149C78.5112 28.568 79.3993 28.204 80.3256 28.2025H80.9381C81.1563 28.2025 81.3655 28.288 81.52 28.4404C81.6745 28.5928 81.7615 28.7996 81.762 29.0154C81.762 29.2315 81.6752 29.4388 81.5207 29.5916C81.3662 29.7445 81.1566 29.8303 80.9381 29.8303H80.3256C80.0824 29.8288 79.8412 29.8748 79.6161 29.9659C79.3909 30.0569 79.1862 30.1911 79.0137 30.3608C78.8413 30.5305 78.7045 30.7322 78.6112 30.9544C78.5179 31.1766 78.47 31.4149 78.4703 31.6555V34.3035C78.4703 34.5191 78.3837 34.7259 78.2296 34.8783C78.0754 35.0308 77.8664 35.1164 77.6484 35.1164C77.5403 35.1167 77.4332 35.0958 77.3332 35.0551C77.2333 35.0144 77.1424 34.9545 77.0659 34.879C76.9894 34.8035 76.9287 34.7138 76.8872 34.615C76.8458 34.5163 76.8245 34.4104 76.8245 34.3035V31.6555Z" fill="black"/>
<path d="M83.4538 25.7577C83.5619 25.7574 83.669 25.7783 83.7689 25.819C83.8689 25.8597 83.9597 25.9196 84.0362 25.9951C84.1128 26.0706 84.1735 26.1603 84.2149 26.2591C84.2564 26.3578 84.2777 26.4637 84.2777 26.5706C84.2777 26.6776 84.2564 26.7834 84.2149 26.8822C84.1735 26.981 84.1128 27.0707 84.0362 27.1462C83.9597 27.2217 83.8689 27.2815 83.7689 27.3223C83.669 27.363 83.5619 27.3838 83.4538 27.3836C83.2358 27.3836 83.0267 27.2979 82.8726 27.1455C82.7184 26.993 82.6318 26.7862 82.6318 26.5706C82.6318 26.355 82.7184 26.1483 82.8726 25.9958C83.0267 25.8433 83.2358 25.7577 83.4538 25.7577ZM83.4538 28.2024C83.6719 28.2024 83.8812 28.288 84.0357 28.4404C84.1901 28.5928 84.2772 28.7996 84.2777 29.0154V34.3035C84.2777 34.4104 84.2564 34.5163 84.2149 34.615C84.1735 34.7138 84.1128 34.8035 84.0362 34.879C83.9597 34.9545 83.8689 35.0144 83.7689 35.0551C83.669 35.0958 83.5619 35.1167 83.4538 35.1164C83.2358 35.1164 83.0267 35.0308 82.8726 34.8783C82.7184 34.7259 82.6318 34.5191 82.6318 34.3035V29.0154C82.6324 28.7999 82.7191 28.5935 82.8732 28.4411C83.0272 28.2888 83.2359 28.203 83.4538 28.2024Z" fill="black"/>
<path d="M85.9714 35.1223C85.8633 35.1226 85.7562 35.1018 85.6562 35.061C85.5563 35.0203 85.4654 34.9604 85.3889 34.8849C85.3124 34.8094 85.2516 34.7197 85.2102 34.621C85.1688 34.5222 85.1475 34.4163 85.1475 34.3094V31.6555C85.1904 30.7682 85.5769 29.9314 86.2269 29.3185C86.877 28.7056 87.7406 28.3636 88.6387 28.3636C89.5367 28.3636 90.4004 28.7056 91.0504 29.3185C91.7004 29.9314 92.087 30.7682 92.1299 31.6555V34.3035C92.1301 34.4103 92.1091 34.5161 92.0678 34.6149C92.0266 34.7136 91.9661 34.8034 91.8897 34.8789C91.8133 34.9544 91.7226 35.0143 91.6228 35.0551C91.5229 35.0958 91.4159 35.1167 91.3079 35.1164C91.1998 35.1167 91.0927 35.0958 90.9928 35.0551C90.8928 35.0144 90.802 34.9545 90.7255 34.879C90.6489 34.8035 90.5882 34.7138 90.5468 34.615C90.5053 34.5163 90.484 34.4104 90.484 34.3035V31.6555C90.484 31.1704 90.2892 30.7051 89.9424 30.3621C89.5955 30.0191 89.1252 29.8264 88.6347 29.8264C88.1442 29.8264 87.6738 30.0191 87.327 30.3621C86.9802 30.7051 86.7853 31.1704 86.7853 31.6555V34.3035C86.7869 34.5187 86.7021 34.7259 86.5495 34.8794C86.397 35.0329 86.189 35.1203 85.9714 35.1223Z" fill="black"/>
<path d="M96.5089 28.2025C97.4349 28.2066 98.3217 28.5728 98.9757 29.2212C99.6298 29.8696 99.998 30.7475 100 31.6634V36.5371C99.9921 37.3586 99.6895 38.1507 99.146 38.772C98.6026 39.3933 97.8537 39.8036 97.0329 39.9297C96.2121 40.0557 95.3727 39.8894 94.6644 39.4603C93.9561 39.0312 93.4248 38.3673 93.1653 37.5868C93.1281 37.4644 93.1205 37.335 93.1431 37.2091C93.1658 37.0833 93.2181 36.9644 93.2957 36.8622C93.3734 36.76 93.4743 36.6774 93.5903 36.6209C93.7063 36.5644 93.8341 36.5357 93.9633 36.5371C94.1346 36.5334 94.3026 36.5844 94.4424 36.6825C94.5821 36.7806 94.6863 36.9205 94.7394 37.0817C94.8281 37.3676 94.9871 37.6273 95.2022 37.8374C95.462 38.0903 95.7915 38.2618 96.1493 38.3302C96.5072 38.3987 96.8776 38.3612 97.214 38.2223C97.5504 38.0834 97.8378 37.8495 98.0403 37.5497C98.2428 37.2499 98.3513 36.8976 98.3523 36.5371V34.5916C97.8011 34.9387 97.1603 35.1209 96.5069 35.1164C95.6099 35.074 94.7637 34.6917 94.1441 34.0487C93.5244 33.4058 93.1787 32.5516 93.1787 31.6634C93.1787 30.7751 93.5244 29.9209 94.1441 29.278C94.7637 28.6351 95.6099 28.2528 96.5069 28.2103L96.5089 28.2025ZM96.5089 33.4886C96.9349 33.4857 97.3468 33.337 97.6744 33.0678C98.0021 32.7985 98.2254 32.4253 98.3063 32.0116C98.3871 31.5979 98.3207 31.1693 98.1181 30.7986C97.9156 30.4279 97.5895 30.1381 97.1953 29.9783C96.8011 29.8186 96.3631 29.7988 95.9558 29.9224C95.5486 30.0459 95.1971 30.3052 94.9613 30.6561C94.7255 31.007 94.6198 31.4279 94.6623 31.8471C94.7047 32.2664 94.8927 32.6581 95.1942 32.9558C95.3652 33.1284 95.57 33.2647 95.796 33.3563C96.0221 33.4479 96.2646 33.4929 96.5089 33.4886Z" fill="black"/>
<path d="M44.9608 14.3803C44.9608 14.3034 44.9608 14.2284 44.9448 14.1495C44.8268 12.588 44.282 11.0876 43.3688 9.80853L43.2571 9.65462C42.9921 9.31049 42.7028 8.98541 42.3913 8.68185C42.0842 8.37308 41.7549 8.08687 41.4057 7.82549C41.3619 7.79195 41.316 7.76038 41.2701 7.72881C39.9151 6.77916 38.3143 6.23155 36.6557 6.15028H36.6318C36.4961 6.15028 36.3565 6.14041 36.2168 6.14041H36.1949C36.0452 6.14041 35.8996 6.14041 35.752 6.15028C35.6762 6.15028 35.5984 6.15028 35.5186 6.16606C33.9327 6.28441 32.4099 6.83036 31.1157 7.74459L30.9501 7.86298C30.6139 8.11358 30.2959 8.38721 29.9985 8.68185C29.8269 8.84759 29.6673 9.01531 29.5137 9.18895C29.4598 9.24617 29.412 9.30537 29.3641 9.36259C29.3162 9.41981 29.2344 9.52636 29.1646 9.60726L29.0409 9.77695C28.1159 11.0574 27.5639 12.5644 27.4449 14.1337C27.4449 14.2126 27.433 14.2876 27.429 14.3646C27.429 14.5106 27.417 14.6546 27.417 14.8026V14.8223C27.417 14.9624 27.417 15.0986 27.429 15.2328V15.2564C27.5183 16.9699 28.1211 18.6184 29.1606 19.992C29.2703 20.1341 29.384 20.2742 29.5037 20.4103C29.6573 20.584 29.8169 20.7537 29.9885 20.9194C30.2854 21.2156 30.602 21.4918 30.9361 21.7462L31.1017 21.8646C32.3936 22.7932 33.9189 23.3523 35.5106 23.4806C35.5904 23.4806 35.6682 23.4924 35.744 23.4964C35.8916 23.4964 36.0373 23.5082 36.1869 23.5082C36.3365 23.5082 36.532 23.5082 36.7056 23.4924C36.8333 23.4924 36.9589 23.4766 37.0846 23.4628L37.3041 23.4392L37.6053 23.3977C38.1917 23.3002 38.7669 23.1462 39.323 22.938C39.4148 22.9025 39.5065 22.8669 39.5983 22.8275L39.7978 22.7407C39.8736 22.7071 39.9474 22.6736 40.0232 22.6361C40.2068 22.5473 40.3863 22.4526 40.5659 22.35L40.8312 22.1882C42.0939 21.409 43.1355 20.3251 43.8582 19.0384C44.581 17.7516 44.9611 16.3042 44.9628 14.8322V14.8184C44.9708 14.6704 44.9688 14.5264 44.9608 14.3803ZM39.4846 18.0721C38.8356 18.7162 38.008 19.1553 37.1065 19.3338C36.205 19.5123 35.2703 19.4222 34.4206 19.0748C33.571 18.7274 32.8447 18.1384 32.3338 17.3825C31.8229 16.6265 31.5503 15.7376 31.5506 14.8283C31.5508 14.0732 31.7392 13.3299 32.0991 12.6641C32.459 11.9982 32.9792 11.4304 33.6139 11.0108C34.2485 10.5912 34.9779 10.3328 35.7375 10.2585C36.4972 10.1841 37.2636 10.2961 37.9691 10.5845C38.6746 10.873 39.2973 11.329 39.7821 11.9121C40.2669 12.4953 40.599 13.1877 40.7488 13.928C40.8987 14.6683 40.8617 15.4338 40.6412 16.1566C40.4207 16.8794 40.0234 17.5373 39.4846 18.0721Z" fill="#F67C6D"/>
<path d="M72.5833 32.4743H72.8164C72.7773 32.4774 72.738 32.4774 72.6988 32.4743C72.6604 32.4772 72.6217 32.4772 72.5833 32.4743Z" fill="black"/>
<path d="M72.8344 30.8465H72.5693C72.6128 30.8394 72.6568 30.8355 72.7009 30.8347C72.7456 30.8356 72.7902 30.8395 72.8344 30.8465Z" fill="black"/>
</svg>
