<svg width="100" height="40" viewBox="0 0 100 40" fill="none" xmlns="http://www.w3.org/2000/svg">
<g clip-path="url(#clip0)">
<path d="M76.0725 31.5352C76.073 31.6429 76.0519 31.7496 76.0105 31.8492C75.9691 31.9488 75.9081 32.0393 75.8312 32.1154C75.7542 32.1916 75.6627 32.2519 75.562 32.2928C75.4613 32.3338 75.3534 32.3546 75.2446 32.3541H72.4516C72.0526 32.2988 71.7434 32.064 71.7434 31.6477C71.7434 31.2314 72.0386 31.0281 72.4376 30.965H74.2331C74.1294 30.673 74.1333 30.5605 73.6645 30.152C73.6341 30.1259 73.6006 30.1034 73.5648 30.0849C73.5304 30.0626 73.4944 30.0428 73.4571 30.0258C73.1866 29.8799 72.8833 29.8039 72.5753 29.8048C72.1803 29.8073 71.7963 29.9332 71.478 30.1645C71.1598 30.3959 70.9236 30.7208 70.8032 31.0928C70.6828 31.4649 70.6844 31.8651 70.8078 32.2362C70.9311 32.6073 71.1699 32.9303 71.49 33.1591C71.522 33.1833 71.5553 33.2057 71.5898 33.2262C71.6197 33.246 71.6516 33.2617 71.6815 33.2795C71.7115 33.2973 71.6915 33.2795 71.6975 33.2795C71.9671 33.4234 72.2689 33.498 72.5753 33.4965C72.6749 33.4977 72.7744 33.4898 72.8725 33.4729H73.6147C73.833 33.4734 74.0423 33.5594 74.1967 33.7121C74.3511 33.8648 74.4381 34.0718 74.4386 34.2878C74.4412 34.3965 74.4219 34.5045 74.3817 34.6057C74.3415 34.7069 74.2812 34.799 74.2044 34.8768C74.1276 34.9546 74.0359 35.0164 73.9346 35.0586C73.8333 35.1008 73.7246 35.1225 73.6147 35.1224H72.3818C71.4911 35.0819 70.6528 34.6946 70.0496 34.0451C69.4324 33.3988 69.0896 32.5427 69.0921 31.6536C69.0951 30.9714 69.3025 30.3053 69.688 29.7396C70.0734 29.1738 70.6197 28.7336 71.2578 28.4746C71.8959 28.2156 72.5974 28.1493 73.2735 28.2842C73.9497 28.4191 74.5703 28.7491 75.057 29.2325C75.7293 29.8916 76.0725 30.5842 76.0725 31.5352Z" fill="white"/>
<path d="M17.5319 9.05279L11.2158 22.3243C11.0484 22.6747 10.7838 22.9709 10.4529 23.1784C10.122 23.3859 9.7383 23.4961 9.34648 23.4964H8.37892C7.9871 23.4961 7.60341 23.3859 7.27248 23.1784C6.94156 22.9709 6.67701 22.6747 6.50963 22.3243L0.199532 9.05279C0.0513831 8.74131 -0.0148396 8.39787 0.00700547 8.05432C0.0288506 7.71077 0.138056 7.37824 0.324494 7.08757C0.510932 6.79689 0.768564 6.5575 1.0735 6.39157C1.37843 6.22565 1.72079 6.13858 2.06882 6.13843C2.46199 6.13947 2.84669 6.25141 3.17779 6.46111C3.50889 6.67081 3.77265 6.96957 3.93811 7.32233L8.43677 16.7718C8.4753 16.8521 8.53605 16.9199 8.61197 16.9673C8.68789 17.0148 8.77587 17.04 8.86569 17.04C8.95552 17.04 9.0435 17.0148 9.11942 16.9673C9.19534 16.9199 9.25609 16.8521 9.29461 16.7718L13.7933 7.30062C13.9587 6.94787 14.2225 6.64911 14.5536 6.43941C14.8847 6.22971 15.2694 6.11777 15.6626 6.11672C16.0135 6.11511 16.3592 6.20193 16.6668 6.369C16.9745 6.53606 17.2341 6.77787 17.4211 7.07163C17.6081 7.36539 17.7164 7.70141 17.7358 8.04803C17.7552 8.39464 17.685 8.74043 17.5319 9.05279Z" fill="white"/>
<path d="M23.1698 0C23.7174 0 24.2426 0.215162 24.6298 0.598154C25.017 0.981146 25.2346 1.50059 25.2346 2.04223C25.2348 2.31058 25.1816 2.57636 25.078 2.82436C24.9743 3.07236 24.8223 3.29773 24.6305 3.48757C24.4388 3.67742 24.211 3.82803 23.9604 3.93078C23.7098 4.03354 23.4411 4.08642 23.1698 4.08642C22.8985 4.08642 22.6298 4.03354 22.3792 3.93078C22.1285 3.82803 21.9008 3.67742 21.709 3.48757C21.5173 3.29773 21.3652 3.07236 21.2616 2.82436C21.1579 2.57636 21.1047 2.31058 21.105 2.04223C21.105 1.50059 21.3225 0.981146 21.7097 0.598154C22.097 0.215162 22.6222 0 23.1698 0V0ZM23.1698 6.13852C23.7174 6.13852 24.2426 6.35368 24.6298 6.73667C25.017 7.11966 25.2346 7.63911 25.2346 8.18074V21.4542C25.2346 21.9959 25.017 22.5153 24.6298 22.8983C24.2426 23.2813 23.7174 23.4964 23.1698 23.4964C22.6222 23.4964 22.097 23.2813 21.7097 22.8983C21.3225 22.5153 21.105 21.9959 21.105 21.4542V8.18074C21.105 7.63911 21.3225 7.11966 21.7097 6.73667C22.097 6.35368 22.6222 6.13852 23.1698 6.13852Z" fill="white"/>
<path d="M42.5988 26.5352C42.9204 26.5329 43.2381 26.605 43.5265 26.7457C43.8149 26.8865 44.066 27.0919 44.2598 27.3458C44.4537 27.5996 44.5848 27.8947 44.6428 28.2076C44.7008 28.5204 44.684 28.8424 44.5938 29.1477C44.1719 30.4866 43.4174 31.6996 42.3993 32.6757C41.5877 33.4842 40.6223 34.1259 39.5589 34.5637C38.4954 35.0016 37.3548 35.227 36.2029 35.227C35.051 35.227 33.9104 35.0016 32.847 34.5637C31.7835 34.1259 30.8182 33.4842 30.0065 32.6757C28.9879 31.7 28.2333 30.4869 27.8121 29.1477C27.7219 28.8424 27.7051 28.5204 27.7631 28.2076C27.821 27.8947 27.9522 27.5996 28.146 27.3458C28.3398 27.0919 28.591 26.8865 28.8794 26.7457C29.1678 26.605 29.4854 26.5329 29.807 26.5352C30.2482 26.5367 30.6775 26.6771 31.0326 26.936C31.3878 27.195 31.6502 27.5592 31.7821 27.9756C32.0096 28.6645 32.3994 29.2901 32.9192 29.8008C33.7944 30.6602 34.9776 31.1424 36.2109 31.1424C37.4441 31.1424 38.6274 30.6602 39.5026 29.8008C40.0224 29.2901 40.4122 28.6645 40.6397 27.9756C40.7716 27.5592 41.034 27.195 41.3892 26.936C41.7443 26.6771 42.1735 26.5367 42.6148 26.5352H42.5988Z" fill="white"/>
<path d="M55.941 23.4966C54.7848 23.5162 53.6369 23.2997 52.569 22.8607C51.5011 22.4217 50.5363 21.7697 49.7347 20.9453C48.9002 20.1515 48.2403 19.1959 47.7964 18.1383C47.3526 17.0807 47.1343 15.9438 47.1552 14.7989C47.1365 13.6586 47.3559 12.5268 47.7998 11.4743C48.2436 10.4218 48.9023 9.47121 49.7347 8.68205C50.5461 7.87361 51.5113 7.23198 52.5746 6.79413C53.6379 6.35628 54.7783 6.13086 55.9301 6.13086C57.0818 6.13086 58.2222 6.35628 59.2855 6.79413C60.3488 7.23198 61.314 7.87361 62.1255 8.68205C62.9578 9.47121 63.6165 10.4218 64.0603 11.4743C64.5042 12.5268 64.7236 13.6586 64.705 14.7989C64.7248 15.9425 64.5059 17.0778 64.0621 18.134C63.6182 19.1902 62.959 20.1445 62.1255 20.9374C61.3283 21.762 60.3675 22.415 59.3033 22.8554C58.2391 23.2957 57.0945 23.514 55.941 23.4966ZM55.941 10.2251C55.3312 10.2212 54.7267 10.3366 54.1622 10.5647C53.5977 10.7928 53.0844 11.1291 52.6518 11.5542C52.2192 11.9793 51.8759 12.4848 51.6416 13.0417C51.4074 13.5985 51.2868 14.1957 51.2868 14.7989C51.2863 15.5542 51.4742 16.2979 51.8338 16.9642C52.1934 17.6306 52.7135 18.1989 53.3481 18.619C53.9828 19.0391 54.7124 19.2978 55.4723 19.3725C56.2322 19.4471 56.999 19.3352 57.7048 19.0467C58.4105 18.7583 59.0335 18.3022 59.5185 17.7187C60.0035 17.1353 60.3355 16.4426 60.4852 15.702C60.6349 14.9613 60.5977 14.1956 60.3768 13.4726C60.1559 12.7496 59.7581 12.0916 59.2188 11.5569C58.7916 11.1276 58.281 10.7882 57.7177 10.5593C57.1544 10.3304 56.55 10.2167 55.941 10.2251Z" fill="white"/>
<path d="M68.9564 19.4121C69.5041 19.4121 70.0292 19.6273 70.4165 20.0103C70.8037 20.3933 71.0212 20.9127 71.0212 21.4543C71.0212 21.996 70.8037 22.5154 70.4165 22.8984C70.0292 23.2814 69.5041 23.4966 68.9564 23.4966C68.6851 23.4968 68.4164 23.4442 68.1657 23.3417C67.9149 23.2392 67.6871 23.0888 67.4951 22.8991C67.3032 22.7094 67.1509 22.4842 67.047 22.2363C66.9431 21.9884 66.8896 21.7227 66.8896 21.4543C66.8896 21.186 66.9431 20.9203 67.047 20.6724C67.1509 20.4245 67.3032 20.1992 67.4951 20.0096C67.6871 19.8199 67.9149 19.6695 68.1657 19.567C68.4164 19.4645 68.6851 19.4119 68.9564 19.4121Z" fill="white"/>
<path d="M48.6775 31.4582C48.7196 30.6018 49.0932 29.7943 49.7209 29.2029C50.4002 28.5593 51.3078 28.205 52.2485 28.2163H53.1941C53.4121 28.2163 53.6212 28.302 53.7753 28.4544C53.9294 28.6069 54.016 28.8137 54.016 29.0293C54.0163 29.1362 53.9952 29.2421 53.954 29.341C53.9129 29.4398 53.8524 29.5297 53.776 29.6054C53.6997 29.6811 53.609 29.7411 53.5091 29.7821C53.4093 29.8231 53.3022 29.8442 53.1941 29.8442H52.1707C51.9278 29.8442 51.6873 29.8915 51.463 29.9834C51.2386 30.0753 51.0347 30.2101 50.863 30.3799C50.6913 30.5498 50.5551 30.7514 50.4621 30.9733C50.3692 31.1953 50.3213 31.4331 50.3213 31.6733C50.3213 31.9135 50.3692 32.1514 50.4621 32.3733C50.5551 32.5952 50.6913 32.7968 50.863 32.9667C51.0347 33.1365 51.2386 33.2713 51.463 33.3632C51.6873 33.4551 51.9278 33.5024 52.1707 33.5024H53.1941C53.3022 33.5024 53.4093 33.5235 53.5091 33.5645C53.609 33.6055 53.6997 33.6655 53.776 33.7412C53.8524 33.8169 53.9129 33.9068 53.954 34.0056C53.9952 34.1045 54.0163 34.2104 54.016 34.3173C54.0163 34.4242 53.9952 34.53 53.954 34.6288C53.9128 34.7275 53.8523 34.8172 53.7759 34.8928C53.6995 34.9683 53.6088 35.0282 53.509 35.0689C53.4091 35.1097 53.3021 35.1306 53.1941 35.1303H52.2485C51.3081 35.1399 50.4012 34.7859 49.7209 34.1437C49.0871 33.546 48.713 32.7281 48.6775 31.8627V31.4681V31.4582Z" fill="white"/>
<path d="M58.3871 28.2024C59.2773 28.2049 60.133 28.5431 60.7799 29.148C61.4267 29.753 61.816 30.5791 61.8683 31.4581H61.8783V34.5915C61.8788 34.661 61.8654 34.73 61.8389 34.7943C61.8123 34.8587 61.7732 34.9172 61.7237 34.9666C61.6742 35.0159 61.6153 35.0551 61.5504 35.0818C61.4855 35.1085 61.4159 35.1223 61.3456 35.1223H60.7631C60.6934 35.1223 60.6244 35.1087 60.56 35.0823C60.4956 35.056 60.4371 35.0173 60.3878 34.9686C60.3386 34.9198 60.2995 34.862 60.2728 34.7983C60.2461 34.7346 60.2324 34.6663 60.2324 34.5974C59.6813 34.9445 59.0405 35.1268 58.3871 35.1223C57.49 35.0799 56.6439 34.6975 56.0242 34.0546C55.4045 33.4117 55.0588 32.5575 55.0588 31.6692C55.0588 30.781 55.4045 29.9268 56.0242 29.2839C56.6439 28.641 57.49 28.2586 58.3871 28.2162V28.2024ZM58.3871 33.4885C58.8131 33.4857 59.2249 33.337 59.5526 33.0677C59.8803 32.7984 60.1035 32.4252 60.1844 32.0115C60.2653 31.5979 60.1988 31.1692 59.9963 30.7985C59.7938 30.4279 59.4677 30.138 59.0735 29.9782C58.6793 29.8185 58.2413 29.7987 57.834 29.9223C57.4267 30.0459 57.0753 30.3052 56.8395 30.6561C56.6036 31.007 56.498 31.4278 56.5404 31.8471C56.5829 32.2663 56.7709 32.6581 57.0724 32.9557C57.2433 33.1283 57.4481 33.2646 57.6742 33.3562C57.9002 33.4478 58.1428 33.4928 58.3871 33.4885Z" fill="white"/>
<path d="M66.247 26.5705V28.2023H67.2704C67.4884 28.2023 67.6975 28.288 67.8516 28.4404C68.0058 28.5929 68.0924 28.7997 68.0924 29.0153C68.0926 29.1222 68.0715 29.2281 68.0304 29.327C67.9892 29.4258 67.9287 29.5157 67.8523 29.5914C67.776 29.6671 67.6853 29.7271 67.5854 29.7681C67.4856 29.8091 67.3785 29.8302 67.2704 29.8302H66.247V34.3034C66.2481 34.4099 66.2279 34.5155 66.1877 34.6143C66.1474 34.7131 66.0879 34.8031 66.0125 34.8791C65.9371 34.9552 65.8473 35.0158 65.7482 35.0575C65.6492 35.0992 65.5427 35.1212 65.4351 35.1222C65.327 35.1225 65.2199 35.1016 65.1199 35.0609C65.02 35.0202 64.9291 34.9603 64.8526 34.8848C64.776 34.8093 64.7153 34.7196 64.6739 34.6208C64.6325 34.5221 64.6111 34.4162 64.6111 34.3093V29.8302H63.5797C63.3616 29.8297 63.1525 29.7436 62.9984 29.5908C62.8443 29.438 62.7578 29.2311 62.7578 29.0153C62.7583 28.7998 62.8451 28.5933 62.9991 28.441C63.1532 28.2887 63.3619 28.2028 63.5797 28.2023H64.6111V26.5705C64.6111 26.4636 64.6325 26.3577 64.6739 26.259C64.7153 26.1602 64.776 26.0705 64.8526 25.995C64.9291 25.9195 65.02 25.8596 65.1199 25.8189C65.2199 25.7781 65.327 25.7573 65.4351 25.7576C65.6515 25.7597 65.8583 25.8463 66.0104 25.9986C66.1625 26.1509 66.2475 26.3565 66.247 26.5705Z" fill="white"/>
<path d="M76.8245 31.6554C76.8287 30.7392 77.1992 29.8618 77.8552 29.2149C78.5112 28.5679 79.3993 28.2039 80.3256 28.2024H80.9381C81.1563 28.2024 81.3655 28.288 81.52 28.4404C81.6745 28.5928 81.7615 28.7996 81.762 29.0153C81.762 29.2315 81.6752 29.4387 81.5207 29.5916C81.3662 29.7444 81.1566 29.8303 80.9381 29.8303H80.3256C80.0824 29.8287 79.8412 29.8748 79.6161 29.9658C79.3909 30.0569 79.1862 30.1911 79.0137 30.3607C78.8413 30.5304 78.7045 30.7322 78.6112 30.9544C78.5179 31.1766 78.47 31.4148 78.4703 31.6554V34.3034C78.4703 34.519 78.3837 34.7258 78.2296 34.8783C78.0754 35.0307 77.8664 35.1164 77.6484 35.1164C77.5403 35.1166 77.4332 35.0958 77.3332 35.055C77.2333 35.0143 77.1424 34.9545 77.0659 34.879C76.9894 34.8034 76.9287 34.7137 76.8872 34.615C76.8458 34.5162 76.8245 34.4103 76.8245 34.3034V31.6554Z" fill="white"/>
<path d="M83.4538 25.7576C83.5619 25.7573 83.669 25.7781 83.7689 25.8189C83.8689 25.8596 83.9597 25.9195 84.0362 25.995C84.1128 26.0705 84.1735 26.1602 84.2149 26.259C84.2564 26.3577 84.2777 26.4636 84.2777 26.5705C84.2777 26.6774 84.2564 26.7833 84.2149 26.8821C84.1735 26.9808 84.1128 27.0705 84.0362 27.1461C83.9597 27.2216 83.8689 27.2814 83.7689 27.3221C83.669 27.3629 83.5619 27.3837 83.4538 27.3835C83.2358 27.3835 83.0267 27.2978 82.8726 27.1454C82.7184 26.9929 82.6318 26.7861 82.6318 26.5705C82.6318 26.3549 82.7184 26.1481 82.8726 25.9957C83.0267 25.8432 83.2358 25.7576 83.4538 25.7576ZM83.4538 28.2023C83.6719 28.2023 83.8812 28.2879 84.0357 28.4403C84.1901 28.5927 84.2772 28.7995 84.2777 29.0153V34.3034C84.2777 34.4103 84.2564 34.5161 84.2149 34.6149C84.1735 34.7137 84.1128 34.8034 84.0362 34.8789C83.9597 34.9544 83.8689 35.0142 83.7689 35.055C83.669 35.0957 83.5619 35.1166 83.4538 35.1163C83.2358 35.1163 83.0267 35.0306 82.8726 34.8782C82.7184 34.7257 82.6318 34.519 82.6318 34.3034V29.0153C82.6324 28.7998 82.7191 28.5933 82.8732 28.441C83.0272 28.2887 83.2359 28.2028 83.4538 28.2023Z" fill="white"/>
<path d="M85.9714 35.1225C85.8633 35.1227 85.7562 35.1019 85.6562 35.0611C85.5563 35.0204 85.4654 34.9606 85.3889 34.8851C85.3124 34.8095 85.2516 34.7198 85.2102 34.6211C85.1688 34.5223 85.1475 34.4164 85.1475 34.3095V31.6556C85.1904 30.7684 85.5769 29.9315 86.2269 29.3186C86.877 28.7057 87.7406 28.3638 88.6387 28.3638C89.5367 28.3638 90.4004 28.7057 91.0504 29.3186C91.7004 29.9315 92.087 30.7684 92.1299 31.6556V34.3036C92.1301 34.4104 92.1091 34.5163 92.0678 34.615C92.0266 34.7138 91.9661 34.8035 91.8897 34.879C91.8133 34.9546 91.7226 35.0144 91.6228 35.0552C91.5229 35.096 91.4159 35.1168 91.3079 35.1165C91.1998 35.1168 91.0927 35.096 90.9928 35.0552C90.8928 35.0145 90.802 34.9547 90.7255 34.8791C90.6489 34.8036 90.5882 34.7139 90.5468 34.6152C90.5053 34.5164 90.484 34.4105 90.484 34.3036V31.6556C90.484 31.1705 90.2892 30.7053 89.9424 30.3622C89.5955 30.0192 89.1252 29.8265 88.6347 29.8265C88.1442 29.8265 87.6738 30.0192 87.327 30.3622C86.9802 30.7053 86.7853 31.1705 86.7853 31.6556V34.3036C86.7869 34.5189 86.7021 34.726 86.5495 34.8795C86.397 35.033 86.189 35.1204 85.9714 35.1225Z" fill="white"/>
<path d="M96.5089 28.2024C97.4349 28.2066 98.3217 28.5728 98.9757 29.2212C99.6298 29.8695 99.998 30.7474 100 31.6633V36.537C99.9921 37.3586 99.6895 38.1506 99.146 38.7719C98.6026 39.3933 97.8537 39.8036 97.0329 39.9296C96.2121 40.0557 95.3727 39.8893 94.6644 39.4603C93.9561 39.0312 93.4248 38.3672 93.1653 37.5868C93.1281 37.4643 93.1205 37.335 93.1431 37.2091C93.1658 37.0832 93.2181 36.9644 93.2957 36.8622C93.3734 36.76 93.4743 36.6773 93.5903 36.6208C93.7063 36.5643 93.8341 36.5356 93.9633 36.537C94.1346 36.5334 94.3026 36.5843 94.4424 36.6824C94.5821 36.7805 94.6863 36.9205 94.7394 37.0816C94.8281 37.3675 94.9871 37.6272 95.2022 37.8374C95.462 38.0903 95.7915 38.2617 96.1493 38.3302C96.5072 38.3987 96.8776 38.3611 97.214 38.2222C97.5504 38.0834 97.8378 37.8494 98.0403 37.5496C98.2428 37.2498 98.3513 36.8976 98.3523 36.537V34.5915C97.8011 34.9386 97.1603 35.1209 96.5069 35.1164C95.6099 35.0739 94.7637 34.6916 94.1441 34.0487C93.5244 33.4058 93.1787 32.5516 93.1787 31.6633C93.1787 30.7751 93.5244 29.9209 94.1441 29.278C94.7637 28.635 95.6099 28.2527 96.5069 28.2103L96.5089 28.2024ZM96.5089 33.4885C96.9349 33.4857 97.3468 33.337 97.6744 33.0677C98.0021 32.7984 98.2254 32.4252 98.3063 32.0115C98.3871 31.5979 98.3207 31.1692 98.1181 30.7985C97.9156 30.4278 97.5895 30.138 97.1953 29.9782C96.8011 29.8185 96.3631 29.7987 95.9558 29.9223C95.5486 30.0459 95.1971 30.3052 94.9613 30.6561C94.7255 31.007 94.6198 31.4278 94.6623 31.8471C94.7047 32.2663 94.8927 32.6581 95.1942 32.9557C95.3652 33.1283 95.57 33.2646 95.796 33.3562C96.0221 33.4478 96.2646 33.4928 96.5089 33.4885Z" fill="white"/>
<path d="M44.9608 14.3803C44.9608 14.3034 44.9608 14.2284 44.9448 14.1495C44.8268 12.588 44.282 11.0876 43.3688 9.8085L43.2571 9.65459C42.9921 9.31046 42.7028 8.98538 42.3913 8.68182C42.0842 8.37305 41.7549 8.08684 41.4057 7.82546C41.3619 7.79192 41.316 7.76035 41.2701 7.72878C39.9151 6.77913 38.3143 6.23152 36.6557 6.15025H36.6318C36.4961 6.15025 36.3565 6.14038 36.2168 6.14038H36.1949C36.0452 6.14038 35.8996 6.14038 35.752 6.15025C35.6762 6.15025 35.5984 6.15025 35.5186 6.16603C33.9327 6.28438 32.4099 6.83033 31.1157 7.74456L30.9501 7.86295C30.6139 8.11355 30.2959 8.38718 29.9985 8.68182C29.8269 8.84756 29.6673 9.01528 29.5137 9.18892C29.4598 9.24614 29.412 9.30534 29.3641 9.36256C29.3162 9.41978 29.2344 9.52633 29.1646 9.60723L29.0409 9.77692C28.1159 11.0574 27.5639 12.5644 27.4449 14.1337C27.4449 14.2126 27.433 14.2876 27.429 14.3645C27.429 14.5105 27.417 14.6546 27.417 14.8026V14.8223C27.417 14.9624 27.417 15.0986 27.429 15.2327V15.2564C27.5183 16.9699 28.1211 18.6184 29.1606 19.992C29.2703 20.1341 29.384 20.2742 29.5037 20.4103C29.6573 20.584 29.8169 20.7536 29.9885 20.9194C30.2854 21.2155 30.602 21.4917 30.9361 21.7461L31.1017 21.8645C32.3936 22.7931 33.9189 23.3522 35.5106 23.4806C35.5904 23.4806 35.6682 23.4924 35.744 23.4963C35.8916 23.4963 36.0373 23.5082 36.1869 23.5082C36.3365 23.5082 36.532 23.5082 36.7056 23.4924C36.8333 23.4924 36.9589 23.4766 37.0846 23.4628L37.3041 23.4391L37.6053 23.3977C38.1917 23.3002 38.7669 23.1462 39.323 22.9379C39.4148 22.9024 39.5065 22.8669 39.5983 22.8274L39.7978 22.7406C39.8736 22.7071 39.9474 22.6735 40.0232 22.636C40.2068 22.5473 40.3863 22.4525 40.5659 22.3499L40.8312 22.1881C42.0939 21.409 43.1355 20.3251 43.8582 19.0383C44.581 17.7516 44.9611 16.3042 44.9628 14.8322V14.8184C44.9708 14.6704 44.9688 14.5263 44.9608 14.3803ZM39.4846 18.0721C38.8356 18.7162 38.008 19.1553 37.1065 19.3338C36.205 19.5123 35.2703 19.4221 34.4206 19.0748C33.571 18.7274 32.8447 18.1384 32.3338 17.3824C31.8229 16.6265 31.5503 15.7375 31.5506 14.8282C31.5508 14.0732 31.7392 13.3299 32.0991 12.6641C32.459 11.9982 32.9792 11.4304 33.6139 11.0108C34.2485 10.5912 34.9779 10.3328 35.7375 10.2584C36.4972 10.1841 37.2636 10.2961 37.9691 10.5845C38.6746 10.873 39.2973 11.3289 39.7821 11.9121C40.2669 12.4953 40.599 13.1876 40.7488 13.928C40.8987 14.6683 40.8617 15.4337 40.6412 16.1566C40.4207 16.8794 40.0234 17.5373 39.4846 18.0721Z" fill="white"/>
<path d="M72.5833 32.4744H72.8164C72.7773 32.4775 72.738 32.4775 72.6988 32.4744C72.6604 32.4773 72.6217 32.4773 72.5833 32.4744Z" fill="white"/>
<path d="M72.8344 30.8466H72.5693C72.6128 30.8395 72.6568 30.8355 72.7009 30.8347C72.7456 30.8356 72.7902 30.8396 72.8344 30.8466Z" fill="white"/>
</g>
<defs>
<clipPath id="clip0">
<rect width="100" height="40" fill="white"/>
</clipPath>
</defs>
</svg>
