<svg width="100" height="58" viewBox="0 0 100 58" fill="none" xmlns="http://www.w3.org/2000/svg">
<path d="M26.4867 14.0344L16.9429 35.9534C16.69 36.5321 16.2903 37.0213 15.7902 37.364C15.2902 37.7067 14.7104 37.8888 14.1184 37.8892H12.6564C12.0643 37.8888 11.4845 37.7067 10.9845 37.364C10.4845 37.0213 10.0847 36.5321 9.83182 35.9534L0.297072 14.0344C0.0732146 13.52 -0.02685 12.9528 0.00615862 12.3854C0.0391672 11.818 0.20418 11.2688 0.485893 10.7887C0.767606 10.3086 1.1569 9.91325 1.61766 9.63922C2.07842 9.36518 2.59574 9.22137 3.12162 9.22113C3.71571 9.22285 4.29701 9.40774 4.79731 9.75407C5.29761 10.1004 5.69616 10.5938 5.94618 11.1764L12.7438 26.783C12.802 26.9156 12.8938 27.0276 13.0085 27.106C13.1232 27.1844 13.2562 27.226 13.3919 27.226C13.5276 27.226 13.6606 27.1844 13.7753 27.106C13.89 27.0276 13.9818 26.9156 14.04 26.783L20.8376 11.1406C21.0876 10.558 21.4862 10.0646 21.9865 9.71822C22.4868 9.37189 23.0681 9.18701 23.6622 9.18528C24.1925 9.18262 24.7147 9.32601 25.1796 9.60193C25.6445 9.87786 26.0368 10.2772 26.3194 10.7624C26.6019 11.2476 26.7656 11.8025 26.7949 12.375C26.8242 12.9475 26.7181 13.5185 26.4867 14.0344Z" fill="#262626"/>
<path d="M35.3756 0C36.2286 0 37.0465 0.34696 37.6497 0.964553C38.2528 1.58215 38.5916 2.41978 38.5916 3.29319C38.592 3.72593 38.5091 4.1545 38.3477 4.55442C38.1862 4.95433 37.9494 5.31775 37.6507 5.62388C37.3521 5.93002 36.9974 6.17288 36.607 6.33858C36.2167 6.50428 35.7982 6.58956 35.3756 6.58956C34.953 6.58956 34.5346 6.50428 34.1442 6.33858C33.7538 6.17288 33.3992 5.93002 33.1005 5.62388C32.8018 5.31775 32.565 4.95433 32.4036 4.55442C32.2421 4.1545 32.1593 3.72593 32.1597 3.29319C32.1597 2.41978 32.4985 1.58215 33.1016 0.964553C33.7047 0.34696 34.5227 0 35.3756 0V0ZM35.3756 9.89866C36.2286 9.89866 37.0465 10.2456 37.6497 10.8632C38.2528 11.4808 38.5916 12.3184 38.5916 13.1919V34.596C38.5916 35.4694 38.2528 36.307 37.6497 36.9246C37.0465 37.5422 36.2286 37.8892 35.3756 37.8892C34.5227 37.8892 33.7047 37.5422 33.1016 36.9246C32.4985 36.307 32.1597 35.4694 32.1597 34.596V13.1919C32.1597 12.3184 32.4985 11.4808 33.1016 10.8632C33.7047 10.2456 34.5227 9.89866 35.3756 9.89866Z" fill="#262626"/>
<path d="M65.4525 43.63C65.9407 43.6264 66.423 43.7406 66.8608 43.9637C67.2987 44.1868 67.6799 44.5125 67.9742 44.9149C68.2684 45.3172 68.4675 45.785 68.5555 46.2809C68.6435 46.7769 68.618 47.2872 68.4811 47.7711C67.8407 49.8935 66.6953 51.8162 65.1497 53.3635C63.9175 54.6451 62.4521 55.6622 60.8376 56.3563C59.2232 57.0504 57.4917 57.4077 55.743 57.4077C53.9942 57.4077 52.2628 57.0504 50.6483 56.3563C49.0339 55.6622 47.5684 54.6451 46.3363 53.3635C44.7899 51.8169 43.6443 49.894 43.0049 47.7711C42.8679 47.2872 42.8424 46.7769 42.9305 46.2809C43.0185 45.785 43.2176 45.3172 43.5118 44.9149C43.8061 44.5125 44.1873 44.1868 44.6251 43.9637C45.063 43.7406 45.5452 43.6264 46.0334 43.63C46.7032 43.6323 47.3549 43.8549 47.894 44.2654C48.4331 44.6759 48.8316 45.2531 49.0317 45.9133C49.3772 47.0052 49.9688 47.9968 50.758 48.8064C52.0866 50.1686 53.8829 50.9331 55.7551 50.9331C57.6273 50.9331 59.4236 50.1686 60.7522 48.8064C61.5414 47.9968 62.133 47.0052 62.4785 45.9133C62.6786 45.2531 63.0771 44.6759 63.6162 44.2654C64.1553 43.8549 64.807 43.6323 65.4768 43.63H65.4525Z" fill="#F67C6D"/>
<path d="M86.3117 37.8872C84.5463 37.9195 82.7936 37.5618 81.1631 36.8362C79.5327 36.1107 78.0595 35.033 76.8356 33.6704C75.5614 32.3585 74.5539 30.7791 73.8762 29.0311C73.1985 27.283 72.8652 25.404 72.8971 23.5117C72.8686 21.6271 73.2036 19.7564 73.8813 18.0169C74.559 16.2773 75.5648 14.7062 76.8356 13.4018C78.0746 12.0657 79.5482 11.0052 81.1717 10.2815C82.7952 9.55781 84.5364 9.18524 86.2949 9.18524C88.0535 9.18524 89.7947 9.55781 91.4182 10.2815C93.0416 11.0052 94.5153 12.0657 95.7543 13.4018C97.0251 14.7062 98.0309 16.2773 98.7085 18.0169C99.3862 19.7564 99.7213 21.6271 99.6928 23.5117C99.723 25.4018 99.3888 27.2783 98.7112 29.024C98.0335 30.7697 97.0269 32.347 95.7543 33.6574C94.5371 35.0204 93.0701 36.0996 91.4453 36.8274C89.8205 37.5553 88.0728 37.916 86.3117 37.8872ZM86.3117 15.9521C85.3806 15.9457 84.4576 16.1364 83.5957 16.5134C82.7338 16.8905 81.95 17.4463 81.2895 18.1489C80.629 18.8515 80.1049 19.687 79.7472 20.6074C79.3895 21.5278 79.2054 22.5148 79.2054 23.5117C79.2047 24.76 79.4916 25.9893 80.0406 27.0906C80.5896 28.1919 81.3837 29.1313 82.3528 29.8256C83.3218 30.5198 84.4357 30.9476 85.596 31.0709C86.7563 31.1942 87.927 31.0093 89.0046 30.5325C90.0822 30.0558 91.0333 29.3019 91.7738 28.3376C92.5143 27.3733 93.0213 26.2285 93.2499 25.0043C93.4785 23.7802 93.4217 22.5146 93.0844 21.3196C92.7471 20.1247 92.1398 19.0372 91.3163 18.1534C90.6641 17.4438 89.8844 16.8829 89.0243 16.5046C88.1642 16.1262 87.2415 15.9383 86.3117 15.9521Z" fill="#F67C6D"/>
<path d="M69.6678 22.8035C69.6678 22.6763 69.6678 22.5524 69.6425 22.4219C69.455 19.8413 68.5899 17.3615 67.1397 15.2476L66.9622 14.9932C66.5415 14.4245 66.082 13.8872 65.5873 13.3855C65.0997 12.8752 64.5766 12.4022 64.0222 11.9702C63.9525 11.9148 63.8797 11.8626 63.8068 11.8104C61.655 10.2409 59.1129 9.33587 56.4789 9.20155H56.4409C56.2255 9.20155 56.0037 9.18524 55.7819 9.18524H55.7471C55.5095 9.18524 55.2782 9.18524 55.0438 9.20155C54.9234 9.20155 54.7998 9.20155 54.6731 9.22764C52.1546 9.42323 49.7364 10.3255 47.6811 11.8365L47.4181 12.0322C46.8842 12.4463 46.3793 12.8986 45.9069 13.3855C45.6345 13.6594 45.381 13.9366 45.1371 14.2236C45.0515 14.3182 44.9755 14.416 44.8995 14.5106C44.8234 14.6051 44.6935 14.7812 44.5826 14.9149L44.3862 15.1954C42.9174 17.3117 42.0407 19.8022 41.8517 22.3958C41.8517 22.5263 41.8327 22.6502 41.8264 22.7774C41.8264 23.0187 41.8074 23.2568 41.8074 23.5013V23.534C41.8074 23.7655 41.8074 23.9905 41.8264 24.2123V24.2514C41.9683 27.0833 42.9256 29.8077 44.5763 32.078C44.7506 32.3128 44.9311 32.5443 45.1212 32.7693C45.3652 33.0563 45.6186 33.3367 45.8911 33.6107C46.3626 34.1001 46.8653 34.5566 47.3959 34.9771L47.6589 35.1727C49.7104 36.7074 52.1327 37.6314 54.6604 37.8435C54.7872 37.8435 54.9107 37.8631 55.0311 37.8696C55.2655 37.8696 55.4968 37.8892 55.7344 37.8892C55.972 37.8892 56.2825 37.8892 56.5581 37.8631C56.7609 37.8631 56.9605 37.837 57.1601 37.8142L57.5086 37.7751L57.987 37.7066C58.9181 37.5454 59.8317 37.2909 60.7147 36.9467C60.8604 36.888 61.0062 36.8293 61.1519 36.7641L61.4687 36.6206C61.5891 36.5652 61.7063 36.5098 61.8267 36.4478C62.1182 36.3011 62.4033 36.1445 62.6884 35.9749L63.1098 35.7075C65.115 34.4198 66.7692 32.6285 67.9169 30.5018C69.0647 28.3752 69.6683 25.983 69.671 23.5503V23.5274C69.6837 23.2829 69.6805 23.0448 69.6678 22.8035ZM60.9713 28.9049C59.9407 29.9694 58.6264 30.6952 57.1948 30.9902C55.7632 31.2851 54.2788 31.1361 52.9295 30.562C51.5803 29.9879 50.4269 29.0145 49.6155 27.7651C48.8041 26.5157 48.3713 25.0466 48.3717 23.5437C48.3721 22.2959 48.6713 21.0674 49.2428 19.967C49.8143 18.8665 50.6405 17.9281 51.6483 17.2346C52.6561 16.5411 53.8145 16.1141 55.0208 15.9912C56.2272 15.8683 57.4444 16.0534 58.5647 16.5301C59.685 17.0068 60.6738 17.7604 61.4438 18.7242C62.2138 19.688 62.741 20.8323 62.979 22.0559C63.2169 23.2794 63.1582 24.5445 62.8081 25.7391C62.4579 26.9337 61.827 28.0211 60.9713 28.9049Z" fill="#F67C6D"/>
</svg>
