<svg width="24" height="24" viewBox="0 0 24 24" fill="none" xmlns="http://www.w3.org/2000/svg">
<g clip-path="url(#clip0)">
<path d="M12.0703 10.1126C12.0703 9.85372 11.8604 9.64381 11.6015 9.64381H10.2729H4.84618L5.59931 8.06193C5.71059 7.82821 5.61131 7.54847 5.3776 7.43719C5.14388 7.326 4.86413 7.42519 4.75285 7.6589L3.80785 9.64381H2.16265H0.833982C0.575093 9.64381 0.365234 9.85372 0.365234 10.1126C0.365234 10.3714 0.575093 10.5813 0.833982 10.5813H1.44462L0.787529 12.0765C0.761748 12.1355 0.74792 12.2006 0.74792 12.2651V21.3787C0.74792 21.4432 0.761748 21.5082 0.787529 21.5673L1.44462 23.0625H0.833982C0.575093 23.0625 0.365234 23.2724 0.365234 23.5312C0.365234 23.7901 0.575093 24 0.833982 24H2.16096C2.16161 24 2.16222 24.0001 2.16288 24.0001C2.16377 24.0001 2.16466 24 2.16555 24H10.2699C10.2708 24 10.2717 24.0001 10.2726 24.0001C10.2732 24.0001 10.2738 24 10.2745 24H11.6015C11.8604 24 12.0703 23.7901 12.0703 23.5312C12.0703 23.2724 11.8604 23.0625 11.6015 23.0625H10.9905L11.6468 21.5671C11.6726 21.5082 11.6863 21.4431 11.6863 21.3787V18.9259C11.6863 18.6671 11.4764 18.4572 11.2175 18.4572C10.9586 18.4572 10.7488 18.6671 10.7488 18.9259V20.91H1.68537V12.7338H10.7488V14.7166C10.7488 14.9754 10.9586 15.1853 11.2175 15.1853C11.4764 15.1853 11.6863 14.9754 11.6863 14.7166V12.2651C11.6863 12.2007 11.6726 12.1356 11.6468 12.0767L10.9905 10.5813H11.6015C11.8604 10.5813 12.0703 10.3715 12.0703 10.1126ZM10.4999 21.8475L9.96668 23.0625H2.46864L1.93465 21.8475H10.4999ZM1.93465 11.7964L2.46864 10.5813H4.10185C4.10242 10.5813 4.10298 10.5814 4.10354 10.5814C4.10396 10.5814 4.10443 10.5813 4.10485 10.5813H9.96672L10.5 11.7964H1.93465Z" fill="#00CBBF"/>
<path d="M2.00188 7.53845C2.90431 7.53845 3.63856 6.80425 3.63856 5.90176C3.63856 4.99928 2.90436 4.26508 2.00188 4.26508C1.09939 4.26508 0.365234 4.99928 0.365234 5.90176C0.365234 6.80425 1.09944 7.53845 2.00188 7.53845ZM2.00188 5.20258C2.38742 5.20258 2.70106 5.51622 2.70106 5.90176C2.70106 6.28731 2.38742 6.60095 2.00188 6.60095C1.61637 6.60095 1.30273 6.28731 1.30273 5.90176C1.30273 5.51622 1.61637 5.20258 2.00188 5.20258Z" fill="#00CBBF"/>
<path d="M4.16745 3.74771C5.06989 3.74771 5.80414 3.0129 5.80414 2.10971C5.80414 1.20723 5.06993 0.473022 4.16745 0.473022C3.26496 0.473022 2.53076 1.20723 2.53076 2.10971C2.53076 3.0129 3.26496 3.74771 4.16745 3.74771ZM4.16745 1.41052C4.553 1.41052 4.86664 1.72416 4.86664 2.10971C4.86664 2.49596 4.553 2.81021 4.16745 2.81021C3.7819 2.81021 3.46826 2.49596 3.46826 2.10971C3.46826 1.72416 3.7819 1.41052 4.16745 1.41052Z" fill="#00CBBF"/>
<path d="M4.30469 16.841C4.30469 18.4532 5.14502 19.7161 6.21775 19.7161C7.28973 19.7161 8.12945 18.4532 8.12945 16.841C8.12945 15.2289 7.28973 13.966 6.21775 13.966C5.14502 13.966 4.30469 15.2289 4.30469 16.841ZM7.19191 16.841C7.19191 17.95 6.67759 18.7786 6.2177 18.7786C5.7572 18.7786 5.24214 17.95 5.24214 16.841C5.24214 15.7321 5.75716 14.9035 6.2177 14.9035C6.67759 14.9035 7.19191 15.7321 7.19191 16.841Z" fill="#00CBBF"/>
<path d="M22.1351 7.87453C21.5433 7.40808 21.0758 7.0396 21.0758 5.32117V3.03504C21.4266 2.86161 21.6684 2.50016 21.6684 2.08311V1.06138C21.6684 0.476107 21.1923 0 20.6071 0H16.3646C15.7794 0 15.3033 0.476107 15.3033 1.06138V2.08311C15.3033 2.50016 15.5452 2.86161 15.8959 3.03504V5.32117C15.8959 7.03941 15.4286 7.40766 14.8369 7.87383C14.1338 8.42784 13.3369 9.05578 13.3369 11.501V22.5319C13.3369 23.3413 13.9954 23.9998 14.8048 23.9998H22.167C22.9764 23.9998 23.6349 23.3413 23.6349 22.5319V11.501C23.6349 9.05667 22.838 8.42864 22.1351 7.87453ZM16.2408 1.06138C16.2408 0.994213 16.2975 0.937495 16.3646 0.937495H20.6071C20.6742 0.937495 20.7309 0.994213 20.7309 1.06138V2.08311C20.7309 2.15028 20.6742 2.207 20.6071 2.207H16.3646C16.2975 2.207 16.2408 2.15028 16.2408 2.08311V1.06138ZM22.6974 22.5319C22.6974 22.8195 22.4545 23.0624 22.167 23.0624H14.8048C14.5173 23.0624 14.2744 22.8194 14.2744 22.5319V19.4331H15.7094C16.4709 20.1261 17.4492 20.5054 18.4859 20.5054C19.5226 20.5054 20.501 20.1261 21.2624 19.4331H22.6974V22.5319H22.6974ZM22.6974 18.4956H21.0748C20.9505 18.4956 20.8312 18.545 20.7434 18.6329C20.1405 19.2358 19.3388 19.5679 18.4859 19.5679C17.6331 19.5679 16.8314 19.2358 16.2285 18.6329C16.1406 18.545 16.0213 18.4956 15.897 18.4956H14.2745V13.1935H15.897C16.0213 13.1935 16.1406 13.1441 16.2285 13.0562C16.8314 12.4533 17.6331 12.1212 18.4859 12.1212C19.3388 12.1212 20.1405 12.4533 20.7434 13.0562C20.8312 13.1441 20.9505 13.1935 21.0748 13.1935H22.6974V18.4956ZM22.6974 12.256H21.2624C20.5009 11.5631 19.5226 11.1837 18.4859 11.1837C17.4491 11.1837 16.4708 11.5631 15.7094 12.256H14.2744V11.501C14.2744 9.51065 14.8039 9.09342 15.4171 8.61028C16.081 8.0872 16.8333 7.49428 16.8333 5.32122V3.1445H20.1383V5.32122C20.1383 7.49443 20.8908 8.08753 21.5547 8.61084C22.1678 9.09412 22.6973 9.51149 22.6973 11.501V12.256H22.6974Z" fill="#00CBBF"/>
<path d="M20.8771 16.5477H16.0952C15.8363 16.5477 15.6265 16.7576 15.6265 17.0164C15.6265 17.2753 15.8363 17.4852 16.0952 17.4852H20.8771C21.136 17.4852 21.3459 17.2753 21.3459 17.0164C21.3459 16.7576 21.136 16.5477 20.8771 16.5477Z" fill="#00CBBF"/>
<path d="M16.0952 14.2039C15.8363 14.2039 15.6265 14.4138 15.6265 14.6727C15.6265 14.9315 15.8363 15.1414 16.0952 15.1414H20.8771C21.136 15.1414 21.3459 14.9315 21.3459 14.6727C21.3459 14.4138 21.136 14.2039 20.8771 14.2039H16.0952Z" fill="#00CBBF"/>
<path d="M11.2178 16.3517C10.9589 16.3517 10.749 16.5623 10.749 16.8212C10.749 17.0801 10.9589 17.29 11.2178 17.29C11.4767 17.29 11.6865 17.08 11.6865 16.8212V16.8199C11.6865 16.561 11.4767 16.3517 11.2178 16.3517Z" fill="#00CBBF"/>
</g>
<defs>
<clipPath id="clip0">
<rect width="24" height="24" fill="white"/>
</clipPath>
</defs>
</svg>
