<svg width="24" height="24" viewBox="0 0 24 24" fill="none" xmlns="http://www.w3.org/2000/svg">
<path d="M23.2957 16.8277H21.7266V9.98625C22.5144 9.80531 23.1094 9.01363 23.1094 8.06718C23.1094 6.98749 22.3352 6.10912 21.3837 6.10912H19.606C19.4118 6.10912 19.2544 6.28772 19.2544 6.50802C19.2544 6.72831 19.4118 6.90691 19.606 6.90691H21.3837C21.9475 6.90691 22.4063 7.4274 22.4063 8.06718C22.4063 8.7069 21.9475 9.22738 21.3837 9.22738H18.1207C17.2141 9.22738 16.4766 10.0642 16.4766 11.0928V14.054C16.4766 14.653 16.0471 15.1404 15.5191 15.1404C14.9911 15.1404 14.5616 14.653 14.5616 14.054V11.0928C14.5616 10.0642 13.8241 9.22738 12.9175 9.22738C12.011 9.22738 11.2734 10.0643 11.2734 11.0928V12.2845C11.2734 12.8271 10.8844 13.2685 10.4063 13.2685C9.92808 13.2685 9.53906 12.8271 9.53906 12.2845V11.0928C9.53906 10.0642 8.80153 9.22738 7.89497 9.22738H2.61633C2.05247 9.22738 1.59375 8.7069 1.59375 8.06718C1.59375 7.4274 2.05247 6.90691 2.61633 6.90691H17.9878C18.1819 6.90691 18.3393 6.72831 18.3393 6.50802C18.3393 6.28772 18.1819 6.10912 17.9878 6.10912H16.1947C16.1952 6.10859 16.1957 6.10805 16.1962 6.10752C17.2697 4.88945 17.6491 3.00606 17.2111 1.06944C17.1374 0.743832 16.9134 0.489548 16.6265 0.40578C14.9198 -0.0922048 13.2595 0.33818 12.1855 1.55689C11.8836 1.89952 11.6369 2.28922 11.4475 2.71545C10.9193 2.19545 10.2426 1.90436 9.53245 1.90436C9.34575 1.90436 9.16336 1.92516 8.98631 1.96329C8.76005 1.29702 8.35566 0.56385 7.63228 0.0591636C7.46681 -0.0562509 7.25035 0.00236069 7.14867 0.190002C7.04695 0.377697 7.09861 0.623365 7.26399 0.738726C7.809 1.11896 8.12616 1.68342 8.31131 2.20869C7.3072 2.73465 6.60834 3.88726 6.60834 5.22223C6.60834 5.5255 6.64439 5.82212 6.71456 6.10912H2.61633C1.66477 6.10912 0.890625 6.98749 0.890625 8.06718C0.890625 9.01363 1.48561 9.80531 2.27344 9.98625V16.8277H0.704344C0.315984 16.8277 0 17.1862 0 17.6269V18.7031C0 19.6588 0.685266 20.4363 1.52752 20.4363H1.93772V21.5264C1.93772 22.0632 2.32266 22.5 2.79581 22.5H21.2042C21.6773 22.5 22.0623 22.0632 22.0623 21.5264V20.4363H22.4725C23.3148 20.4363 24 19.6587 24 18.7031V17.6269C24 17.1862 23.684 16.8277 23.2957 16.8277ZM12.6827 2.12099C13.5925 1.08869 14.9662 0.745215 16.4513 1.17842C16.4894 1.18948 16.5203 1.22458 16.53 1.26772C16.9112 2.95314 16.6083 4.51156 15.699 5.54337C15.5089 5.75899 15.2951 5.94738 15.0633 6.10327C15.0607 6.10508 15.0582 6.1072 15.0556 6.10907H12.6813L13.4353 5.25351C13.6923 5.32515 13.9542 5.36169 14.2187 5.36169C14.3408 5.36169 14.4634 5.35403 14.5863 5.33866C14.7793 5.31457 14.9186 5.11751 14.8973 4.89854C14.8761 4.67952 14.7023 4.5214 14.5095 4.54565C14.355 4.5649 14.2013 4.56863 14.049 4.55724L14.4258 4.12973C14.6828 4.20138 14.9447 4.23791 15.2093 4.23791C15.3313 4.23791 15.4539 4.23026 15.5768 4.21488C15.7698 4.19079 15.9091 3.99374 15.8879 3.77477C15.8666 3.55575 15.6929 3.39752 15.5 3.42187C15.3456 3.44113 15.1919 3.4448 15.0395 3.43342L15.5193 2.889C15.6566 2.73322 15.6566 2.48063 15.5193 2.3249C15.382 2.16912 15.1594 2.16912 15.0222 2.3249L14.5424 2.86927C14.5324 2.69641 14.5356 2.52201 14.5526 2.34682C14.5738 2.12785 14.4345 1.93079 14.2416 1.9067C14.049 1.88266 13.8749 2.04062 13.8537 2.25959C13.8109 2.70109 13.8368 3.13903 13.9291 3.56511L13.5519 3.99304C13.5419 3.82019 13.5451 3.64579 13.5621 3.47059C13.5833 3.25157 13.4441 3.05457 13.2511 3.03048C13.0582 3.00644 12.8844 3.16445 12.8632 3.38337C12.8204 3.82492 12.8464 4.26286 12.9386 4.68894L11.776 6.00812C11.5221 4.47406 11.8463 3.07015 12.6827 2.12099ZM7.31142 5.22218C7.31142 4.25079 7.79859 3.40661 8.51002 2.98612C8.56725 3.32752 8.5703 3.56303 8.5703 3.57058C8.57072 3.79046 8.72799 3.96852 8.92186 3.96852C9.11602 3.96852 9.27342 3.78992 9.27342 3.56963C9.27342 3.53389 9.27075 3.19854 9.18525 2.73306C9.29841 2.71279 9.41433 2.70205 9.53245 2.70205C10.1575 2.70205 10.7487 2.99915 11.1694 3.5199C10.9658 4.31248 10.9313 5.1925 11.0774 6.10901H7.45289C7.35905 5.82649 7.31142 5.5288 7.31142 5.22218ZM18.1207 10.0252H21.0234V11.6156H17.1797V11.0928C17.1797 10.5042 17.6018 10.0252 18.1207 10.0252ZM12.9175 10.0252C13.4364 10.0252 13.8585 10.5041 13.8585 11.0928V11.6156H11.9766V11.0928C11.9766 10.5042 12.3987 10.0252 12.9175 10.0252ZM8.83594 11.0928V11.6156H2.97656V10.0252H7.89497C8.41383 10.0252 8.83594 10.5042 8.83594 11.0928ZM23.2969 18.7031C23.2969 19.2188 22.927 19.6385 22.4725 19.6385H18.8091C18.615 19.6385 18.4576 19.8171 18.4576 20.0374C18.4576 20.2577 18.615 20.4363 18.8091 20.4363H21.3592V21.5264C21.3592 21.6233 21.2896 21.7022 21.2042 21.7022H2.79581C2.71036 21.7022 2.64084 21.6233 2.64084 21.5264V20.4363H17.1909C17.385 20.4363 17.5425 20.2577 17.5425 20.0374C17.5425 19.8171 17.385 19.6385 17.1909 19.6385H1.52752C1.07297 19.6385 0.703125 19.2188 0.703125 18.7031L0.704344 17.6255H9.59714C9.7913 17.6255 9.9487 17.4469 9.9487 17.2266C9.9487 17.0063 9.7913 16.8277 9.59714 16.8277H2.97656V12.4134H8.84049C8.89894 13.3359 9.57858 14.0663 10.4063 14.0663C11.2339 14.0663 11.9136 13.3359 11.972 12.4134H13.8585V14.0541C13.8585 15.093 14.6034 15.9382 15.5191 15.9382C16.4348 15.9382 17.1797 15.093 17.1797 14.0541V12.4134H21.0234V16.8277H11.2154C11.0212 16.8277 10.8638 17.0063 10.8638 17.2266C10.8638 17.4469 11.0212 17.6255 11.2154 17.6255L23.2969 17.6269V18.7031Z" fill="#00CBBF"/>
<path d="M4.37792 13.2684H4.37305C4.17889 13.2684 4.02148 13.447 4.02148 13.6673C4.02148 13.8876 4.17889 14.0662 4.37305 14.0662H4.37792C4.57208 14.0662 4.72948 13.8876 4.72948 13.6673C4.72948 13.447 4.57208 13.2684 4.37792 13.2684Z" fill="#00CBBF"/>
<path d="M5.42089 14.2216H5.41602C5.22186 14.2216 5.06445 14.4002 5.06445 14.6205C5.06445 14.8408 5.22186 15.0194 5.41602 15.0194H5.42089C5.61505 15.0194 5.77245 14.8408 5.77245 14.6205C5.77245 14.4002 5.61509 14.2216 5.42089 14.2216Z" fill="#00CBBF"/>
<path d="M19.125 13.8242H19.1299C19.324 13.8242 19.4814 13.6456 19.4814 13.4253C19.4814 13.205 19.324 13.0264 19.1299 13.0264H19.125C18.9308 13.0264 18.7734 13.205 18.7734 13.4253C18.7734 13.6456 18.9308 13.8242 19.125 13.8242Z" fill="#00CBBF"/>
</svg>
