<svg width="40" height="40" viewBox="0 0 40 40" fill="none" xmlns="http://www.w3.org/2000/svg">
<path d="M20.0002 14.7929C17.133 14.7929 14.7932 17.1328 14.7932 19.9999C14.7932 22.8671 17.133 25.207 20.0002 25.207C22.8674 25.207 25.2072 22.8671 25.2072 19.9999C25.2072 17.1328 22.8674 14.7929 20.0002 14.7929ZM35.6174 19.9999C35.6174 17.8437 35.6369 15.707 35.5158 13.5546C35.3947 11.0546 34.8244 8.83588 32.9963 7.00775C31.1643 5.17572 28.9494 4.60932 26.4494 4.48822C24.2932 4.36713 22.1564 4.38666 20.0041 4.38666C17.8478 4.38666 15.7111 4.36713 13.5588 4.48822C11.0588 4.60932 8.84003 5.17963 7.0119 7.00775C5.17987 8.83978 4.61347 11.0546 4.49237 13.5546C4.37128 15.7109 4.39081 17.8476 4.39081 19.9999C4.39081 22.1523 4.37128 24.2929 4.49237 26.4453C4.61347 28.9453 5.18378 31.164 7.0119 32.9921C8.84394 34.8242 11.0588 35.3906 13.5588 35.5117C15.715 35.6327 17.8517 35.6132 20.0041 35.6132C22.1603 35.6132 24.2971 35.6327 26.4494 35.5117C28.9494 35.3906 31.1682 34.8202 32.9963 32.9921C34.8283 31.1601 35.3947 28.9453 35.5158 26.4453C35.6408 24.2929 35.6174 22.1562 35.6174 19.9999ZM20.0002 28.0117C15.5666 28.0117 11.9885 24.4335 11.9885 19.9999C11.9885 15.5663 15.5666 11.9882 20.0002 11.9882C24.4338 11.9882 28.0119 15.5663 28.0119 19.9999C28.0119 24.4335 24.4338 28.0117 20.0002 28.0117ZM28.34 13.5312C27.3049 13.5312 26.4689 12.6953 26.4689 11.6601C26.4689 10.6249 27.3049 9.789 28.34 9.789C29.3752 9.789 30.2111 10.6249 30.2111 11.6601C30.2114 11.9059 30.1632 12.1493 30.0693 12.3765C29.9754 12.6036 29.8376 12.81 29.6638 12.9838C29.49 13.1577 29.2836 13.2955 29.0564 13.3894C28.8293 13.4833 28.5858 13.5315 28.34 13.5312Z" fill="#FB8172"/>
</svg>
