<svg width="24" height="24" viewBox="0 0 24 24" fill="none" xmlns="http://www.w3.org/2000/svg">
<path d="M21.9594 5.89162C20.865 5.01942 19.3203 4.30533 17.3683 3.76926C13.614 2.7383 9.38039 2.62701 7.73442 2.62701C3.46964 2.62701 0 6.0967 0 10.3615V13.6385C0 17.9033 3.46964 21.373 7.73442 21.373C9.70097 21.373 11.1779 20.757 12.7415 20.1047C14.3585 19.4303 16.0305 18.7328 18.382 18.7328C21.4798 18.7328 24 16.2126 24 13.1148V9.8378C24 8.29847 23.3134 6.97078 21.9594 5.89162ZM21.5647 13.9051C21.7421 14.0937 22.0388 14.1025 22.2273 13.9251C22.5452 13.6258 22.8248 13.2922 23.0625 12.9331V13.1148C23.0625 15.6957 20.9628 17.7953 18.382 17.7953C15.8428 17.7953 14.0827 18.5295 12.3806 19.2395C10.906 19.8545 9.51328 20.4355 7.73442 20.4355C4.13348 20.4355 1.17806 17.6205 0.951938 14.0756C2.26819 16.4696 4.81486 18.0959 7.73442 18.0959C9.70097 18.0959 11.1779 17.4798 12.7415 16.8276C14.3585 16.1531 16.0305 15.4557 18.382 15.4557C18.5567 15.4557 18.7332 15.4475 18.9066 15.4313C19.1644 15.4071 19.3538 15.1786 19.3296 14.9208C19.3055 14.6631 19.0767 14.4738 18.8192 14.4979C18.6747 14.5114 18.5276 14.5183 18.382 14.5183C15.8428 14.5183 14.0827 15.2524 12.3806 15.9624C10.906 16.5774 9.51328 17.1584 7.73442 17.1584C3.98658 17.1584 0.9375 14.1093 0.9375 10.3615C0.9375 6.61369 3.98658 3.56456 7.73442 3.56456C9.34238 3.56456 13.4757 3.67261 17.12 4.67334C21.0631 5.7562 23.0625 7.49376 23.0625 9.8378C23.0625 11.1172 22.5238 12.3582 21.5846 13.2425C21.3961 13.4199 21.3872 13.7166 21.5647 13.9051Z" fill="#00CBBF"/>
<path d="M21.1792 14.2043C21.069 13.97 20.7896 13.8695 20.5555 13.9797C20.5521 13.9813 20.5477 13.9835 20.5443 13.9851C20.3128 14.1009 20.219 14.3825 20.3347 14.614C20.4168 14.7783 20.5824 14.8732 20.7544 14.8732C20.8239 14.8732 20.8944 14.8577 20.9608 14.825C21.1907 14.7129 21.2885 14.4364 21.1792 14.2043Z" fill="#00CBBF"/>
<path d="M11.1181 4.63416L11.094 4.63219C10.8355 4.61203 10.61 4.80413 10.5894 5.06222C10.5688 5.32027 10.7613 5.54616 11.0194 5.56678L11.0433 5.56866C11.056 5.56969 11.0686 5.5702 11.0812 5.5702C11.3231 5.5702 11.5283 5.38411 11.548 5.13881C11.5686 4.88072 11.3761 4.65483 11.1181 4.63416Z" fill="#00CBBF"/>
<path d="M21.8324 8.57497C21.3675 7.65603 20.3329 6.86187 18.7575 6.21462C17.4827 5.69089 16.0886 5.36005 15.1435 5.17466C14.5771 5.06361 13.9836 4.96442 13.3794 4.87995C13.1231 4.84377 12.8861 5.02283 12.8502 5.27928C12.8144 5.53569 12.9931 5.77255 13.2495 5.80841C13.8369 5.89053 14.4134 5.98686 14.9631 6.09467C18.183 6.72613 20.3818 7.78442 20.9959 8.99811C21.1249 9.25316 21.1876 9.5278 21.1876 9.83773C21.1876 11.3847 19.9291 12.6432 18.3821 12.6432C16.818 12.6432 15.2991 12.8988 13.7386 13.4247C13.0665 13.6512 12.4139 13.922 11.7828 14.184C11.3654 14.3572 10.9338 14.5363 10.5053 14.6987C9.42417 15.1085 8.59547 15.2833 7.73452 15.2833C5.02055 15.2833 2.81255 13.0753 2.81255 10.3614C2.81255 7.64745 5.02055 5.43945 7.73452 5.43945C8.26397 5.43945 8.80149 5.44948 9.33202 5.46927C9.42206 5.47259 9.5122 5.4762 9.60239 5.48019C9.86081 5.49191 10.08 5.29119 10.0913 5.03253C10.1028 4.77392 9.90235 4.55497 9.64374 4.54358C9.55139 4.5395 9.45905 4.5358 9.36689 4.53238C8.82478 4.51217 8.27555 4.50195 7.73447 4.50195C4.50356 4.50195 1.875 7.13047 1.875 10.3614C1.875 13.5923 4.50352 16.2208 7.73447 16.2208C8.7158 16.2208 9.64383 16.0278 10.8375 15.5753C11.2796 15.4078 11.7181 15.2258 12.1422 15.0498C12.7587 14.794 13.3963 14.5294 14.038 14.3131C15.5004 13.8202 16.9214 13.5807 18.3821 13.5807C20.446 13.5808 22.1251 11.9016 22.1251 9.83778C22.1251 9.37737 22.0293 8.96431 21.8324 8.57497Z" fill="#00CBBF"/>
<path d="M8.18325 6.36664C6.87281 6.36664 5.80664 7.33343 5.80664 8.52181C5.80664 9.71019 6.87281 10.677 8.18325 10.677C9.49373 10.677 10.5599 9.71019 10.5599 8.52181C10.5599 7.33343 9.49373 6.36664 8.18325 6.36664ZM8.18325 9.73944C7.3897 9.73944 6.74414 9.1932 6.74414 8.52176C6.74414 7.85037 7.3897 7.30409 8.18325 7.30409C8.9768 7.30409 9.62236 7.85033 9.62236 8.52176C9.62236 9.1932 8.9768 9.73944 8.18325 9.73944Z" fill="#00CBBF"/>
</svg>
