<svg width="24" height="24" viewBox="0 0 24 24" fill="none" xmlns="http://www.w3.org/2000/svg">
<g clip-path="url(#clip0)">
<path d="M23.8615 0.135175C23.7334 0.00879978 23.5441 -0.0333876 23.3747 0.0272685L3.90509 6.9693C3.22869 6.55568 2.37074 6.45883 1.58385 6.78466C0.277677 7.32574 -0.344869 8.8286 0.196161 10.1349C1.47205 13.2149 3.31419 15.972 5.67157 18.3293C8.02896 20.6867 10.786 22.5289 13.8661 23.8048C14.1859 23.9372 14.5175 23.9999 14.8439 23.9999C15.8506 23.9999 16.8077 23.4034 17.2162 22.417C17.4911 21.7534 17.4651 21.0391 17.2022 20.4258L23.9757 0.620471C24.0339 0.450221 23.9895 0.261596 23.8615 0.135175ZM6.85306 6.91347L8.91649 6.17782C9.15874 6.43591 9.27682 6.79122 9.22952 7.15057C9.1878 7.46697 9.02543 7.74827 8.77225 7.94257C8.51908 8.13686 8.20558 8.22082 7.88894 8.17924C7.57259 8.13757 7.29134 7.97524 7.09704 7.72202C6.91802 7.48872 6.83285 7.2041 6.85306 6.91347ZM16.3501 22.0582C16.0068 22.8869 15.0533 23.2818 14.2248 22.9385C8.22297 20.4524 3.54847 15.7779 1.06236 9.77603C0.896097 9.37464 0.896097 8.93256 1.06236 8.53113C1.22863 8.12974 1.54124 7.81713 1.94263 7.65086C2.34402 7.4846 2.78614 7.4846 3.18753 7.65086C3.58892 7.81713 3.90153 8.12974 4.0678 8.53113C5.1319 11.1002 6.66846 13.3998 8.63477 15.3661C10.6011 17.3324 12.9007 18.8689 15.4697 19.9331C16.2984 20.2762 16.6933 21.2296 16.3501 22.0582ZM20.5146 7.84347C20.4721 7.84244 20.4297 7.84 20.3873 7.83447C20.0709 7.7928 19.7897 7.63043 19.5954 7.37725C19.4011 7.12408 19.3171 6.81035 19.3587 6.49399C19.4447 5.84084 20.0459 5.37949 20.6993 5.46537C20.9009 5.4919 21.0901 5.57009 21.2515 5.68901L20.5146 7.84347ZM21.5631 4.77757C21.3347 4.65321 21.0838 4.57038 20.8216 4.53589C19.6558 4.38199 18.5827 5.20591 18.4292 6.37165C18.3549 6.9363 18.5049 7.49613 18.8516 7.948C19.1856 8.38324 19.6637 8.66758 20.2031 8.7543L19.2714 11.4786L18.1999 10.6564C17.9946 10.4989 17.7002 10.5376 17.5427 10.743C17.3851 10.9484 17.4239 11.2426 17.6292 11.4002L18.9513 12.4147L16.5282 19.5C16.3249 19.3233 16.0909 19.1755 15.8287 19.0669C10.8609 17.0091 6.99185 13.1401 4.93418 8.17235C4.86265 7.99957 4.77378 7.83916 4.67126 7.69141L5.92653 7.24385C5.97035 7.62204 6.11553 7.98279 6.35332 8.29268C6.70001 8.74455 7.20199 9.03433 7.76665 9.10863C7.86124 9.1211 7.95555 9.12728 8.0494 9.12728C8.51571 9.12728 8.96683 8.97494 9.34301 8.68633C9.79493 8.33955 10.0847 7.83766 10.159 7.27291C10.2258 6.76596 10.1074 6.26383 9.8418 5.84787L15.6687 3.77028L15.8895 4.30343C15.9643 4.48395 16.1388 4.59293 16.3228 4.59293C16.3825 4.59293 16.4433 4.5814 16.502 4.55712C16.7411 4.45807 16.8547 4.18381 16.7557 3.94465L16.5529 3.45504L22.7741 1.23683L21.5631 4.77757Z" fill="#00CBBF"/>
<path d="M5.06228 12.5755C5.06087 12.5733 5.05698 12.5673 5.05548 12.5651C4.91195 12.3498 4.62147 12.292 4.40608 12.4354C4.19106 12.5786 4.13275 12.8692 4.27506 13.0846C4.36483 13.2225 4.51501 13.2977 4.66843 13.2977C4.75525 13.2977 4.84304 13.2736 4.92142 13.2232C5.1392 13.0832 5.20225 12.7932 5.06228 12.5755Z" fill="#00CBBF"/>
<path d="M4.34937 11.411C3.89258 10.6101 3.48195 9.77184 3.12894 8.9197C3.02989 8.68045 2.75553 8.56701 2.51652 8.66606C2.27731 8.76511 2.16378 9.03932 2.26287 9.27848C2.63084 10.1668 3.0589 11.0406 3.53506 11.8754C3.62154 12.027 3.77979 12.112 3.94264 12.112C4.02139 12.112 4.10122 12.0921 4.17443 12.0504C4.39929 11.9221 4.47767 11.6358 4.34937 11.411Z" fill="#00CBBF"/>
<path d="M14.6686 5.99943C14.5757 5.98714 14.4814 5.98096 14.3882 5.98096C13.3233 5.98096 12.4153 6.77806 12.2762 7.83509C12.1227 9.00078 12.9462 10.074 14.1119 10.2275C14.2048 10.2398 14.2991 10.246 14.3923 10.246C15.4571 10.246 16.3651 9.44886 16.5043 8.39173C16.6577 7.2261 15.8343 6.15289 14.6686 5.99943ZM15.5749 8.26939C15.4969 8.86175 14.9885 9.30842 14.3923 9.30842C14.3399 9.30842 14.2867 9.30495 14.2343 9.29801C13.5811 9.212 13.1197 8.61064 13.2057 7.95744C13.2837 7.36513 13.792 6.9185 14.3882 6.9185C14.4406 6.9185 14.4938 6.92197 14.5462 6.92891C15.1994 7.01497 15.6608 7.61628 15.5749 8.26939Z" fill="#00CBBF"/>
<path d="M14.5468 11.83C14.4538 11.8177 14.3595 11.8115 14.2663 11.8115C13.2015 11.8115 12.2935 12.6086 12.1544 13.6657C12.08 14.2304 12.23 14.7902 12.5767 15.2421C12.9234 15.694 13.4253 15.9838 13.99 16.0582C14.0829 16.0704 14.1772 16.0765 14.2703 16.0765C15.3352 16.0765 16.2432 15.2794 16.3824 14.2223C16.5359 13.0567 15.7124 11.9836 14.5468 11.83ZM15.453 14.1C15.375 14.6924 14.8666 15.139 14.2704 15.139C14.2181 15.139 14.1649 15.1355 14.1125 15.1286C13.7961 15.0869 13.5148 14.9245 13.3205 14.6714C13.1262 14.4182 13.0422 14.1045 13.0838 13.7881C13.1618 13.1957 13.6702 12.7491 14.2663 12.7491C14.3187 12.7491 14.3719 12.7525 14.4244 12.7595C15.0775 12.8455 15.5389 13.4469 15.453 14.1Z" fill="#00CBBF"/>
<path d="M11.4551 9.88804L10.0144 9.69834C9.75784 9.66426 9.52225 9.8452 9.48845 10.1018C9.45461 10.3585 9.63531 10.594 9.89195 10.6278L11.3327 10.8175C11.3535 10.8202 11.3741 10.8216 11.3945 10.8216C11.6261 10.8216 11.8276 10.6498 11.8586 10.414C11.8925 10.1573 11.7118 9.92184 11.4551 9.88804Z" fill="#00CBBF"/>
<path d="M10.7243 13.3473L10.5971 12.3805C10.5633 12.1238 10.3279 11.9431 10.0712 11.977C9.8145 12.0108 9.63384 12.2462 9.66764 12.5029L9.7949 13.4696C9.82594 13.7055 10.0274 13.8772 10.259 13.8772C10.2794 13.8772 10.3 13.8759 10.3207 13.8732C10.5774 13.8394 10.7581 13.604 10.7243 13.3473Z" fill="#00CBBF"/>
</g>
<defs>
<clipPath id="clip0">
<rect width="24" height="24" fill="white"/>
</clipPath>
</defs>
</svg>
