<svg width="24" height="24" viewBox="0 0 24 24" fill="none" xmlns="http://www.w3.org/2000/svg">
<g clip-path="url(#clip0)">
<path d="M23.5994 15.2006H0.40096C0.180179 15.2006 0.000976562 15.3794 0.000976562 15.6006C0.000976562 20.2319 3.76874 24 8.4004 24H15.5999C20.2312 24 23.9993 20.2319 23.9993 15.6006C23.9993 15.3794 23.8206 15.2006 23.5994 15.2006ZM15.5999 23.2001H8.4004C4.34427 23.2001 1.02008 20.0059 0.811303 16.0005H23.189C22.9802 20.0059 19.656 23.2001 15.5999 23.2001Z" fill="#00CBBF"/>
<path d="M20.4009 5.60373C20.4009 5.57452 20.4004 5.54532 20.3977 5.50093C20.3361 4.83779 19.8801 4.29301 19.2782 4.08864L19.7309 3.63587C20.5161 2.86675 20.5949 1.63642 19.9077 0.767691C19.1718 -0.126636 17.8454 -0.253854 16.9515 0.481707C16.9007 0.523707 16.8515 0.568097 16.8023 0.617316L16.3103 1.11649C16.1039 0.517707 15.558 0.0649421 14.8852 0.00255162C13.9993 -0.0458233 13.2493 0.634097 13.2018 1.51483C13.2002 1.54403 13.1997 1.57324 13.1997 1.60202V2.21519C12.9646 2.07878 12.6922 2.00041 12.4014 1.99999C12.3726 1.99999 12.343 2.00078 12.2986 2.00317C11.4435 2.08277 10.7856 2.81753 10.7999 3.66944V4.21342C10.5599 4.07462 10.2864 4.00023 10.0016 3.99981C9.97283 3.99981 9.94363 4.00061 9.89924 4.003C9.04368 4.08259 8.38574 4.81735 8.40013 5.66931V11.6009C8.40013 11.8221 8.57934 12.0009 8.80012 12.0009H15.5997C16.482 12.0009 17.1995 11.2833 17.1991 10.4018C17.1991 10.1106 17.1211 9.83742 16.9843 9.60188H17.5247C18.3838 9.62545 19.1186 8.95791 19.199 8.08716C19.2162 7.76157 19.1346 7.4536 18.9802 7.19204C19.3394 7.15205 19.6718 6.99324 19.9309 6.73487C20.2332 6.43327 20.4004 6.0317 20.4009 5.60373ZM19.3661 6.16848C19.2149 6.31885 19.0145 6.40168 18.8006 6.40168C18.8001 6.40168 18.7998 6.40168 18.7993 6.40168H17.5994C17.3782 6.40168 17.1994 6.58088 17.1994 6.80166C17.1994 7.02244 17.3782 7.20165 17.5994 7.20165L17.6434 7.20287C18.0842 7.22644 18.4234 7.60402 18.401 8.0288C18.3602 8.46957 17.9862 8.81077 17.5315 8.80153H15.5996C15.3784 8.80153 15.1996 8.98074 15.1996 9.20152C15.1996 9.4223 15.3784 9.6015 15.5996 9.6015C16.0408 9.6015 16.3996 9.96028 16.3996 10.4015C16.3996 10.8427 16.0408 11.2014 15.5996 11.2014H9.20001V5.66251C9.19241 5.21973 9.5324 4.84098 9.95755 4.80095L10.0011 4.79973C10.4415 4.8001 10.7995 5.15851 10.7999 5.59848V5.60129C10.7999 5.82207 10.9787 6.00127 11.1995 6.00127C11.1999 6.00127 11.1999 6.00127 11.1999 6.00127C11.4207 6.00127 11.5994 5.82249 11.5999 5.60171V5.60134V3.66264C11.5923 3.21986 11.9323 2.84111 12.3574 2.80108L12.4006 2.79986C12.8414 2.80066 13.1994 3.15901 13.1998 3.5994V3.60179C13.1998 3.82258 13.3786 4.00178 13.5994 4.00178C13.5998 4.00178 13.5998 4.00178 13.5998 4.00178C13.8206 4.00178 13.9993 3.823 13.9998 3.60222V3.60179V1.60197L14.001 1.55758C14.0242 1.11719 14.3929 0.77805 14.8265 0.800034C15.2681 0.841237 15.6077 1.21999 15.5993 1.67036V2.00233C15.5993 2.16433 15.6973 2.31072 15.8477 2.37231C15.9969 2.43391 16.1704 2.3987 16.284 2.28273L17.3691 1.1816C17.3987 1.15239 17.4291 1.12478 17.4607 1.09882C18.0143 0.64366 18.8346 0.722831 19.2858 1.27C19.713 1.81075 19.6638 2.58189 19.1686 3.06709L18.1167 4.11901C18.0023 4.23339 17.9679 4.40537 18.0299 4.555C18.0915 4.7042 18.2379 4.80179 18.3994 4.80179H18.7314C18.7398 4.80179 18.7458 4.80179 18.7526 4.80179C19.1894 4.80179 19.5605 5.13859 19.5997 5.55934L19.6009 5.60335C19.6005 5.81692 19.5173 6.01768 19.3661 6.16848Z" fill="#00CBBF"/>
<path d="M17.3172 2.51784L6.11816 13.7169L6.68379 14.2825L17.8828 3.08346L17.3172 2.51784Z" fill="#00CBBF"/>
<path d="M15.5993 3.20374H14.7993V5.20361H15.5993V3.20374Z" fill="#00CBBF"/>
<path d="M13.1989 5.20361H12.3989V7.60347H13.1989V5.20361Z" fill="#00CBBF"/>
<path d="M10.7995 7.19952H9.99951V9.99932H10.7995V7.19952Z" fill="#00CBBF"/>
<path d="M17.1986 4.80371H15.1987V5.60363H17.1986V4.80371Z" fill="#00CBBF"/>
<path d="M15.1992 7.19952H12.7993V7.99944H15.1992V7.19952Z" fill="#00CBBF"/>
<path d="M13.1992 9.59937H10.3994V10.3993H13.1992V9.59937Z" fill="#00CBBF"/>
<path d="M7.46632 1.85029C7.46594 1.84949 7.4651 1.8487 7.46472 1.8479C6.90035 1.00275 5.75323 0.773152 4.90849 1.33753C4.8821 1.35473 4.85609 1.3731 4.82651 1.39514L4.68251 1.50473L4.54414 1.40512C3.81218 0.722387 2.66145 0.749996 1.9647 1.47314C1.62355 1.82671 1.44036 2.29228 1.44955 2.78385C1.45874 3.27543 1.65833 3.73377 2.01153 4.07455C2.11433 4.17374 2.2287 4.26093 2.35189 4.33373L2.68869 4.59693V4.80172C2.68869 5.90446 3.58583 6.8016 4.68856 6.8016C5.79129 6.8016 6.68843 5.90404 6.68801 4.80135V4.59655L7.04201 4.32018C7.8079 3.73898 7.9939 2.65387 7.46632 1.85029ZM6.55399 3.68657L6.04202 4.08655C5.94523 4.16216 5.88841 4.27855 5.88841 4.40174V4.80172C5.88841 5.46327 5.35006 6.00163 4.68851 6.00163C4.02697 6.00163 3.48861 5.46327 3.48861 4.80172V4.40174C3.48861 4.27855 3.43222 4.16216 3.335 4.08655L2.82303 3.68657C2.80784 3.67457 2.79144 3.66379 2.77466 3.65418C2.69947 3.61138 2.62986 3.5594 2.56747 3.49898C2.3675 3.30618 2.25467 3.04701 2.24947 2.76942C2.24427 2.49182 2.34786 2.22867 2.54066 2.02865C2.74423 1.81748 3.01662 1.71107 3.28939 1.71107C3.54936 1.71107 3.80975 1.80745 4.01136 2.00226C4.02495 2.01506 4.03934 2.02748 4.05495 2.03863L4.45493 2.32663C4.59734 2.42943 4.79051 2.42704 4.93053 2.32063L5.35212 2.00348C5.5841 1.84828 5.86207 1.7939 6.13568 1.8479C6.40844 1.90228 6.64404 2.05949 6.79882 2.29068C7.09558 2.74424 6.98997 3.3554 6.55399 3.68657Z" fill="#00CBBF"/>
<path d="M9.59929 0.399963H8.79932V1.19988H9.59929V0.399963Z" fill="#00CBBF"/>
<path d="M11.9991 13.1992H11.1992V13.9991H11.9991V13.1992Z" fill="#00CBBF"/>
<path d="M21.5991 2.40179V3.20176C22.0403 3.20176 22.3991 3.56054 22.3991 4.00168C22.3991 4.44282 22.0403 4.80165 21.5991 4.80165V5.60157C22.4814 5.60157 23.199 4.88401 23.199 4.00168C23.199 3.11936 22.4814 2.40179 21.5991 2.40179Z" fill="#00CBBF"/>
<path d="M1.59973 6.00354H0.799805V6.80351H1.59973V6.00354Z" fill="#00CBBF"/>
<path d="M0.800897 4.40375H0.000976562V5.20371H0.800897V4.40375Z" fill="#00CBBF"/>
<path d="M15.5999 12.8007C14.7176 12.8007 14 13.5183 14 14.4006H14.8C14.8 13.9594 15.1587 13.6006 15.5999 13.6006C16.0411 13.6006 16.3999 13.9594 16.3999 14.4006H17.1998C17.1998 13.5183 16.4822 12.8007 15.5999 12.8007Z" fill="#00CBBF"/>
<path d="M4.80064 9.201H4.75025C4.57184 8.51185 3.94508 8.0011 3.20075 8.0011C2.45643 8.0011 1.82924 8.51185 1.65125 9.201H1.60086C0.718538 9.201 0.000976562 9.91856 0.000976562 10.8009C0.000976562 11.6832 0.718538 12.4008 1.60086 12.4008H4.80064C5.68297 12.4008 6.40053 11.6832 6.40053 10.8009C6.40053 9.91856 5.68297 9.201 4.80064 9.201ZM4.80064 11.6012H1.60082C1.15963 11.6012 0.80085 11.2425 0.80085 10.8013C0.80085 10.3601 1.15963 10.0013 1.60082 10.0013H2.0008C2.22158 10.0013 2.40078 9.82214 2.40078 9.60136C2.40078 9.16017 2.75957 8.80144 3.20075 8.80144C3.64194 8.80144 4.00072 9.16022 4.00072 9.60136C4.00072 9.82214 4.17992 10.0013 4.4007 10.0013H4.80069C5.24187 10.0013 5.60065 10.3601 5.60065 10.8013C5.60056 11.2425 5.24178 11.6012 4.80064 11.6012Z" fill="#00CBBF"/>
<path d="M4.00036 11.6008H2.40047C2.17969 11.6008 2.00049 11.78 2.00049 12.0008V13.6007C2.00049 13.8219 2.17969 14.0007 2.40047 14.0007H4.00036C4.22114 14.0007 4.40034 13.8219 4.40034 13.6007V12.0008C4.40034 11.78 4.22114 11.6008 4.00036 11.6008ZM3.60038 13.2007H2.80046V12.4008H3.60042V13.2007H3.60038Z" fill="#00CBBF"/>
<path d="M21.1994 10.4009C20.5379 10.4009 19.9995 10.9392 19.9995 11.6008C19.9995 12.2623 20.5379 12.8007 21.1994 12.8007C21.861 12.8007 22.3993 12.2623 22.3993 11.6008C22.3993 10.9392 21.861 10.4009 21.1994 10.4009ZM21.1994 12.0011C20.9786 12.0011 20.7994 11.8216 20.7994 11.6012C20.7994 11.3808 20.9786 11.2012 21.1994 11.2012C21.4202 11.2012 21.5994 11.3804 21.5994 11.6012C21.5994 11.822 21.4202 12.0011 21.1994 12.0011Z" fill="#00CBBF"/>
<path d="M21.1992 8.80109C19.6557 8.80109 18.3994 10.057 18.3994 11.6009C18.3994 13.1448 19.6557 14.4007 21.1992 14.4007C22.7427 14.4007 23.999 13.1448 23.999 11.6009C23.999 10.057 22.7427 8.80109 21.1992 8.80109ZM21.1992 13.6011C20.0965 13.6011 19.1993 12.7036 19.1993 11.6013C19.1993 10.4985 20.0965 9.60138 21.1992 9.60138C22.3019 9.60138 23.1991 10.4985 23.1991 11.6013C23.1991 12.704 22.3019 13.6011 21.1992 13.6011Z" fill="#00CBBF"/>
</g>
<defs>
<clipPath id="clip0">
<rect width="24" height="24" fill="white"/>
</clipPath>
</defs>
</svg>
