<svg width="52" height="52" viewBox="0 0 52 52" fill="none" xmlns="http://www.w3.org/2000/svg">
<path d="M10.4006 8.66723H11.2675C11.7459 8.66723 12.1339 8.27923 12.1339 7.80078C12.1339 7.32193 11.7459 6.93393 11.2675 6.93393H10.4006C9.92218 6.93393 9.53418 7.32193 9.53418 7.80078C9.53418 8.27923 9.92218 8.66723 10.4006 8.66723Z" fill="#FA8071"/>
<path d="M14.734 8.66721H26.0005C26.479 8.66721 26.867 8.27921 26.867 7.80077C26.867 7.32192 26.479 6.93393 26.0005 6.93393H14.734C14.2556 6.93393 13.8672 7.32192 13.8672 7.80077C13.8672 8.27921 14.2556 8.66721 14.734 8.66721Z" fill="#FA8071"/>
<path d="M44.1326 27.7337H42.2494C42.2434 27.7337 42.2371 27.7337 42.2311 27.7337C41.8368 27.7345 41.4448 27.7928 41.0671 27.907C41.0378 27.9138 41.0088 27.9221 40.9806 27.932C40.5216 28.0911 40.0951 28.3323 39.7222 28.6438C39.9103 26.6502 40.8973 23.7557 44.6432 21.544C45.0419 21.2953 45.1696 20.7736 44.9308 20.3685C44.6916 19.9635 44.1735 19.8226 43.7625 20.0515C41.4357 21.3155 39.6207 23.3495 38.6285 25.8044C38.5824 25.6545 38.5333 25.5081 38.4793 25.3712C38.0453 24.2294 37.33 23.2158 36.3993 22.4247V7.80075C36.3993 6.36462 35.2353 5.20063 33.7996 5.20063H30.1735C29.8073 4.16559 28.8306 3.47212 27.7329 3.46735H23.09C22.3617 1.39051 20.4007 0 18.1996 0C15.9986 0 14.0376 1.39051 13.3092 3.46735H8.6664C7.56867 3.47212 6.59194 4.16559 6.22616 5.20063H2.60012C1.16398 5.20063 0 6.36462 0 7.80075V49.3999C0 50.836 1.16398 52 2.60012 52H33.7996C34.2046 52.0004 34.6041 51.904 34.9643 51.7183C35.7558 51.904 36.5663 51.9988 37.3796 52H40.6192C46.8938 52 51.9992 46.5582 51.9992 39.8666V36.114C51.9992 31.495 48.4704 27.7337 44.1326 27.7337ZM36.8587 25.9917C37.084 26.6717 37.2463 27.3707 37.3431 28.0804C37.2566 28.0431 37.1792 27.9935 37.092 27.965C36.6655 27.8118 36.2156 27.7337 35.7625 27.7337C35.7554 27.7337 35.7502 27.7337 35.7435 27.7337H33.8662C33.6286 27.7337 33.3949 27.7499 33.1624 27.7718C33.141 27.7658 33.1251 27.7519 33.1025 27.7476C30.2342 27.1731 30.2739 23.8268 30.3822 22.629C30.9352 22.5652 31.4914 22.5342 32.048 22.5362H32.0663C34.2356 22.5557 36.1569 23.9422 36.8587 25.9952V25.9917ZM28.0534 46.8002H5.19984V10.4005H6.22616C6.59194 11.4355 7.56867 12.1294 8.6664 12.1338H27.7329C28.8306 12.1294 29.8073 11.4355 30.1735 10.4005H31.1994V20.8132C28.9611 20.893 28.8128 21.5162 28.733 21.8725C28.4279 23.6554 28.5831 26.8125 30.6464 28.4791C27.7634 29.9244 25.9587 32.8895 25.9996 36.114V39.8666C25.9925 42.3287 26.7066 44.7392 28.0534 46.8002ZM34.666 7.80075V21.3627C34.1114 21.1298 33.5286 20.9704 32.9327 20.8878V10.4005C32.9327 9.44318 32.1567 8.6672 31.1994 8.6672H30.333V6.93392H33.7996C34.278 6.93392 34.666 7.32191 34.666 7.80075ZM8.6664 5.20063H13.9531C13.9825 5.19627 14.011 5.19032 14.0396 5.18239C14.094 5.17683 14.1471 5.16612 14.1991 5.15025C14.2542 5.13399 14.3074 5.11177 14.3578 5.08439C14.5018 5.00703 14.62 4.88881 14.6974 4.7448C14.7255 4.69442 14.7482 4.64126 14.7644 4.58611C14.7775 4.55993 14.789 4.53335 14.7989 4.50558C15.1286 2.89211 16.5485 1.73328 18.1953 1.73328C19.8425 1.73328 21.2619 2.89211 21.5916 4.50558C21.6019 4.53692 21.6142 4.56747 21.6281 4.59762C21.6416 4.63967 21.6579 4.68132 21.6769 4.72139C21.7059 4.77733 21.7416 4.8301 21.7824 4.8781C21.8074 4.91103 21.8344 4.94158 21.8638 4.97014C21.9153 5.01457 21.9717 5.05266 22.032 5.0836C22.1538 5.16652 22.2994 5.20778 22.4462 5.20063H27.7329C28.2117 5.20063 28.5997 5.58863 28.5997 6.06747V9.53403C28.5997 10.0125 28.2117 10.4005 27.7329 10.4005H8.6664C8.18795 10.4005 7.79996 10.0125 7.79996 9.53403V6.06747C7.79996 5.58863 8.18795 5.20063 8.6664 5.20063ZM2.60012 50.2667C2.12127 50.2667 1.73328 49.8787 1.73328 49.3999V7.80075C1.73328 7.32191 2.12127 6.93392 2.60012 6.93392H6.06668V8.6672H5.19984C4.24255 8.6672 3.46656 9.44318 3.46656 10.4005V46.8002C3.46656 47.7575 4.24255 48.5334 5.19984 48.5334H29.4297C30.0644 49.1928 30.7746 49.7744 31.5462 50.2667H2.60012ZM50.2659 39.8666C50.2659 45.6005 45.9377 50.2667 40.6192 50.2667H37.3796C32.0611 50.2667 27.7329 45.6025 27.7329 39.8666V36.114C27.7329 32.4507 30.4845 29.467 33.8662 29.467H35.7772C36.0252 29.4693 36.2707 29.5134 36.5044 29.5971C37.5121 30.0005 38.1619 30.9896 38.1326 32.0746V32.9335C38.1326 33.4124 38.5206 33.8004 38.9994 33.8004C39.4778 33.8004 39.8658 33.4124 39.8658 32.9335V32.0722C39.8337 30.9884 40.4784 29.9986 41.4833 29.5907L41.5249 29.5788C41.7491 29.5066 41.9828 29.4685 42.218 29.4654H44.1318C47.5143 29.467 50.2659 32.4507 50.2659 36.114V39.8666Z" fill="#FA8071"/>
<path d="M32.6597 31.2447C32.5287 31.2872 29.4668 32.3556 29.4668 36.4002C29.4668 36.8791 29.8548 37.2671 30.3336 37.2671C30.8121 37.2671 31.2001 36.8791 31.2001 36.4002C31.2001 33.6497 33.1171 32.9217 33.2151 32.8868C33.6685 32.7336 33.9121 32.2413 33.7586 31.7878C33.6051 31.3344 33.1131 31.0912 32.6597 31.2447Z" fill="#FA8071"/>
<path d="M11.2675 14.7338H8.66739C7.71008 14.7338 6.93408 15.5098 6.93408 16.4671V19.0673C6.93408 20.0246 7.71008 20.8006 8.66739 20.8006H11.2675C12.2248 20.8006 13.0008 20.0246 13.0008 19.0673V16.4671C13.0008 15.5098 12.2248 14.7338 11.2675 14.7338ZM8.66739 19.0673V16.4671H11.2675V19.0673H8.66739Z" fill="#FA8071"/>
<path d="M11.2675 22.5339H8.66739C7.71008 22.5339 6.93408 23.3099 6.93408 24.2672V26.867C6.93408 27.8243 7.71008 28.6007 8.66739 28.6007H11.2675C12.2248 28.6007 13.0008 27.8243 13.0008 26.867V24.2672C13.0008 23.3099 12.2248 22.5339 11.2675 22.5339ZM8.66739 26.867V24.2672H11.2675V26.867H8.66739Z" fill="#FA8071"/>
<path d="M11.2675 30.3338H8.66739C7.71008 30.3338 6.93408 31.1098 6.93408 32.0671V34.6669C6.93408 35.6242 7.71008 36.4002 8.66739 36.4002H11.2675C12.2248 36.4002 13.0008 35.6242 13.0008 34.6669V32.0671C13.0008 31.1098 12.2248 30.3338 11.2675 30.3338ZM8.66739 34.6669V32.0671H11.2675V34.6669H8.66739Z" fill="#FA8071"/>
<path d="M11.2675 38.1332H8.66739C7.71008 38.1332 6.93408 38.9092 6.93408 39.8665V42.4667C6.93408 43.424 7.71008 44.2 8.66739 44.2H11.2675C12.2248 44.2 13.0008 43.424 13.0008 42.4667V39.8665C13.0008 38.9092 12.2248 38.1332 11.2675 38.1332ZM8.66739 42.4667V39.8665H11.2675V42.4667H8.66739Z" fill="#FA8071"/>
<path d="M15.6007 19.0672H27.7337C28.2125 19.0672 28.6005 18.6792 28.6005 18.2004C28.6005 17.7219 28.2125 17.334 27.7337 17.334H15.6007C15.1219 17.334 14.7339 17.7219 14.7339 18.2004C14.7339 18.6792 15.1219 19.0672 15.6007 19.0672Z" fill="#FA8071"/>
<path d="M25.1336 25.1335H15.6007C15.1219 25.1335 14.7339 25.5215 14.7339 26.0003C14.7339 26.4788 15.1219 26.8668 15.6007 26.8668H25.1336C25.6124 26.8668 26.0004 26.4788 26.0004 26.0003C26.0004 25.5215 25.6124 25.1335 25.1336 25.1335Z" fill="#FA8071"/>
<path d="M23.4003 32.9336H15.6007C15.1219 32.9336 14.7339 33.3216 14.7339 33.8004C14.7339 34.2789 15.1219 34.6669 15.6007 34.6669H23.4003C23.8791 34.6669 24.2671 34.2789 24.2671 33.8004C24.2671 33.3216 23.8791 32.9336 23.4003 32.9336Z" fill="#FA8071"/>
<path d="M23.4003 40.7336H15.6007C15.1219 40.7336 14.7339 41.1216 14.7339 41.6004C14.7339 42.0789 15.1219 42.4669 15.6007 42.4669H23.4003C23.8791 42.4669 24.2671 42.0789 24.2671 41.6004C24.2671 41.1216 23.8791 40.7336 23.4003 40.7336Z" fill="#FA8071"/>
</svg>
