<svg width="52" height="52" viewBox="0 0 52 52" fill="none" xmlns="http://www.w3.org/2000/svg">
<path d="M23.9049 35.2795C24.3014 34.8824 24.3014 34.2396 23.9049 33.8424C23.5081 33.4464 22.8652 33.4464 22.4679 33.8424C22.0719 34.2396 22.0719 34.8824 22.4679 35.2795C22.8652 35.6755 23.5081 35.6755 23.9049 35.2795Z" fill="#FA8071"/>
<path d="M19.095 11.1702C19.095 17.3295 24.1068 22.3408 30.2672 22.3408C36.4275 22.3408 41.4393 17.3295 41.4393 11.1702C41.4393 5.01096 36.4275 0 30.2672 0C24.1068 0 19.095 5.01096 19.095 11.1702ZM39.4083 11.1702C39.4083 16.2097 35.3076 20.3097 30.2672 20.3097C25.2267 20.3097 21.1261 16.2097 21.1261 11.1702C21.1261 6.13108 25.2267 2.03113 30.2672 2.03113C35.3076 2.03113 39.4083 6.13108 39.4083 11.1702Z" fill="#FA8071"/>
<path d="M11.6987 51.6997C12.0924 52.0965 12.7333 52.1008 13.1321 51.708L18.0563 46.8578C18.8929 46.0214 19.1472 44.783 18.7794 43.7065L19.8386 42.6852C20.4088 42.1345 21.1597 41.8309 21.9534 41.8309H35.4555C37.8509 41.8309 40.1149 40.9112 41.8313 39.2411C41.902 39.1725 41.2952 39.8871 51.0427 28.2392C52.4884 26.529 52.2721 23.9611 50.5601 22.514C48.8588 21.0804 46.3102 21.2864 44.8605 22.9671L38.8672 29.126C38.1104 28.1947 36.9564 27.6142 35.7095 27.6142H24.3837C22.7721 26.9401 21.062 26.5989 19.2976 26.5989C14.4068 26.5989 10.1363 28.8574 7.84448 33.0918C6.87894 32.9089 5.86062 33.2009 5.12803 33.9334L0.29635 38.7785C-0.0981211 39.1741 -0.0989148 39.8141 0.294763 40.2109L11.6987 51.6997ZM19.2972 28.6296C20.8529 28.6296 22.357 28.9427 23.7686 29.5601C23.8972 29.6164 24.0357 29.6454 24.1758 29.6454H35.7095C36.8107 29.6454 37.741 30.5433 37.741 31.6761C37.741 32.7962 36.8298 33.7072 35.7095 33.7072H27.4228C26.862 33.7072 26.4073 34.1619 26.4073 34.7226C26.4073 35.2836 26.862 35.738 27.4228 35.738H35.7095C37.9497 35.738 39.772 33.9159 39.772 31.6761C39.772 31.4975 39.7593 31.3206 39.7363 31.1452C45.534 25.1867 46.3515 24.3495 46.3864 24.3078C47.1102 23.4536 48.3953 23.3453 49.2501 24.0658C50.1057 24.7891 50.214 26.0731 49.4882 26.9322L40.3784 37.8207C39.0482 39.0975 37.3016 39.8002 35.4555 39.8002H21.9534C20.6303 39.8002 19.3778 40.3061 18.4277 41.2239L17.5646 42.0567L9.6077 34.1016C11.4673 30.6135 14.9569 28.6296 19.2972 28.6296ZM6.56543 35.3685C6.90037 35.0337 7.41469 34.9734 7.82305 35.2257C7.99886 35.3328 7.49406 34.8734 16.6201 43.9851C17.0261 44.391 17.0042 45.0377 16.6256 45.4163L12.4277 49.5511L2.44808 39.4971L6.56543 35.3685Z" fill="#FA8071"/>
<path d="M29.048 5.07878V6.26873C27.8657 6.68773 27.0163 7.81658 27.0163 9.14064C27.0163 10.8202 28.3832 12.1871 30.0636 12.1871C30.6236 12.1871 31.0792 12.6426 31.0792 13.2025C31.0792 13.7624 30.6236 14.2179 30.0636 14.2179C29.6298 14.2179 29.1611 13.9453 28.7447 13.4497C28.3836 13.0204 27.743 12.9652 27.3136 13.3259C26.8842 13.687 26.8286 14.3274 27.1898 14.7567C27.7327 15.4023 28.3713 15.8522 29.048 16.0792V17.2644C29.048 17.8254 29.5028 18.2797 30.0636 18.2797C30.6244 18.2797 31.0792 17.8254 31.0792 17.2644V16.0744C32.2615 15.655 33.1108 14.5262 33.1108 13.2025C33.1108 11.5225 31.744 10.156 30.0636 10.156C29.5036 10.156 29.048 9.7005 29.048 9.14064C29.048 8.58078 29.5036 8.12488 30.0636 8.12488C30.4235 8.12488 30.8034 8.30859 31.1621 8.65577C31.5654 9.04581 32.2083 9.03509 32.5984 8.63236C32.9886 8.22923 32.9778 7.58644 32.575 7.19641C32.0595 6.69765 31.5435 6.41554 31.0792 6.26159V5.07878C31.0792 4.51773 30.6244 4.06302 30.0636 4.06302C29.5028 4.06302 29.048 4.51773 29.048 5.07878Z" fill="#FA8071"/>
</svg>
