<svg width="36" height="52" viewBox="0 0 36 52" fill="none" xmlns="http://www.w3.org/2000/svg">
<path d="M4.28571 52H35.1429C35.3702 52 35.5882 51.9087 35.749 51.7462C35.9097 51.5836 36 51.3632 36 51.1333V30.3333C35.9994 29.6221 35.8263 28.922 35.4958 28.2942L29.1429 16.25V4.33333C29.1416 3.18446 28.6896 2.08301 27.8862 1.27063C27.0827 0.458251 25.9934 0.00129031 24.8571 0H4.28571C3.14946 0.00129031 2.06012 0.458251 1.25667 1.27063C0.453215 2.08301 0.00127613 3.18446 0 4.33333V47.6667C0.00127613 48.8155 0.453215 49.917 1.25667 50.7294C2.06012 51.5417 3.14946 51.9987 4.28571 52ZM28.2857 38.1333C28.513 38.1333 28.7311 38.042 28.8918 37.8795C29.0526 37.717 29.1429 37.4965 29.1429 37.2667V19.9333L33.9832 29.1098C34.1814 29.4865 34.2853 29.9066 34.2857 30.3333V50.2667H29.1429C27.1257 50.2643 25.1895 49.4641 23.7483 48.0372C22.307 46.6103 21.4751 44.6698 21.4303 42.6308C21.4733 42.4053 21.426 42.1717 21.2988 41.9814L15.7388 33.6614C15.5477 33.3786 15.4138 33.0604 15.3448 32.725C15.2758 32.3897 15.2729 32.0439 15.3365 31.7075C15.4 31.371 15.5287 31.0506 15.7151 30.7646C15.9015 30.4786 16.1419 30.2327 16.4226 30.0409C16.7032 29.8491 17.0186 29.7153 17.3506 29.6472C17.6826 29.579 18.0246 29.5779 18.357 29.6438C18.6894 29.7097 19.0057 29.8413 19.2876 30.0312C19.5696 30.221 19.8116 30.4654 19.9999 30.7501C20.005 30.7577 20.0106 30.765 20.0155 30.7725L25.0196 37.7747C25.0991 37.8858 25.2035 37.9762 25.3243 38.0386C25.445 38.1009 25.5787 38.1334 25.7143 38.1333H28.2857ZM15.5001 36.4H11.1429C10.6882 36.4 10.2522 36.2174 9.93067 35.8923C9.60918 35.5673 9.42857 35.1264 9.42857 34.6667C9.42857 34.207 9.60918 33.7661 9.93067 33.441C10.2522 33.116 10.6882 32.9333 11.1429 32.9333H13.646C13.7473 33.5415 13.9765 34.1206 14.3182 34.6314L15.5001 36.4ZM23.1429 19.0656V19.0667C23.1429 20.0224 22.3189 20.8 21.3061 20.8C21.0051 20.8033 20.7078 20.7331 20.4394 20.5953C20.171 20.4575 19.9395 20.2561 19.7646 20.0084C19.6857 19.8937 19.5805 19.8001 19.458 19.7354C19.3355 19.6707 19.1994 19.6369 19.0612 19.6369C18.923 19.6369 18.7869 19.6707 18.6644 19.7354C18.5419 19.8001 18.4367 19.8937 18.3577 20.0084C18.1805 20.2537 17.9486 20.4532 17.6807 20.5907C17.4129 20.7282 17.1167 20.7999 16.8163 20.7999C16.5159 20.7999 16.2197 20.7282 15.9519 20.5907C15.684 20.4532 15.452 20.2537 15.2748 20.0084C15.1959 19.8938 15.0907 19.8001 14.9682 19.7355C14.8457 19.6708 14.7096 19.637 14.5714 19.637C14.4333 19.637 14.2971 19.6708 14.1747 19.7355C14.0522 19.8001 13.947 19.8938 13.868 20.0084C13.6908 20.2537 13.4588 20.4532 13.191 20.5907C12.9231 20.7282 12.627 20.7999 12.3266 20.7999C12.0262 20.7999 11.73 20.7282 11.4621 20.5907C11.1943 20.4532 10.9623 20.2537 10.7851 20.0084C10.7062 19.8937 10.6009 19.8001 10.4785 19.7354C10.356 19.6707 10.2198 19.6369 10.0817 19.6369C9.94348 19.6369 9.80734 19.6707 9.68486 19.7354C9.56237 19.8001 9.45717 19.8937 9.37821 20.0084C9.20332 20.2561 8.97184 20.4575 8.70346 20.5953C8.43508 20.7331 8.13774 20.8033 7.83675 20.8C6.82393 20.8 6 20.0224 6 19.0667L23.1429 19.0656ZM7.80054 17.3333C7.9994 16.3553 8.52566 15.4765 9.29063 14.845C10.0556 14.2135 11.0125 13.868 12 13.8667H17.1429C18.1305 13.8679 19.0875 14.2133 19.8526 14.8448C20.6176 15.4763 21.144 16.3552 21.3429 17.3333H7.80054ZM7.5585 22.5333V22.5216C7.65043 22.5287 7.743 22.5333 7.83707 22.5333C8.65076 22.5355 9.44151 22.2607 10.082 21.7533C10.7234 22.2589 11.5134 22.5335 12.3267 22.5335C13.1399 22.5335 13.9299 22.2589 14.5713 21.7533C15.2127 22.2589 16.0027 22.5335 16.816 22.5335C17.6292 22.5335 18.4192 22.2589 19.0606 21.7533C19.7011 22.2607 20.4919 22.5355 21.3056 22.5333C21.3993 22.5333 21.4919 22.5287 21.5841 22.5216V22.5333C21.9708 22.5333 22.2855 22.9221 22.2855 23.4C22.2855 23.8779 21.9708 24.2667 21.5841 24.2667H7.5585C7.17182 24.2667 6.85714 23.8779 6.85714 23.4C6.85714 22.9221 7.17182 22.5333 7.5585 22.5333ZM7.71429 26H21.4286V26.8667C21.4283 27.0964 21.3379 27.3167 21.1772 27.4792C21.0166 27.6417 20.7987 27.7331 20.5714 27.7333H8.57143C8.34418 27.7331 8.12631 27.6417 7.96562 27.4792C7.80493 27.3167 7.71454 27.0964 7.71429 26.8667V26ZM1.71429 4.33333C1.71508 3.64402 1.98625 2.98316 2.46832 2.49574C2.95038 2.00832 3.60397 1.73414 4.28571 1.73333H24.8571C25.5389 1.73414 26.1925 2.00832 26.6745 2.49574C27.1566 2.98316 27.4278 3.64402 27.4286 4.33333V6.93333H1.71429V4.33333ZM1.71429 8.66667H27.4286V36.4H26.1524L21.4124 29.7672C21.3271 29.6408 21.2354 29.5191 21.1376 29.4024C21.7064 29.2718 22.2146 28.9499 22.5789 28.4892C22.9432 28.0285 23.142 27.4565 23.1429 26.8667V25.3842C23.4151 25.1326 23.6321 24.8259 23.7797 24.4841C23.9274 24.1423 24.0024 23.773 24 23.4C24.0021 22.8249 23.8221 22.2642 23.4864 21.8C23.9093 21.4836 24.2534 21.0717 24.4914 20.5972C24.7293 20.1227 24.8546 19.5987 24.8571 19.0667C24.8566 18.6071 24.6758 18.1666 24.3544 17.8416C24.0331 17.5167 23.5973 17.3339 23.1429 17.3333H23.0806C22.8729 15.8903 22.1587 14.571 21.0686 13.6163C19.9784 12.6616 18.585 12.1353 17.1429 12.1333H12C10.5578 12.1353 9.16442 12.6616 8.07428 13.6163C6.98414 14.571 6.26999 15.8903 6.06225 17.3333H6C5.54551 17.3339 5.10979 17.5167 4.78841 17.8416C4.46704 18.1666 4.28625 18.6071 4.28571 19.0667C4.28829 19.5987 4.41353 20.1227 4.65149 20.5972C4.88944 21.0717 5.23356 21.4836 5.6565 21.8C5.32078 22.2642 5.14079 22.8249 5.14286 23.4C5.14045 23.773 5.2155 24.1423 5.36314 24.4841C5.51079 24.8259 5.72776 25.1326 6 25.3842V26.8667C6.00079 27.556 6.27197 28.2168 6.75403 28.7043C7.2361 29.1917 7.88969 29.4659 8.57143 29.4667H14.5485C14.1413 29.9727 13.8523 30.5652 13.7031 31.2H11.1429C10.2335 31.2 9.36147 31.5652 8.71849 32.2154C8.07551 32.8655 7.71429 33.7472 7.71429 34.6667C7.71429 35.5861 8.07551 36.4678 8.71849 37.118C9.36147 37.7681 10.2335 38.1333 11.1429 38.1333H16.6584L18.975 41.6H1.71429V8.66667ZM1.71429 43.3333H19.7553C19.8806 44.7116 20.3012 46.0457 20.9878 47.243C21.6745 48.4403 22.6107 49.4721 23.7315 50.2667H4.28571C3.60397 50.2659 2.95038 49.9917 2.46832 49.5043C1.98625 49.0168 1.71508 48.356 1.71429 47.6667V43.3333Z" fill="#FA8071"/>
<path d="M9.42843 5.20001C9.90182 5.20001 10.2856 4.81199 10.2856 4.33334C10.2856 3.85469 9.90182 3.46667 9.42843 3.46667C8.95505 3.46667 8.57129 3.85469 8.57129 4.33334C8.57129 4.81199 8.95505 5.20001 9.42843 5.20001Z" fill="#FA8071"/>
<path d="M19.7141 3.46667H13.7141C13.4867 3.46667 13.2687 3.55798 13.108 3.72052C12.9472 3.88305 12.8569 4.10349 12.8569 4.33334C12.8569 4.5632 12.9472 4.78364 13.108 4.94617C13.2687 5.1087 13.4867 5.20001 13.7141 5.20001H19.7141C19.9414 5.20001 20.1594 5.1087 20.3202 4.94617C20.4809 4.78364 20.5712 4.5632 20.5712 4.33334C20.5712 4.10349 20.4809 3.88305 20.3202 3.72052C20.1594 3.55798 19.9414 3.46667 19.7141 3.46667Z" fill="#FA8071"/>
<path d="M14.5714 49.4C15.08 49.4 15.5772 49.2475 16 48.9618C16.4229 48.6761 16.7525 48.2701 16.9471 47.795C17.1417 47.3199 17.1927 46.7971 17.0934 46.2928C16.9942 45.7884 16.7493 45.3252 16.3897 44.9615C16.0301 44.5979 15.5719 44.3503 15.0731 44.25C14.5743 44.1496 14.0573 44.2011 13.5874 44.3979C13.1175 44.5947 12.7159 44.928 12.4334 45.3555C12.1508 45.7831 12 46.2858 12 46.8C12.0008 47.4893 12.272 48.1502 12.754 48.6376C13.2361 49.125 13.8897 49.3992 14.5714 49.4ZM14.5714 45.9333C14.741 45.9333 14.9067 45.9842 15.0476 46.0794C15.1886 46.1746 15.2985 46.31 15.3633 46.4684C15.4282 46.6267 15.4452 46.801 15.4121 46.9691C15.379 47.1372 15.2974 47.2916 15.1775 47.4128C15.0576 47.534 14.9049 47.6166 14.7387 47.65C14.5724 47.6835 14.4 47.6663 14.2434 47.6007C14.0868 47.5351 13.9529 47.424 13.8587 47.2815C13.7646 47.139 13.7143 46.9714 13.7143 46.8C13.7145 46.5702 13.8049 46.3499 13.9656 46.1875C14.1263 46.025 14.3442 45.9336 14.5714 45.9333Z" fill="#FA8071"/>
</svg>
