<svg width="24" height="24" viewBox="0 0 24 24" fill="none" xmlns="http://www.w3.org/2000/svg">
<path d="M23.5893 5.05186C23.8541 4.78702 24 4.43386 24 4.05751C24.0001 3.68115 23.8542 3.32799 23.5893 3.06311L20.9377 0.411496C20.6728 0.146653 20.3197 0.000732422 19.9433 0.000732422C19.567 0.000732422 19.2139 0.146607 18.949 0.411496L17.8453 1.51516C16.0788 0.526901 14.08 0.000826171 12.0003 0.000826171C9.35996 0.000826171 6.78142 0.879493 4.69478 2.48148L2.77501 0.483917C2.47975 0.176747 2.07902 0.00518552 1.64665 0.000919921C1.20946 -0.00208006 0.784126 0.170231 0.477007 0.477355C0.169936 0.784431 -0.00373236 1.21076 0.000626919 1.64697C0.00489245 2.07935 0.176451 2.48003 0.483663 2.77534L2.48115 4.69514C0.879186 6.78172 0.000533171 9.36035 0.000533171 12.0008C0.000533171 14.0806 0.526647 16.0793 1.51489 17.8459L0.411196 18.9496C-0.137042 19.4979 -0.137089 20.39 0.411196 20.9384L3.06281 23.59C3.32765 23.8548 3.6808 24.0007 4.05715 24.0007C4.4335 24.0007 4.78665 23.8549 5.05149 23.59L6.15514 22.4863C7.92172 23.4746 9.92043 24.0007 12.0002 24.0007C15.2055 24.0007 18.2189 22.7525 20.4853 20.486C22.7518 18.2195 24 15.2061 24 12.0008C24 9.92093 23.4739 7.92219 22.4856 6.15557L23.5893 5.05186ZM19.6119 1.07444C19.6997 0.986649 19.8174 0.938274 19.9433 0.938274C20.0693 0.938274 20.187 0.986649 20.2748 1.07444L22.9264 3.72605C23.0142 3.81385 23.0625 3.93155 23.0625 4.05751C23.0625 4.18346 23.0142 4.30111 22.9264 4.38891L21.9817 5.33362C21.548 4.68722 21.0481 4.07827 20.4853 3.51545C19.9225 2.95267 19.3136 2.4528 18.6672 2.01911L19.6119 1.07444ZM0.93806 1.63769C0.936232 1.45169 1.00982 1.27043 1.13999 1.1403C1.26852 1.01173 1.44697 0.938368 1.63058 0.938368C1.63287 0.938368 1.63512 0.938368 1.63742 0.938414C1.81592 0.940149 1.97988 1.00952 2.09918 1.1336L6.57278 5.7885C6.29398 6.03215 6.03181 6.29437 5.78816 6.57313L1.13329 2.09941C1.00917 1.98011 0.939794 1.8161 0.93806 1.63769ZM4.3886 22.927C4.3008 23.0148 4.1831 23.0632 4.05715 23.0632C3.9312 23.0632 3.8135 23.0148 3.7257 22.927L1.07409 20.2754C0.891327 20.0927 0.891327 19.7953 1.07409 19.6125L2.01879 18.6678C2.45247 19.3142 2.95233 19.9231 3.5151 20.486C4.07791 21.0487 4.68686 21.5486 5.33325 21.9823L4.3886 22.927ZM12.0003 23.0632C5.90052 23.0632 0.938013 18.1006 0.938013 12.0008C0.938013 9.60143 1.72456 7.25732 3.16125 5.34876L3.84284 6.00384C2.5547 7.74945 1.87554 9.81457 1.87554 12.0008C1.87554 14.319 2.67915 16.5847 4.13829 18.3805C5.57634 20.1504 7.5877 21.3952 9.80189 21.8856C9.83601 21.8931 9.87009 21.8967 9.90365 21.8967C10.1187 21.8967 10.3124 21.7478 10.3609 21.5292C10.4168 21.2765 10.2573 21.0262 10.0046 20.9702C5.83747 20.0473 2.81297 16.2751 2.81297 12.0007C2.81297 10.0586 3.40368 8.22186 4.52514 6.65952L5.20988 7.31764C5.08491 7.49877 4.96613 7.68448 4.85574 7.87573C4.72628 8.09994 4.8031 8.38662 5.0273 8.51604C5.10113 8.55865 5.1817 8.57895 5.26125 8.57895C5.42325 8.57895 5.58079 8.49485 5.6676 8.34448C6.30851 7.23439 7.23399 6.30885 8.34411 5.66793C8.5683 5.53851 8.64513 5.25183 8.51567 5.02763C8.38625 4.80347 8.09952 4.72655 7.87537 4.85606C7.68412 4.96645 7.4984 5.08523 7.31728 5.2102L6.65917 4.52546C8.22162 3.40393 10.0581 2.81326 12.0003 2.81326C17.0662 2.81326 21.1876 6.93472 21.1876 12.0007C21.1876 16.2752 18.1629 20.0474 13.9957 20.9703C13.7429 21.0263 13.5834 21.2765 13.6393 21.5293C13.6877 21.7479 13.8815 21.8968 14.0965 21.8968C14.1301 21.8968 14.1642 21.8932 14.1983 21.8857C16.4126 21.3953 18.424 20.1505 19.8622 18.3807C21.3214 16.5848 22.125 14.3191 22.125 12.0008C22.125 9.29637 21.0718 6.75374 19.1595 4.84139C17.2472 2.92904 14.7046 1.87586 12.0002 1.87586C9.81398 1.87586 7.74909 2.55494 6.00336 3.84319L5.34834 3.16154C7.25696 1.72483 9.60098 0.938321 12.0002 0.938321C18.1 0.938321 23.0625 5.9009 23.0625 12.0008C23.0625 18.1006 18.1 23.0632 12.0003 23.0632Z" fill="#00CBBF"/>
<path d="M17.6154 12.1161C18.4555 12.1161 19.1388 11.4326 19.1388 10.5926C19.1388 9.75254 18.4555 9.06915 17.6154 9.06915C16.7754 9.06915 16.092 9.75254 16.092 10.5926C16.092 11.4326 16.7754 12.1161 17.6154 12.1161ZM17.6154 10.0066C17.9385 10.0066 18.2014 10.2695 18.2014 10.5926C18.2014 10.9157 17.9385 11.1786 17.6154 11.1786C17.2923 11.1786 17.0295 10.9157 17.0295 10.5926C17.0295 10.2695 17.2924 10.0066 17.6154 10.0066Z" fill="#00CBBF"/>
<path d="M12.5002 14.7469C11.6602 14.7469 10.9768 15.4303 10.9768 16.2703C10.9768 17.1104 11.6602 17.7937 12.5002 17.7937C13.3402 17.7937 14.0236 17.1104 14.0236 16.2703C14.0236 15.4303 13.3402 14.7469 12.5002 14.7469ZM12.5002 16.8562C12.1771 16.8562 11.9143 16.5934 11.9143 16.2703C11.9143 15.9472 12.1771 15.6844 12.5002 15.6844C12.8233 15.6844 13.0861 15.9472 13.0861 16.2703C13.0861 16.5934 12.8233 16.8562 12.5002 16.8562Z" fill="#00CBBF"/>
<path d="M13.4977 8.98705C13.4977 8.14701 12.8144 7.46362 11.9743 7.46362C11.1343 7.46362 10.4509 8.14701 10.4509 8.98705C10.4509 9.82709 11.1344 10.5105 11.9743 10.5105C12.8144 10.5105 13.4977 9.82709 13.4977 8.98705ZM11.3884 8.98705C11.3884 8.66394 11.6513 8.40112 11.9743 8.40112C12.2974 8.40112 12.5603 8.66394 12.5603 8.98705C12.5603 9.31016 12.2974 9.57298 11.9743 9.57298C11.6513 9.57298 11.3884 9.31016 11.3884 8.98705Z" fill="#00CBBF"/>
<path d="M8.78558 13.5281C8.78558 12.6881 8.10216 12.0047 7.26217 12.0047C6.42219 12.0047 5.73877 12.6881 5.73877 13.5281C5.73877 14.3682 6.42219 15.0516 7.26217 15.0516C8.10216 15.0516 8.78558 14.3682 8.78558 13.5281ZM7.26217 14.1141C6.93907 14.1141 6.67625 13.8512 6.67625 13.5281C6.67625 13.205 6.93907 12.9422 7.26217 12.9422C7.58528 12.9422 7.8481 13.205 7.8481 13.5281C7.8481 13.8512 7.58528 14.1141 7.26217 14.1141Z" fill="#00CBBF"/>
<path d="M13.9064 5.48907C14.1653 5.48907 14.3752 5.27917 14.3752 5.02032C14.3752 4.76148 14.1653 4.55157 13.9064 4.55157H13.9061C13.6473 4.55157 13.4375 4.76148 13.4375 5.02032C13.4375 5.27917 13.6476 5.48907 13.9064 5.48907Z" fill="#00CBBF"/>
<path d="M8.00043 9.70789C8.25932 9.70789 8.46918 9.49798 8.46918 9.23914C8.46918 8.98029 8.25932 8.77039 8.00043 8.77039H8.0001C7.74121 8.77039 7.53149 8.98029 7.53149 9.23914C7.53149 9.49798 7.74154 9.70789 8.00043 9.70789Z" fill="#00CBBF"/>
<path d="M11.3752 13.0126C11.6341 13.0126 11.8439 12.8027 11.8439 12.5438C11.8439 12.285 11.6341 12.0751 11.3752 12.0751H11.3749C11.116 12.0751 10.9062 12.285 10.9062 12.5438C10.9062 12.8027 11.1163 13.0126 11.3752 13.0126Z" fill="#00CBBF"/>
<path d="M17.0705 14.114H17.0702C16.8113 14.114 16.6016 14.3239 16.6016 14.5828C16.6016 14.8416 16.8116 15.0515 17.0705 15.0515C17.3294 15.0515 17.5392 14.8416 17.5392 14.5828C17.5392 14.3239 17.3294 14.114 17.0705 14.114Z" fill="#00CBBF"/>
<path d="M8.56293 17.0671H8.5626C8.30371 17.0671 8.09399 17.277 8.09399 17.5359C8.09399 17.7947 8.30404 18.0046 8.56293 18.0046C8.82182 18.0046 9.03168 17.7947 9.03168 17.5359C9.03168 17.277 8.82182 17.0671 8.56293 17.0671Z" fill="#00CBBF"/>
<path d="M12.0004 21.1877H12.0001C11.7412 21.1877 11.5315 21.3977 11.5315 21.6565C11.5315 21.9153 11.7415 22.1252 12.0004 22.1252C12.2592 22.1252 12.4691 21.9153 12.4691 21.6565C12.4691 21.3977 12.2593 21.1877 12.0004 21.1877Z" fill="#00CBBF"/>
</svg>
