<svg width="40" height="40" viewBox="0 0 40 40" fill="none" xmlns="http://www.w3.org/2000/svg">
<path d="M35.9652 11.4251C36.1985 10.6501 35.9652 10.0818 34.8618 10.0818H31.2068C30.2768 10.0818 29.8518 10.5735 29.6185 11.1135C29.6185 11.1135 27.7602 15.6451 25.1268 18.5835C24.2768 19.4385 23.8885 19.7085 23.4252 19.7085C23.1935 19.7085 22.8568 19.4385 22.8568 18.6635V11.4251C22.8568 10.4951 22.5885 10.0818 21.8135 10.0818H16.0702C15.4902 10.0818 15.1402 10.5118 15.1402 10.9218C15.1402 11.8018 16.4568 12.0051 16.5918 14.4851V19.8651C16.5918 21.0435 16.3802 21.2585 15.9135 21.2585C14.6752 21.2585 11.6618 16.7101 9.8735 11.5035C9.52516 10.4918 9.1735 10.0835 8.24016 10.0835H4.58683C3.54183 10.0835 3.3335 10.5751 3.3335 11.1151C3.3335 12.0851 4.57183 16.8851 9.10183 23.2335C12.1218 27.5685 16.3735 29.9185 20.2468 29.9185C22.5685 29.9185 22.8552 29.3968 22.8552 28.4968V25.2201C22.8552 24.1768 23.0768 23.9668 23.8118 23.9668C24.3518 23.9668 25.2818 24.2401 27.4502 26.3285C29.9268 28.8051 30.3368 29.9168 31.7285 29.9168H35.3818C36.4252 29.9168 36.9468 29.3951 36.6468 28.3651C36.3185 27.3401 35.1352 25.8485 33.5652 24.0835C32.7118 23.0768 31.4368 21.9935 31.0485 21.4518C30.5068 20.7535 30.6635 20.4451 31.0485 19.8251C31.0502 19.8268 35.5018 13.5568 35.9652 11.4251Z" fill="#FB8172"/>
</svg>
